<svg xmlns="http://www.w3.org/2000/svg" xmlns:xlink="http://www.w3.org/1999/xlink" viewBox="0 0 900 350"><defs><style>.cls-1{mask:url(#mask);filter:url(#luminosity-noclip-5);}.cls-2,.cls-4,.cls-6,.cls-61,.cls-63,.cls-65,.cls-67,.cls-8{mix-blend-mode:multiply;}.cls-2{fill:url(#linear-gradient);}.cls-3{mask:url(#mask-2);filter:url(#luminosity-noclip-6);}.cls-4{fill:url(#linear-gradient-2);}.cls-5{mask:url(#mask-3);filter:url(#luminosity-noclip-7);}.cls-6{fill:url(#linear-gradient-3);}.cls-7{mask:url(#mask-4);filter:url(#luminosity-noclip-8);}.cls-8{fill:url(#linear-gradient-4);}.cls-12,.cls-9{isolation:isolate;}.cls-10{fill:#65587f;}.cls-11{fill:none;}.cls-12{font-size:47px;font-family:Helvetica-Bold, Helvetica;font-weight:700;}.cls-12,.cls-30{fill:#fff;}.cls-13{letter-spacing:-0.05em;}.cls-14{fill:#f5f5f5;}.cls-15{fill:url(#linear-gradient-5);}.cls-16{fill:#de8e8e;}.cls-17{fill:#85807f;}.cls-18{fill:#e65353;}.cls-19{fill:#d6d0cd;}.cls-20{fill:#b84343;}.cls-21{fill:#c48b52;}.cls-22{fill:#e66953;}.cls-23{fill:#e6d6d6;}.cls-24{fill:#a13a3a;}.cls-25{fill:#4d71a8;}.cls-26{fill:#5785cf;}.cls-27{fill:#eea987;}.cls-28{fill:#2a617d;}.cls-29{fill:#eea886;}.cls-31{fill:#b84444;}.cls-32{fill:#4aafd0;}.cls-33{fill:#486996;}.cls-34{fill:url(#linear-gradient-6);}.cls-35{fill:url(#linear-gradient-7);}.cls-36{fill:url(#linear-gradient-8);}.cls-37{fill:url(#linear-gradient-9);}.cls-38{fill:url(#linear-gradient-10);}.cls-39{fill:url(#linear-gradient-11);}.cls-40{fill:url(#linear-gradient-12);}.cls-41{fill:#9e6437;}.cls-42{fill:#dcb980;}.cls-43{fill:#dba0ae;}.cls-44{fill:#faa15d;}.cls-45{fill:#ffc870;}.cls-46{fill:#fcdca9;}.cls-47{fill:#fff2de;}.cls-48{fill:#494f80;}.cls-49{fill:#2b223d;}.cls-50{fill:#c38a51;}.cls-51{fill:#1d3b54;}.cls-52{fill:#e55353;}.cls-53{fill:#a77860;}.cls-54{fill:url(#linear-gradient-13);}.cls-55{fill:url(#linear-gradient-14);}.cls-56{fill:url(#linear-gradient-15);}.cls-57{fill:url(#linear-gradient-16);}.cls-58{fill:url(#linear-gradient-17);}.cls-59{fill:#fafafa;}.cls-60{mask:url(#mask-5);}.cls-61,.cls-63,.cls-65,.cls-67{opacity:0.21;}.cls-61{fill:url(#linear-gradient-18);}.cls-62{mask:url(#mask-6);}.cls-63{fill:url(#linear-gradient-19);}.cls-64{mask:url(#mask-7);}.cls-65{fill:url(#linear-gradient-20);}.cls-66{mask:url(#mask-8);}.cls-67{fill:url(#linear-gradient-21);}.cls-68{fill:#202338;}.cls-69{fill:#81807e;}.cls-70{fill:#292c47;}.cls-71{fill:#dbd8e3;}.cls-72{fill:#1d2033;}.cls-73{fill:#4b3e73;}.cls-74{fill:#c4c1cc;}.cls-75{fill:#3a4066;}.cls-76{fill:#efaa88;}.cls-77{fill:#16202e;}.cls-78{fill:#eddad3;}.cls-79{fill:#3f446e;}.cls-80{fill:#c27e5d;}.cls-81{fill:#e8734d;}.cls-82{fill:#32658f;}.cls-83{fill:#23344a;}.cls-84{fill:#eb4747;}.cls-85{fill:#ad3434;}.cls-86{fill:#8087e8;}.cls-87{fill:#6a6fbf;}.cls-88{fill:#db9c7c;}.cls-89{fill:#2f4563;}.cls-90{fill:#754836;}.cls-91{fill:#454442;}.cls-92{fill:#3b332e;}.cls-93{fill:#cc3d3d;}.cls-94{filter:url(#luminosity-noclip-4);}.cls-95{filter:url(#luminosity-noclip-3);}.cls-96{filter:url(#luminosity-noclip-2);}.cls-97{filter:url(#luminosity-noclip);}</style><filter id="luminosity-noclip" x="877.99" y="-8366" width="20.87" height="32766" filterUnits="userSpaceOnUse" color-interpolation-filters="sRGB"><feFlood flood-color="#fff" result="bg"/><feBlend in="SourceGraphic" in2="bg"/></filter><mask id="mask" x="877.99" y="-8366" width="20.87" height="32766" maskUnits="userSpaceOnUse"><g class="cls-97"/></mask><linearGradient id="linear-gradient" x1="879.81" y1="324.39" x2="892.87" y2="336.65" gradientUnits="userSpaceOnUse"><stop offset="0" stop-color="#fff"/><stop offset="1"/></linearGradient><filter id="luminosity-noclip-2" x="760.61" y="-8366" width="29.83" height="32766" filterUnits="userSpaceOnUse" color-interpolation-filters="sRGB"><feFlood flood-color="#fff" result="bg"/><feBlend in="SourceGraphic" in2="bg"/></filter><mask id="mask-2" x="760.61" y="-8366" width="29.83" height="32766" maskUnits="userSpaceOnUse"><g class="cls-96"/></mask><linearGradient id="linear-gradient-2" x1="759.59" y1="322.83" x2="777.89" y2="338.66" xlink:href="#linear-gradient"/><filter id="luminosity-noclip-3" x="588.4" y="-8366" width="37.53" height="32766" filterUnits="userSpaceOnUse" color-interpolation-filters="sRGB"><feFlood flood-color="#fff" result="bg"/><feBlend in="SourceGraphic" in2="bg"/></filter><mask id="mask-3" x="588.4" y="-8366" width="37.53" height="32766" maskUnits="userSpaceOnUse"><g class="cls-95"/></mask><linearGradient id="linear-gradient-3" x1="593.12" y1="323.99" x2="610.56" y2="335.33" xlink:href="#linear-gradient"/><filter id="luminosity-noclip-4" x="743.45" y="-8366" width="37.53" height="32766" filterUnits="userSpaceOnUse" color-interpolation-filters="sRGB"><feFlood flood-color="#fff" result="bg"/><feBlend in="SourceGraphic" in2="bg"/></filter><mask id="mask-4" x="743.45" y="-8366" width="37.53" height="32766" maskUnits="userSpaceOnUse"><g class="cls-94"/></mask><linearGradient id="linear-gradient-4" x1="744" y1="317.39" x2="768.2" y2="338.29" xlink:href="#linear-gradient"/><linearGradient id="linear-gradient-5" x1="449.43" y1="253.1" x2="449.43" y2="400" gradientUnits="userSpaceOnUse"><stop offset="0" stop-color="#d9a084"/><stop offset="0.39" stop-color="#faefee"/><stop offset="1" stop-color="#fff"/></linearGradient><linearGradient id="linear-gradient-6" x1="353.94" y1="303.65" x2="353.94" y2="227.12" gradientUnits="userSpaceOnUse"><stop offset="0" stop-color="#e87474"/><stop offset="1" stop-color="#ffbd66"/></linearGradient><linearGradient id="linear-gradient-7" x1="320.72" y1="312.67" x2="320.72" y2="245.01" xlink:href="#linear-gradient-6"/><linearGradient id="linear-gradient-8" x1="322.72" y1="318.08" x2="322.72" y2="237.69" xlink:href="#linear-gradient-6"/><linearGradient id="linear-gradient-9" x1="359.33" y1="311.76" x2="359.33" y2="222.28" xlink:href="#linear-gradient-6"/><linearGradient id="linear-gradient-10" x1="332.34" y1="316.27" x2="332.34" y2="208.16" xlink:href="#linear-gradient-6"/><linearGradient id="linear-gradient-11" x1="332.96" y1="319.75" x2="341.3" y2="289.53" gradientUnits="userSpaceOnUse"><stop offset="0" stop-color="#c9c4c1"/><stop offset="1" stop-color="#fff6de"/></linearGradient><linearGradient id="linear-gradient-12" x1="305.23" y1="292.61" x2="346.31" y2="292.61" gradientTransform="translate(19.53)" xlink:href="#linear-gradient-11"/><linearGradient id="linear-gradient-13" x1="481.91" y1="193.34" x2="481.91" y2="250.67" gradientUnits="userSpaceOnUse"><stop offset="0" stop-color="#d9af84"/><stop offset="1" stop-color="#fff"/></linearGradient><linearGradient id="linear-gradient-14" x1="513.75" y1="366.82" x2="469.77" y2="230.16" xlink:href="#linear-gradient-6"/><linearGradient id="linear-gradient-15" x1="472.75" y1="210.09" x2="509.26" y2="210.09" gradientUnits="userSpaceOnUse"><stop offset="0" stop-color="#d3c2d9"/><stop offset="1" stop-color="#d9ecff"/></linearGradient><linearGradient id="linear-gradient-16" x1="472.75" y1="187.17" x2="509.26" y2="187.17" xlink:href="#linear-gradient-15"/><linearGradient id="linear-gradient-17" x1="488.95" y1="198.75" x2="493.06" y2="198.75" xlink:href="#linear-gradient-15"/><filter id="luminosity-noclip-5" x="877.99" y="324.16" width="20.87" height="19.2" filterUnits="userSpaceOnUse" color-interpolation-filters="sRGB"><feFlood flood-color="#fff" result="bg"/><feBlend in="SourceGraphic" in2="bg"/></filter><mask id="mask-5" x="877.99" y="324.16" width="20.87" height="19.2" maskUnits="userSpaceOnUse"><g class="cls-1"><polygon class="cls-2" points="898.86 340.8 898.86 343.36 878 324.16 880.77 324.16 898.86 340.8"/></g></mask><linearGradient id="linear-gradient-18" x1="879.81" y1="324.39" x2="892.87" y2="336.65" gradientUnits="userSpaceOnUse"><stop offset="0" stop-color="#3d3c37"/><stop offset="1" stop-color="#96cbff"/></linearGradient><filter id="luminosity-noclip-6" x="760.61" y="324.16" width="29.83" height="24.9" filterUnits="userSpaceOnUse" color-interpolation-filters="sRGB"><feFlood flood-color="#fff" result="bg"/><feBlend in="SourceGraphic" in2="bg"/></filter><mask id="mask-6" x="760.61" y="324.16" width="29.83" height="24.9" maskUnits="userSpaceOnUse"><g class="cls-3"><polygon class="cls-4" points="790.43 349.05 787.66 349.05 760.61 324.16 763.38 324.16 790.43 349.05"/></g></mask><linearGradient id="linear-gradient-19" x1="759.59" y1="322.83" x2="777.89" y2="338.66" xlink:href="#linear-gradient-18"/><filter id="luminosity-noclip-7" x="588.4" y="317.18" width="37.53" height="31.87" filterUnits="userSpaceOnUse" color-interpolation-filters="sRGB"><feFlood flood-color="#fff" result="bg"/><feBlend in="SourceGraphic" in2="bg"/></filter><mask id="mask-7" x="588.4" y="317.18" width="37.53" height="31.87" maskUnits="userSpaceOnUse"><g class="cls-5"><polygon class="cls-6" points="625.93 349.05 623.03 349.05 588.4 317.18 591.29 317.18 625.93 349.05"/></g></mask><linearGradient id="linear-gradient-20" x1="593.12" y1="323.99" x2="610.56" y2="335.33" xlink:href="#linear-gradient-18"/><filter id="luminosity-noclip-8" x="743.45" y="317.18" width="37.53" height="31.87" filterUnits="userSpaceOnUse" color-interpolation-filters="sRGB"><feFlood flood-color="#fff" result="bg"/><feBlend in="SourceGraphic" in2="bg"/></filter><mask id="mask-8" x="743.45" y="317.18" width="37.53" height="31.87" maskUnits="userSpaceOnUse"><g class="cls-7"><polygon class="cls-8" points="780.99 349.05 778.08 349.05 743.45 317.18 746.34 317.18 780.99 349.05"/></g></mask><linearGradient id="linear-gradient-21" x1="744" y1="317.39" x2="768.2" y2="338.29" xlink:href="#linear-gradient-18"/></defs><title>image_3</title><g class="cls-9"><g id="Layer_1" data-name="Layer 1"><rect class="cls-10" width="900" height="350"/><rect class="cls-11" y="0.75" width="513.39" height="349.76"/><rect class="cls-10" x="260.76" y="141.6" width="393.82" height="72.46"/><g class="cls-9"><text class="cls-12" transform="translate(82.31 116.93)"><tspan class="cls-13">Y</tspan><tspan x="28.78" y="0">uk nitip</tspan></text></g><polygon class="cls-14" points="588.54 328.87 731.24 333.14 602.54 333.14 575.72 328.87 588.54 328.87"/><polygon class="cls-14" points="895.37 303.7 699.27 303.7 875.96 306.9 769.22 311.68 895.37 315.31 895.37 303.7"/><rect class="cls-15" y="290.01" width="898.86" height="59.04"/><rect class="cls-16" x="568.76" y="268.16" width="317.82" height="21.99"/><path class="cls-17" d="M815.81,148.48s4.4,9.49,1.36,9.74-5.79-6.86-5.79-6.86Z"/><path class="cls-18" d="M788.7,270.88s-3.11,4.27-2.67,4.95,3.83.79,5.9,0,2.11-5.87,3-8.05c.39-.92-.44-3.62-1.62-3.81a4.89,4.89,0,0,0-2.45.38S792,267.5,788.7,270.88Z"/><path class="cls-19" d="M790.88,264.31a33.79,33.79,0,0,0-.72,3.52c-.21,1.46-2.51,4.66-2.41,5.06s2.75.74,3.83-.27,1.92-3.94,2-5.72.22-3,.22-3S791.91,263.23,790.88,264.31Z"/><polygon class="cls-18" points="794.97 267.78 794.97 272.32 794.38 272.32 794.38 268.81 794.97 267.78"/><path class="cls-18" d="M816.87,270.88s-3.11,4.27-2.67,4.95,3.83.79,5.9,0,2.11-5.87,3-8.05c.39-.92-.44-3.62-1.62-3.81a5.23,5.23,0,0,0-2.55.42S820.17,267.5,816.87,270.88Z"/><path class="cls-19" d="M819,264.39a30.16,30.16,0,0,1-.64,3.44c-.39,1.42-2.51,4.66-2.41,5.06s2.75.74,3.83-.27,1.92-3.94,2-5.72a9.6,9.6,0,0,0-.25-2.93A2.39,2.39,0,0,0,819,264.39Z"/><polygon class="cls-18" points="823.14 267.78 823.14 272.32 822.55 272.32 822.55 268.81 823.14 267.78"/><path class="cls-19" d="M803,193.67s-2.35,12.94-3,16.18-2.41,18.93-2.6,21.6-2.89,12.72-2.76,13.67-4,20.09-4,20.09a2.47,2.47,0,0,0,2.89.11c.77-.53,7-16.41,8.22-21s3.53-7,6.18-17.4c.4-1.55,3.76-18.75,4.52-19.64s1.91.51,2.35,2.48,1.4,19,2,21.15.13,9.47.44,13.15S819,264.39,819,264.39s2.34.45,2.59,0,2.62-18.56,2.68-22.94.13-10.43.25-12.33c1.18-18.16,3.4-20.53-.48-33.61C814.5,163.57,803,193.67,803,193.67Z"/><path class="cls-19" d="M835,179c-1.74,3.8-8.43,11.76-10.63,13.92-.63.62-1.46-2.24-1.35-2.56s8.59-11.41,7.58-12.58c-4.41-5.09-7.61-8.64-7.61-8.64a18.9,18.9,0,0,0-2.18,6.92,30.82,30.82,0,0,0-.4,8.15c.29,2.8,1.61,4.7,1.76,6L803,193.67c.08-.27.22-1.25.38-2.6.46-4.1,1-11.63-.35-13.34a10.89,10.89,0,0,1-1.93-4.65,18,18,0,0,1-.24-3.92h0a1.28,1.28,0,0,1,0-.19l0,0c-.35.62-6.63,12.63-7.07,13.34-.58.94,1.71,2.73,3.81,4.9l3.68,3-1,2.64-10.64-7.26c-1.26-1.48-1.51-2.15,1.48-8.06.9-1.79,5.6-13.76,6.57-14.78a25.79,25.79,0,0,1,3.55-2.6,38.86,38.86,0,0,1,5.79-3.11,13.16,13.16,0,0,1,1.27-.46h0c4-1.27,6.31,0,6.31,0a44.32,44.32,0,0,0,7.48,2.35l.27,0a1.55,1.55,0,0,1,.62.31h0C826.38,161.71,835.74,177.41,835,179Z"/><path class="cls-20" d="M812.26,206.3a34.75,34.75,0,0,1-5-5.19l.16-.1a34.48,34.48,0,0,0,4.93,5.14Z"/><path class="cls-20" d="M811.61,205.72c-.16-.06-4.15-1.45-5.21-3l.16-.11c1,1.49,5.08,2.91,5.12,2.92Z"/><path class="cls-19" d="M814.44,151.75s-.35,4.31.48,5.61-.71,3-3.88,2.44-3-2.4-3-2.4a13.23,13.23,0,0,0,.62-4.79C808.41,150.48,814.44,151.75,814.44,151.75Z"/><path class="cls-19" d="M816.51,157.32s-4,9.52-6.36,11.24c0,0-3.11-10.07-2.89-11.54A11.47,11.47,0,0,1,816.51,157.32Z"/><path class="cls-21" d="M806.51,178.17l-.06-.25a22.92,22.92,0,0,1,9.41,0l-.07.25A22.51,22.51,0,0,0,806.51,178.17Z"/><path class="cls-21" d="M808.63,178.75l-.13-.22c.92-.56,6.08-.82,6.3-.83l0,.26C813,178.05,809.33,178.33,808.63,178.75Z"/><path class="cls-19" d="M806.05,144.32s-.57-.68-.79,0,.49,2.76.57,3c0,0,.34,1.16.48,1A37.31,37.31,0,0,0,806.05,144.32Z"/><path class="cls-19" d="M816.07,144.41s.57-.69.79,0-.49,2.75-.57,3.05c0,0-.34,1.16-.48,1A37.14,37.14,0,0,1,816.07,144.41Z"/><path class="cls-19" d="M812,137.73s5.27.81,4.49,9.11-5.41,7.63-5.72,7.62-4.67.18-5-9.94C805.69,144.52,805.51,137,812,137.73Z"/><path class="cls-17" d="M806.7,144s5.84,1.74,8.64,1.18c0,0,.18,1,.58,1.1s.61-2,.61-2,.13-6.74-6-6.8-4.86,7.3-4.86,7.3l.08,1.26S806.66,146.43,806.7,144Z"/><path class="cls-22" d="M826.2,208.59c-.2,11.12-.61,11.82-.61,11.82s-2.92,4.24-15.14,3.63c-5.49-.27-11.1-.36-13.86.7,0,0,.4-2.82,1.59-9.32,1.43-7.87,1.35-6.29,1.64-8.85.45-4,2.22-14.43,3.59-15.5.46-4.1,1-11.63-.35-13.34a10.89,10.89,0,0,1-1.93-4.65c-.11-1.73-.21-3.15-.24-3.92h0a.76.76,0,0,1,0-.15,83.69,83.69,0,0,1,.36-8.78c1-1.15,4-2.44,5.79-3.11.69-.26,1.18-.43,1.27-.46h0c2.19.75,6.31,0,6.31,0a31.55,31.55,0,0,1,6.14,1.87c.54.2.81.27.83.28.35.09.68.21.68.21a71.25,71.25,0,0,0,.72,10.19,40.44,40.44,0,0,1-2,6.87c-.95,2.58,0,5.11.09,8.32.12,2.81.9,4.58,1,5.87C822.18,190.21,826.44,195.46,826.2,208.59Z"/><path class="cls-19" d="M801.3,190.28a1.13,1.13,0,0,0,.72.16c.63-.11,1.22-.86,2-.4s-.14,3.15-.58,3.52-1.67.51-3.14-.64S801.3,190.28,801.3,190.28Z"/><path class="cls-19" d="M803.69,189.92s1.37.2,2.84.58c1.28.34,2.71,1,2.74,1.24s-1.34-.16-2.64-.42-1,0-1,0,0-.07,1.2.43,2.66,1.21,2.66,1.53c0,.16-.09.22-.61.1.28.13.29.22.24.34-.24.61-2.34.11-3.18-.09.64.16,1.09.34.69.62s-3.19-.44-4.29-.43S803.69,189.92,803.69,189.92Z"/><path class="cls-19" d="M823,190.37a1.14,1.14,0,0,1-.68.29c-.63,0-1.35-.62-2,0s.73,3.06,1.23,3.34,1.74.19,3-1.22S823,190.37,823,190.37Z"/><path class="cls-19" d="M820.58,190.47s-1.27.45-2.64,1.1c-1.2.58-2.48,1.46-2.46,1.73s1.29-.41,2.51-.9,1-.19,1-.19,0-.08-1.1.64-2.39,1.69-2.32,2c0,.16.12.2.61,0-.25.18-.24.28-.17.38.35.55,2.32-.33,3.11-.68-.6.27-1,.53-.56.73s3-1,4.13-1.23S820.58,190.47,820.58,190.47Z"/><path class="cls-23" d="M807.78,156.81a7.75,7.75,0,0,0,7.25-.14l-.14-.61a27.36,27.36,0,0,1-6.85.11Z"/><path class="cls-18" d="M826.31,193.13a4.65,4.65,0,0,1-1.66-.47l.2-.2c.38.17,1.4.58,1.83.34a.34.34,0,0,0,.17-.28c.09-.77-2.22-2.46-3.16-3.08l.15-.21c.36.24,3.39,2.25,3.26,3.32a.59.59,0,0,1-.3.47A.94.94,0,0,1,826.31,193.13Z"/><path class="cls-24" d="M825.42,193.73a2.77,2.77,0,0,1-1.29-.54l.23-.23c.23.17.85.62,1.2.49.11,0,.17-.12.21-.26.19-.69-1.66-2.63-2.38-3.34l.17-.23c.27.27,2.71,2.67,2.46,3.64a.59.59,0,0,1-.37.43A.62.62,0,0,1,825.42,193.73Z"/><path class="cls-18" d="M819.83,265.63a2.56,2.56,0,0,1-1-.19l0-.35a2.06,2.06,0,0,0,2.74-.8l.25.19A2.53,2.53,0,0,1,819.83,265.63Z"/><path class="cls-18" d="M792.1,266a2.17,2.17,0,0,1-1.52-.41l.09-.41a2.74,2.74,0,0,0,3,0l.16.28A3.51,3.51,0,0,1,792.1,266Z"/><path class="cls-25" d="M654.67,137.87c.72,5.38-5.24,10.62-13.3,11.7s-15.19-2.41-15.91-7.8,5.23-10.62,13.3-11.7S654,132.48,654.67,137.87Z"/><path class="cls-19" d="M654.2,144.85a2.62,2.62,0,0,0-1.77-1.35,4.82,4.82,0,0,1-2.7-1.57c-.13-.34.47-.36,1.1-.12a9.19,9.19,0,0,0,2.36.22c.32,0,1.15-1.3,1.24-1.2s.88.31,1.13,1.14a3.88,3.88,0,0,0,.8,1.39Z"/><path class="cls-26" d="M618.6,270.88s-3.1,4.27-2.66,4.95,3.83.79,5.89,0,2.11-5.87,3-8.05c.39-.91-.44-3.61-1.62-3.81a5,5,0,0,0-2.45.38S621.9,267.5,618.6,270.88Z"/><path class="cls-19" d="M620.78,264.32a34,34,0,0,0-.72,3.51c-.2,1.46-2.5,4.66-2.4,5.06s2.75.75,3.83-.27,1.91-3.94,2-5.72.22-3,.22-3S621.81,263.24,620.78,264.32Z"/><polygon class="cls-26" points="624.87 267.78 624.87 272.32 624.28 272.32 624.28 268.81 624.87 267.78"/><path class="cls-26" d="M646.76,270.88s-3.11,4.27-2.66,4.95,3.82.79,5.89,0,2.11-5.87,3-8.05c.39-.91-.44-3.61-1.62-3.81a5.36,5.36,0,0,0-2.55.42S650.06,267.5,646.76,270.88Z"/><path class="cls-19" d="M648.86,264.39a29.76,29.76,0,0,1-.64,3.44c-.39,1.42-2.5,4.66-2.41,5.06s2.75.75,3.83-.27,1.92-3.94,2-5.72a9.66,9.66,0,0,0-.25-2.93A2.39,2.39,0,0,0,648.86,264.39Z"/><polygon class="cls-26" points="653.03 267.78 653.03 272.32 652.44 272.32 652.44 268.81 653.03 267.78"/><path class="cls-19" d="M632.92,193.7s-2.34,13-3,16.18-2.41,18.92-2.6,21.59-2.89,12.71-2.76,13.67-4,20.08-4,20.08a2.49,2.49,0,0,0,2.9.1c.76-.53,7-16.4,8.21-21s6.2-14.08,6.65-15.62,3.28-20.51,4-21.4,1.91.51,2.35,2.48,1.4,19,2,21.14.13,9.46.45,13.14l1.71,20.34s2.34.46,2.59.05,2.62-18.56,2.68-22.94.13-10.42.25-12.32c1.18-18.15,3.4-20.52-.48-33.59C644.39,163.62,632.92,193.7,632.92,193.7Z"/><path class="cls-27" d="M635.55,147.25h0c-.17,0-.44-.88-.5-1s0-.13-.07-.25a6.93,6.93,0,0,1-.53-2.82.43.43,0,0,1,.29-.33c.28-.06.59.29.6.31h0a28.28,28.28,0,0,1,.27,4.09Zm-.77-4.38h0c-.1,0-.18.12-.24.28a7.15,7.15,0,0,0,.53,2.79c0,.12.06.2.07.25a3,3,0,0,0,.46,1h0a31.61,31.61,0,0,0-.29-4A.89.89,0,0,0,634.78,142.87Z"/><path class="cls-17" d="M641.28,134.15a5.68,5.68,0,0,1,5.77,3.65c1.53,4.1,3,5.44,3.14,7.59.73,8.7,4.8,6.73,3.65,11.75s-1.93,5.77-1.93,5.77l-9.72-1.9-9.84,0s3.85-1.92,3-6-3-10.8-1.79-15.37S638.74,134.5,641.28,134.15Z"/><path class="cls-27" d="M646.46,147.25l-.05,0a29.79,29.79,0,0,1,.27-4.09h0s.32-.37.6-.31a.43.43,0,0,1,.29.33,7.08,7.08,0,0,1-.52,2.82c0,.12-.07.2-.08.25s-.33,1-.5,1Zm.28-4.1a31.61,31.61,0,0,0-.29,4h0a3,3,0,0,0,.46-1c0-.05,0-.13.07-.25a7.15,7.15,0,0,0,.53-2.79c-.06-.16-.14-.26-.24-.28S646.79,143.1,646.74,143.15Z"/><path class="cls-25" d="M652.07,190.24c-.15-1.28-.93-3.05-1.05-5.86a47.67,47.67,0,0,1-.1-8.32,21,21,0,0,1,2-6.86s9.31-10.28,10.65-13.5c.59-1.43-7.19-13.4-7.28-13.12s-2.85,1.71-2.35,2.45c.85,1.27,4.76,7.74,4.35,9.32-.24.91-3.37,5.12-6,4.69a42.75,42.75,0,0,1-7.75-2.39s-2.28-1.23-6.3,0a37.69,37.69,0,0,0-10.63,6.18c-1,1-5.66,13-6.57,14.78-3,5.9-1.5,7.68,2.17,11l6.88,5,1.49-3.59-3.71-3.41c-1.66-1.51-4.44-3.72-3.21-6.4.36-.79,6.16-11.27,6.16-11.27-.13,2.16.06,6,2.15,8.76,1.76,2.29.29,14.88,0,15.93Z"/><path class="cls-20" d="M642.15,206.33a35,35,0,0,1-5-5.18l.16-.11a33.84,33.84,0,0,0,4.94,5.14Z"/><path class="cls-20" d="M641.51,205.75c-.17-.06-4.15-1.45-5.21-3l.15-.11c1,1.49,5.08,2.91,5.12,2.92Z"/><path class="cls-19" d="M641.84,136.55s5.61.81,4.79,9.1-5.78,7.63-6.11,7.62-5,.18-5.37-9.94C635.15,143.33,635,135.85,641.84,136.55Z"/><path class="cls-19" d="M644.33,151.8s-.34,4.32.49,5.61-.71,3-3.89,2.44-3-2.4-3-2.4a13.14,13.14,0,0,0,.63-4.79C638.31,150.53,644.33,151.8,644.33,151.8Z"/><path class="cls-17" d="M641.2,139.55s2.62,2.76,3.84,4.16a8,8,0,0,1,1.36,4.09,6.44,6.44,0,0,0,1.19-5.42c-.86-2.93-2.89-8.61-8-6.86s-5.33,9.43-4.73,13.24C634.83,148.76,637.14,140.35,641.2,139.55Z"/><path class="cls-19" d="M646.4,157.37s-4,9.52-6.36,11.24c0,0-3.11-10.06-2.89-11.54A11.51,11.51,0,0,1,646.4,157.37Z"/><path class="cls-25" d="M633.31,191.1l18.76-.86s4.62,7.22,4.39,20.34c-.2,11.11-1.41,15.19-1.41,15.19s-15.09,6-27.28,5.06-11.69-3.48-14.61-2.28c0,0-.19-3.68,3.87-8.88s7.87-10.48,8.57-13S631.94,192.18,633.31,191.1Z"/><path class="cls-19" d="M631.2,190.32a1.2,1.2,0,0,0,.72.16c.63-.11,1.21-.86,2-.4s-.14,3.15-.58,3.52-1.68.51-3.14-.65S631.2,190.32,631.2,190.32Z"/><path class="cls-19" d="M633.59,190a28.16,28.16,0,0,1,2.83.59c1.29.34,2.71,1,2.74,1.23s-1.34-.15-2.63-.41-1,0-1,0,0-.07,1.2.43,2.66,1.21,2.66,1.53c0,.16-.08.22-.61.1.29.13.29.22.25.34-.24.6-2.35.11-3.18-.09.64.16,1.09.33.69.62s-3.19-.44-4.29-.43S633.59,190,633.59,190Z"/><polygon class="cls-25" points="631.56 190.09 630.07 193.68 625.88 190.64 628.98 187.72 631.56 190.09"/><path class="cls-17" d="M638.07,154.64s-6.94,6.18-5.14,10c1.54,3.29,7,1.28,6.09-2.17A39.62,39.62,0,0,1,638.07,154.64Z"/><path class="cls-28" d="M720.7,271.43s-3.05,4.19-2.61,4.86,3.76.78,5.78,0,2.08-5.76,3-7.91c.39-.89-.43-3.54-1.59-3.74a5.21,5.21,0,0,0-2.51.42S724,268.11,720.7,271.43Z"/><path class="cls-19" d="M722.76,265.06a29.28,29.28,0,0,1-.62,3.37c-.39,1.4-2.46,4.58-2.37,5s2.71.74,3.77-.26,1.88-3.87,2-5.62a9.18,9.18,0,0,0-.24-2.88A2.37,2.37,0,0,0,722.76,265.06Z"/><polygon class="cls-28" points="726.86 268.38 726.86 272.84 726.28 272.84 726.28 269.4 726.86 268.38"/><path class="cls-28" d="M728.68,271.43s-3,4.19-2.61,4.86,3.76.78,5.79,0,2.07-5.76,3-7.91c.38-.89-.44-3.54-1.6-3.74a5.15,5.15,0,0,0-2.5.42S731.93,268.11,728.68,271.43Z"/><path class="cls-19" d="M730.75,265.06a28,28,0,0,1-.63,3.37c-.39,1.4-2.46,4.58-2.36,5s2.7.74,3.76-.26,1.88-3.87,2-5.62a9.34,9.34,0,0,0-.25-2.88A2.35,2.35,0,0,0,730.75,265.06Z"/><polygon class="cls-28" points="734.85 268.38 734.85 272.84 734.27 272.84 734.27 269.4 734.85 268.38"/><path class="cls-19" d="M713.63,195s-3.29,15.37-3.91,18.55-.66,16.57-.84,19.19,6.8,15.57,6.93,16.5,6.72,17.34,6.72,17.34,2.91,1.64,3-.14c.17-3.55-1.88-17.17-2.55-21.8-.62-4.3-4.19-11-3.76-12.48s4.43-22.33,5.18-23.2.42.9.86,2.83.62,17.59,1,20.31c.29,2,1.24,9.31,1.55,12.93s2.74,21.32,2.74,21.32,2.65-.22,2.9-.62,3.3-18.43,3.36-22.73-1.18-10.63-1.06-12.49c1.15-17.83,4.75-24.66.93-37.49C727.35,161.63,713.63,195,713.63,195Z"/><path class="cls-29" d="M717.68,150h0c-.17,0-.44-.86-.49-1l-.08-.24a6.88,6.88,0,0,1-.51-2.78c.06-.18.15-.29.28-.32s.58.29.59.31h0a29,29,0,0,1,.27,4S717.7,150,717.68,150Zm-.76-4.31h0c-.1,0-.18.12-.23.28a7.06,7.06,0,0,0,.51,2.74c0,.11.06.2.08.24.12.39.34,1,.45,1h0a29.82,29.82,0,0,0-.28-4A.8.8,0,0,0,716.92,145.69Z"/><path class="cls-17" d="M723.3,137.83a5.56,5.56,0,0,1,5.67,3.59c1.5,4,1.84,5.73,3.09,7.45s2.34,4.64,1.22,9.57.46,7.64.46,7.64l-9.54-1.87-9.66,0s2.43-6.08,1.59-10.1-1.59-6.42-.41-10.92S720.81,138.17,723.3,137.83Z"/><path class="cls-29" d="M728.39,150a.05.05,0,0,1,0,0,27.48,27.48,0,0,1,.27-4h0s.33-.36.6-.31a.44.44,0,0,1,.28.32,7.05,7.05,0,0,1-.51,2.78,2.16,2.16,0,0,0-.08.24c0,.16-.32,1-.49,1Zm.28-4a32.46,32.46,0,0,0-.29,4h0a2.71,2.71,0,0,0,.45-1l.08-.24a7.06,7.06,0,0,0,.51-2.74c0-.16-.13-.26-.23-.28S728.71,145.92,728.67,146Z"/><path class="cls-30" d="M739.29,191.68A26.1,26.1,0,0,0,738,189c-.6-1.06-1.36-2.31-2.33-3.85a8.14,8.14,0,0,1-1.35-4,9.15,9.15,0,0,1,.43-3.22c1-3.28.33-4.23.15-4.4.2.15,1.46,1.2,2.81,2.41a24.39,24.39,0,0,1,3.6,3.63c.85,1.55-2.91,9.07-2.77,9.29h0c.2.2,1.11,2.48,1.47,2.17l0,0,.14-.19c1.22-1.58,8.87-10.69,7.36-13.53a55.75,55.75,0,0,0-3.82-6.21,32.91,32.91,0,0,0-6.49-7c-3.57-2.68-10.71-4.83-10.71-4.83s-2.25-1.21-6.2,0a49,49,0,0,0-11,5.76c-1.58,1.31-3.86,6.87-5.43,11.31a51.19,51.19,0,0,0-1.73,5.63c-.32,1.83-1.2,7.33,2.75,8.91l8.64,2.61c-.07.75-.22,1.89-.34,2.85S713,198,713,198s8,1.67,12.77,1.33c4.92-.35,14.59-.47,14.56-1.33-.06-1.27-.09-2.25-.19-3.16A11.23,11.23,0,0,0,739.29,191.68Zm-28.78-4.6c-1.81-1.1-2.07-2.59-1.85-3.43.09-.37.53-2.14,1.44-4.74.1-.3.21-.6.31-.89s.15-.43.22-.64h0a2.58,2.58,0,0,0,.55,1.11l0,0c2.95,3.57,3.1,8.21,2.81,11.4Z"/><path class="cls-31" d="M724.16,208a33.8,33.8,0,0,1-4.88-5.09l.16-.1a33.79,33.79,0,0,0,4.84,5Z"/><path class="cls-31" d="M723.53,207.46c-.17-.06-4.08-1.43-5.12-2.94l.15-.11c1,1.46,5,2.86,5,2.87Z"/><path class="cls-19" d="M723.85,140.18s5.52.8,4.71,8.94-5.68,7.5-6,7.49-4.88.17-5.28-9.76C717.28,146.85,717.1,139.5,723.85,140.18Z"/><path class="cls-19" d="M726.3,154.47s.26,4.23,1.08,5.5-1.3,3-4.42,2.4-3.38-2.28-3.38-2.28a10.43,10.43,0,0,0,1.06-4.78C720.39,153.22,726.3,154.47,726.3,154.47Z"/><path class="cls-17" d="M723.3,142.13s2.5,3.71,3.7,5.09a8,8,0,0,1,1.33,4,6.32,6.32,0,0,0,1.17-5.33c-.84-2.87-2.83-8.45-7.89-6.74s-5.23,9.26-4.64,13C717,152.17,719.32,142.91,723.3,142.13Z"/><path class="cls-19" d="M728.33,159.83s-2.78,5.85-5.11,7.53c0,0-4.19-6.27-4-7.72C719.25,159.64,723.89,157.48,728.33,159.83Z"/><path class="cls-29" d="M723.93,193.46a1.53,1.53,0,0,1-.43,0,11.69,11.69,0,0,1-2.27-.89,6.12,6.12,0,0,1,.66,0,3.09,3.09,0,0,1,.64.09c.45.14,2.09.24,2.18.31S724.43,193.37,723.93,193.46Z"/><path class="cls-30" d="M740.24,196.52s3.24,30.39,2.66,36.49-38,3.9-38,3.9,5.56-31.58,8-38.44S740.24,196.52,740.24,196.52Z"/><path class="cls-29" d="M726.61,195.54c-.15.34-.85.11-.85.11a.36.36,0,0,1-.31.42,2.09,2.09,0,0,1-1-.06s.37.38-.37.5a12.19,12.19,0,0,1-3.72-.75,30.45,30.45,0,0,1-3.1-1.37,6.54,6.54,0,0,0-1-.27c-.3-.08-.65-.16-1-.23h0l-1.8-.39-.19,0h0l0,0,1.91-1.81s1.16.43,2.12.67a6.46,6.46,0,0,0,.74.13c.94.09,2.59-.23,3.64.16l.07,0c.46.18,1.26.52,2,.88a12.58,12.58,0,0,1,2.27,1.19c.18.27-.06.35-.06.35S726.76,195.21,726.61,195.54Z"/><polygon class="cls-32" points="717.44 192.27 716.35 194.12 716.35 194.13 715.36 193.89 715.35 193.88 713.41 193.41 712.74 193.24 714.03 189.92 717.44 192.27"/><path class="cls-29" d="M740.15,190.81a1.82,1.82,0,0,1-.14.19l0,0a5,5,0,0,1-.68.64,2.84,2.84,0,0,1-.94.49l-.06,0-.19,0h0a1.22,1.22,0,0,1-.84-.09c-.46-.26-1.76-2.55-1.15-3.11a1.11,1.11,0,0,1,.24-.16h0c.54-.26,1.11.17,1.62.17h0a1,1,0,0,0,.52-.18l.12-.09S740.91,189.6,740.15,190.81Z"/><path class="cls-29" d="M738.35,192.17l-.06,0-.19,0h0c-1.1.28-3.2,1.3-3.65,1.1s-.07-.41.45-.65c-.77.35-2.51,1.1-2.82.61-.06-.1-.08-.19.16-.35-.46.2-.55.15-.57,0-.06-.3,1-1.14,2.16-1.87s1-.6,1-.6.14-.25-.91.18-2.33,1.12-2.35.84,1.18-1.07,2.3-1.61a25,25,0,0,1,2.46-1h0S739.18,191.88,738.35,192.17Z"/><path class="cls-33" d="M723.07,161.12a4.59,4.59,0,0,1-3.49-1.61l.4-.36c.09.12,2.47,3,7,0l.46.32A8.1,8.1,0,0,1,723.07,161.12Z"/><path class="cls-19" d="M726.61,195.54c-.15.34-.85.11-.85.11a.36.36,0,0,1-.31.42,2.09,2.09,0,0,1-1-.06s.37.38-.37.5a12.19,12.19,0,0,1-3.72-.75,30.45,30.45,0,0,1-3.1-1.37,6.54,6.54,0,0,0-1-.27h0l-1-.24h0l-1.8-.39-.17-.05-.64-.2-6.8-2.05-.63-.19-.4-.12c-3.95-1.58-3.07-7.08-2.75-8.91a51.19,51.19,0,0,1,1.73-5.63,6.74,6.74,0,0,1,6.52,1.68c-.1.29-.21.59-.31.89-.91,2.6-1.35,4.37-1.44,4.74a2.65,2.65,0,0,0,.38,2,4.33,4.33,0,0,0,.39.51,4.73,4.73,0,0,0,1.08.88l3.52,2.84,3.51,2.3a1.65,1.65,0,0,0,.64.18c.94.09,2.59-.23,3.64.16l.07,0a3.09,3.09,0,0,1,.64.09c.45.14,2.09.24,2.18.31s-.28.39-.78.48a12.58,12.58,0,0,1,2.27,1.19c.18.27-.06.35-.06.35S726.76,195.21,726.61,195.54Z"/><path class="cls-19" d="M740.15,190.81a1.82,1.82,0,0,1-.14.19l0,0a5,5,0,0,1-.68.64,2.84,2.84,0,0,1-.94.49l-.06,0-.19,0h0c-1.1.28-3.2,1.3-3.65,1.1s-.07-.41.45-.65c-.77.35-2.51,1.1-2.82.61-.06-.1-.08-.19.16-.35-.46.2-.55.15-.57,0-.06-.3,1-1.14,2.16-1.87s1-.6,1-.6.14-.25-.91.18-2.33,1.12-2.35.84,1.18-1.07,2.3-1.61a25,25,0,0,1,2.46-1h0c.54-.26,1.11.17,1.62.17h0a1,1,0,0,0,.52-.18c-.14-.22,3.62-7.74,2.77-9.29a24.39,24.39,0,0,0-3.6-3.63l6-4.87a55.75,55.75,0,0,1,3.82,6.21C749,180.12,741.37,189.23,740.15,190.81Z"/><path class="cls-34" d="M340.55,281.7c6.51-4.58,14.13-36.48,14.58-55.47.23-9.74,3.11-13.79,5.65-17.37,2.42-3.42,4.52-6.37,3.3-13.15-2.33-13,3.8-18.55,3.86-18.61l-.71-.81c-.27.24-6.66,6-4.21,19.61,1.14,6.33-.74,9-3.12,12.34-2.5,3.52-5.61,7.9-5.85,18-.48,20.39-8.27,50.51-14.12,54.62Z"/><path class="cls-35" d="M326.91,272.4c-.62-1.4-1.25-2.84-2-4.36-3.72-7.84-7-9.14-12.47-11.28-1.33-.52-2.84-1.12-4.5-1.86-7.82-3.51-6.31-8.69-5-13.26.19-.64.37-1.27.53-1.9.69-2.69-.63-4-2.63-6.08a22.69,22.69,0,0,1-4.76-6.38c-1.56-3.26-.77-5,.18-5.9,2-1.88,6.55-1.54,10.87.82a15.77,15.77,0,0,1,3.61,3.11c2.75,2.88,6.18,6.47,14.84,6.51,4.94,0,7.65.71,9.05,2.28,1.59,1.79,1.29,4.46.87,8.16-.14,1.28-.3,2.74-.4,4.3a25,25,0,0,0,5,16.17c3.29,3.93,7.36,12.08,5.61,17.1a6,6,0,0,1-4.89,3.94,14.09,14.09,0,0,1-2.76.29C332.06,284.06,329.84,279,326.91,272.4Zm-20.24-49.25c-3.85-2.11-8-2.53-9.61-1-1.24,1.17-.66,3.18.05,4.65a21.6,21.6,0,0,0,4.56,6.1c2.09,2.13,3.74,3.82,2.91,7.09-.17.65-.36,1.29-.55,1.95-1.33,4.54-2.58,8.84,4.38,12,1.63.73,3.13,1.32,4.45,1.84,5.51,2.16,9.15,3.59,13.05,11.82.73,1.54,1.37,3,2,4.38,3.37,7.63,5.4,12.24,12.76,10.75a5,5,0,0,0,4.09-3.23c1.55-4.43-2.15-12.17-5.42-16.05a25.77,25.77,0,0,1-5.24-16.93c.1-1.6.27-3.06.41-4.36.39-3.42.66-5.9-.61-7.32s-3.7-1.9-8.24-1.92c-9.12-.05-12.72-3.82-15.62-6.84a14.21,14.21,0,0,0-3.35-2.91Z"/><path class="cls-36" d="M340.75,290.28l1.08-.06c-.06-1-1.41-24.81-11-31.78-10.49-7.64-13.79-15.86-15.37-21.37-1.85-6.5-11.3-8.23-11.7-8.3l-.19,1.06c.1,0,9.19,1.69,10.86,7.54,1.62,5.66,5,14.1,15.76,21.94C339.37,266,340.74,290,340.75,290.28Z"/><path class="cls-37" d="M338.93,295.63c-2.25-1.12-2.17-5.62-2-12.44.15-8.61.37-20.41-4.14-31.26-4.79-11.52-.52-14.89,3.61-18.15,4.63-3.65,9-7.1.61-22.65-3.85-7.15-5.08-12-3.85-15.21s4.61-4.44,8.21-5.76c6.22-2.27,13.26-4.85,12.35-18-.28-4,.2-6.51,1.49-7.8s3.49-1.26,5.89-1.08c3.64.27,7.75.57,11.33-4.11.38-1.17,3.8-11.6,7.9-13.38a2.9,2.9,0,0,1,2.51,0h0c2.83,1.36,4.47,3,5,4.91.95,3.39-1.53,7.21-4.41,11.64-4.51,7-9.63,14.84-4.32,24.22,7,12.4,3.31,16.74-1.82,22.75-2.94,3.44-6.28,7.35-8.5,13.71-1.8,5.12,1.26,10,4.22,14.72,3.71,5.92,7.54,12-.53,17.35-13.35,8.78-26.53,37.45-26.67,37.73l-.05.12-.1.08c-2.46,1.93-4.25,2.85-5.6,2.85A2.39,2.39,0,0,1,338.93,295.63Zm32.93-41.43c7.2-4.73,4-9.9.21-15.88-2.94-4.71-6.28-10-4.32-15.65,2.29-6.55,5.7-10.53,8.7-14,5-5.88,8.35-9.77,1.7-21.52-5.63-9.95-.09-18.48,4.36-25.34,2.73-4.21,5.09-7.84,4.27-10.76-.46-1.63-1.91-3-4.45-4.23h0a1.86,1.86,0,0,0-1.61,0c-3.8,1.65-7.29,12.69-7.33,12.8l0,.09-.05.08c-3.95,5.22-8.59,4.88-12.32,4.6-2.23-.16-4-.29-5.06.77s-1.43,3.32-1.17,7c1,14-6.81,16.8-13.06,19.09-3.5,1.28-6.53,2.39-7.57,5.12-1.11,2.92.09,7.47,3.79,14.32,8.81,16.35,3.88,20.24-.89,24-4,3.14-7.77,6.12-3.29,16.89,4.6,11.06,4.38,23,4.22,31.69-.1,6-.19,10.64,1.45,11.46,1,.48,2.8-.33,5.46-2.4C345.94,290,358.56,263,371.86,254.2Z"/><path class="cls-38" d="M317.86,170.69c6.8-2.33,5.38,10.76,8.25,20.45s31.94,4.23,19.74,28.48,15.43,8.12,7.18,29.29-.72,43.81-9.69,38-5-32.42-14.37-35.59-10.85-6.86-1.62-15.47-24.2-17.16-16-34.55S310,173.38,317.86,170.69Z"/><path class="cls-30" d="M340.21,285.57c.85-3.63,8.15-35.52,1.34-39.37-6-3.4-5.85-16.62-4.91-29.1.83-11-13.36-16.21-14-16.42l-.36,1c.14.05,14,5.11,13.25,15.33-1,12.82-1.06,26.42,5.46,30.11,5.17,2.93.41,28.56-1.86,38.19Z"/><polygon class="cls-39" points="365.84 274.21 356.14 311.01 334.47 311.01 324.77 274.21 365.84 274.21"/><path class="cls-40" d="M365.84,274.21s-21.35,4-21.35,36.8h-10l-9.7-36.8Z"/><path class="cls-41" d="M615.85,208v-1a3.57,3.57,0,0,0,3.64-3.58,3.64,3.64,0,0,0-7.27,0h-1.06a4.69,4.69,0,1,1,4.69,4.63Z"/><path class="cls-41" d="M643.11,209.45v-1.23a4.2,4.2,0,0,0,4.27-4.2,4.27,4.27,0,1,0-8.54,0h-1.23a5.51,5.51,0,1,1,5.5,5.43Z"/><path class="cls-41" d="M633.83,209.73v-1.27a4.31,4.31,0,0,0,4.39-4.32,4.39,4.39,0,0,0-8.78,0h-1.27a5.66,5.66,0,1,1,5.66,5.59Z"/><path class="cls-41" d="M652.32,208.53v-1.12a3.79,3.79,0,0,0,3.86-3.8,3.86,3.86,0,1,0-7.71,0h-1.12a5,5,0,1,1,5,4.92Z"/><path class="cls-41" d="M673.08,208v-1a3.55,3.55,0,0,0,3.61-3.56,3.62,3.62,0,1,0-7.23,0h-1.05a4.67,4.67,0,1,1,4.67,4.61Z"/><path class="cls-41" d="M694.09,209.73v-1.27a4.31,4.31,0,0,0,4.39-4.32,4.39,4.39,0,0,0-8.78,0h-1.27a5.66,5.66,0,1,1,5.66,5.59Z"/><path class="cls-41" d="M709.4,209.73v-1.27a4.31,4.31,0,0,0,4.39-4.32,4.39,4.39,0,0,0-8.78,0h-1.27a5.66,5.66,0,1,1,5.66,5.59Z"/><rect class="cls-42" x="588.4" y="199.75" width="157.18" height="2.97"/><path class="cls-41" d="M710,215.19v-5.5a5.62,5.62,0,0,0-.64-11.21v1.27a4.4,4.4,0,0,1,4.39,4.39,4.31,4.31,0,0,1-4.39,4.32h-.63v6.74L701,216.39l.19,1.26,8.19-1.26,9,1.26.17-1.26Z"/><path class="cls-25" d="M731.09,221.59c-2.19-3.84-7.83-5.47-12.79-6.14l-1.5-.17c-.73-.08-1.44-.14-2.09-.17-.31,3.16-2.42,5.6-5,5.6s-4.67-2.44-5-5.6c-.67,0-1.38.09-2.11.17l-1.5.17a25.48,25.48,0,0,0-9.39,2.87h-.25v.16a9.06,9.06,0,0,0-3.16,3.11c-4.26,7.49-5.11,26.67-4.51,63.47h1v1.88h6v-1.88h1.06V275.7h2.29v3.85h31.1V275.7h2.28v9.36h1.18v1.88h6v-1.88h.91C736.21,248.26,735.36,229.08,731.09,221.59Z"/><path class="cls-43" d="M716.8,215.28c-.07,4.93-3.21,8.89-7.07,8.89s-7-4-7.08-8.89c.73-.08,1.44-.14,2.11-.17.3,3.16,2.41,5.6,5,5.6s4.67-2.44,5-5.6C715.36,215.14,716.07,215.2,716.8,215.28Z"/><path class="cls-44" d="M664.33,250.13l3.82-21.81h-5.52l2.22-12.77h-5.13c-3,8.78-7.08,10.48-7.08,10.48s-4.11-1.7-7.07-10.48h-5.14l2.22,12.77h-5.52L641,250.13l-7.33,49.37h38Z"/><path class="cls-41" d="M694.73,215.19v-5.5a5.62,5.62,0,0,0-.64-11.21v1.27a4.4,4.4,0,0,1,4.39,4.39,4.31,4.31,0,0,1-4.39,4.32h-.63v6.74l-7.74,1.19.19,1.26,8.19-1.26,9,1.26.17-1.26Z"/><path class="cls-45" d="M719.81,231l-8.32,7.44v35.74h-34.6V238.47L668.57,231s2.36-10.75,8.32-13.6a36.48,36.48,0,0,1,9-2.5c.51,2.17,4,3.85,8.35,3.85s7.85-1.68,8.36-3.85a36.27,36.27,0,0,1,8.94,2.5C717.45,220.28,719.81,231,719.81,231Z"/><path class="cls-41" d="M673.6,212.48V208a4.64,4.64,0,0,0-.52-9.25v1.05a3.62,3.62,0,0,1,3.61,3.62,3.55,3.55,0,0,1-3.61,3.56h-.53v5.56l-6.38,1,.16,1,6.75-1,7.46,1,.14-1Z"/><path class="cls-46" d="M681.85,234.11h0c1.07-3.84,1.89-7.68,2.48-10.9h0l7.34-.57-1.18-9.23a137,137,0,0,0-14.59-.83,7.48,7.48,0,0,1-2.87,5.5,7.48,7.48,0,0,1-2.86-5.5,137,137,0,0,0-14.59.83l-1.18,9.23,7.34.57h0c.59,3.22,1.41,7.06,2.48,10.9h0s-14.45,32.12-14.45,68.36H696.3C696.3,266.23,681.85,234.11,681.85,234.11Z"/><path class="cls-41" d="M652.89,213.33v-4.84a4.94,4.94,0,0,0-.57-9.86v1.12a3.86,3.86,0,0,1,3.86,3.86,3.79,3.79,0,0,1-3.86,3.8h-.55v5.92l-6.81,1,.17,1.11,7.2-1.11,7.95,1.11.15-1.11Z"/><path class="cls-45" d="M672.78,219.86c-2.06-3.62-7.36-5.15-12-5.77l-1.4-.17c-.69-.07-1.35-.12-2-.16-.29,3-2.28,5.27-4.68,5.27s-4.39-2.29-4.67-5.27c-.63,0-1.3.09-2,.16l-1.41.17a23.76,23.76,0,0,0-8.83,2.69h-.24v.15a8.48,8.48,0,0,0-3,2.93c-4,7-4.81,25.06-4.24,59.66h1v1.76h5.59v-1.76h1v-8.8h2.15v3.62h29.24v-3.62h2.14v8.8h1.11v1.76h5.59v-1.76H677C677.59,244.92,676.79,226.89,672.78,219.86Z"/><path class="cls-43" d="M659.35,213.92c-.07,4.64-3,8.36-6.65,8.36s-6.58-3.72-6.65-8.36c.68-.07,1.35-.12,2-.16.28,3,2.26,5.27,4.67,5.27s4.39-2.29,4.68-5.27C658,213.8,658.66,213.85,659.35,213.92Z"/><path class="cls-41" d="M634.47,215.19v-5.5a5.62,5.62,0,0,0-.64-11.21v1.27a4.4,4.4,0,0,1,4.39,4.39,4.31,4.31,0,0,1-4.39,4.32h-.63v6.74l-7.74,1.19.19,1.26,8.19-1.26,9,1.26.17-1.26Z"/><path class="cls-47" d="M641.57,234.18h0c.94-3.37,1.66-6.74,2.18-9.57h0l6.44-.51-1-8.1a121.72,121.72,0,0,0-12.81-.73,6.56,6.56,0,0,1-2.52,4.83,6.56,6.56,0,0,1-2.52-4.83,121.58,121.58,0,0,0-12.81.73l-1,8.1,6.45.51h0c.52,2.83,1.24,6.2,2.18,9.57h0s-12.69,28.21-12.69,60h40.86C654.26,262.39,641.57,234.18,641.57,234.18Z"/><path class="cls-41" d="M643.74,214.76v-5.34a5.47,5.47,0,0,0-.63-10.91v1.24a4.27,4.27,0,0,1,4.27,4.27,4.2,4.2,0,0,1-4.27,4.2h-.61v6.55L635,215.93l.19,1.23,8-1.23,8.79,1.23.17-1.23Z"/><path class="cls-41" d="M616.38,212.54V208a4.65,4.65,0,0,0-.53-9.28v1.05a3.64,3.64,0,0,1,3.64,3.63,3.57,3.57,0,0,1-3.64,3.58h-.52v5.58l-6.41,1,.16,1,6.78-1,7.48,1.05.15-1.05Z"/><path class="cls-22" d="M666.17,229.07l-7.52,6.71v32.31H627.38V235.78l-7.51-6.71s2.12-9.72,7.51-12.3a33.45,33.45,0,0,1,8.09-2.26c.46,2,3.67,3.48,7.55,3.48s7.09-1.52,7.55-3.48a33.24,33.24,0,0,1,8.08,2.26C664,219.35,666.17,229.07,666.17,229.07Z"/><path class="cls-45" d="M627.87,247.63l3.81-21.79h-5.51l2.22-12.76h-5.13c-3,8.77-7.07,10.47-7.07,10.47s-4.11-1.7-7.07-10.47H604l2.22,12.76h-5.52l3.82,21.79L597.19,297h38Z"/><rect class="cls-42" x="588.4" y="190.27" width="2.89" height="126.92"/><rect class="cls-42" x="743.45" y="190.27" width="2.89" height="126.92"/><path class="cls-29" d="M435.91,213.05a10.55,10.55,0,0,0,.82,1.76c.55.82,1,2,.81,2-.76.12-1.51-1.39-2.3-1.67C432.92,214.35,435.91,213.05,435.91,213.05Z"/><path class="cls-29" d="M432.1,212.75a9.06,9.06,0,0,1-2.54,1.67c-1.91.91-4.38,1.22-4.65,1.89s.31.62.31.62,6.81.23,7-.06,2.85-1.55,3.46-3.25C436.07,212.5,432.1,212.75,432.1,212.75Z"/><path class="cls-29" d="M487.9,214a5.77,5.77,0,0,0,.3,1.83c.49.94,1.33,1.72,1.48,1.59.58-.52-.41-1.27-.12-2.06C490.41,213,487.9,214,487.9,214Z"/><path class="cls-29" d="M491,212.38s.7,1.38,3.35,2c2.05.51,3.54,1.57,3.8,2.24s-1.31.36-1.31.36-5,.14-5.14-.15-3.07-1.71-3.69-3.41C487.59,212.35,491,212.38,491,212.38Z"/><path class="cls-48" d="M441.51,298.63s-3.76,5.08-3.25,5.88,4.43.91,6.82,0,2.44-6.79,3.52-9.32c.45-1.06-.51-4.18-1.87-4.41a5.81,5.81,0,0,0-2.84.44S445.33,294.72,441.51,298.63Z"/><path class="cls-48" d="M443.86,291.18a40.18,40.18,0,0,0-.83,4.07c-.23,1.69-2.89,5.39-2.78,5.85s3.18.87,4.43-.31,2.05-4.58,2.33-6.61a16,16,0,0,1,.58-2.84S445.06,289.93,443.86,291.18Z"/><polygon class="cls-48" points="448.6 295.19 448.6 300.44 447.92 300.44 447.92 296.38 448.6 295.19"/><path class="cls-48" d="M481.9,298.78s3.6,4.93,3.08,5.73-4.43.91-6.81,0-2.45-6.79-3.53-9.32c-.45-1.06.52-4.18,1.88-4.41a6.15,6.15,0,0,1,3,.49S478.08,294.86,481.9,298.78Z"/><path class="cls-48" d="M479.47,291.27a35,35,0,0,0,.74,4c.46,1.64,2.9,5.39,2.79,5.85s-3.19.87-4.44-.31-2.21-4.56-2.33-6.61a11,11,0,0,1,.29-3.4A2.77,2.77,0,0,1,479.47,291.27Z"/><polygon class="cls-48" points="474.64 295.19 474.64 300.44 475.33 300.44 475.33 296.38 474.64 295.19"/><path class="cls-49" d="M457.92,209.47s-2.72,15-3.46,18.72-2.79,21.9-3,25-3.34,14.71-3.19,15.82-4.62,23.24-4.62,23.24a2.85,2.85,0,0,0,3.34.11c.89-.61,8.12-19,9.5-24.31s4.09-8.12,7.16-20.12c.46-1.8,4.34-21.68,5.22-22.71s2.21.58,2.72,2.86,1.62,22,2.28,24.47.15,10.94.51,15.2,1.94,23.43,1.94,23.43a2.14,2.14,0,0,0,3.13.18c.41-.38,2.94-21.49,3-26.56s.16-12.06.3-14.25c1.36-21,3.93-23.76-.56-38.88C471.19,174.66,457.92,209.47,457.92,209.47Z"/><path class="cls-29" d="M455.45,180.9l0,0c-.4.72-7.66,14.6-8.17,15.43-.68,1.09-1.69,4.85-5.25,9l-6.35,8-3.56-.62,6.83-11.82c3.21-6.38,1.76-3.21,5.21-10,1.05-2.08,6.48-15.92,7.61-17.1a29.73,29.73,0,0,1,4.1-3,44.93,44.93,0,0,1,6.7-3.59q.76-.31,1.47-.54h0c4.65-1.47,7.3,0,7.3,0a50,50,0,0,0,8.65,2.72l.31.06a1.8,1.8,0,0,1,.72.35h0c3.91,2.79,9.39,21.57,9.5,23.6.36,6.8,0,2.83.47,19.3,0,1-3.21,1.69-3.09,1.33s-2.36-18.29-2.79-20a111,111,0,0,0-4.09-12.8,21.92,21.92,0,0,0-2.52,8,35.53,35.53,0,0,0-.46,9.42c.33,3.24,1,5.48,2,6.93l-22.15,4a29.42,29.42,0,0,0,.44-3c.53-4.73,1.55-14.46,0-16.45-1.23-1.59-2.09-2.45-2.43-4.3a22.19,22.19,0,0,1-.43-4.55Z"/><path class="cls-31" d="M468.6,224.08a39.81,39.81,0,0,1-5.75-6L463,218a39.53,39.53,0,0,0,5.71,5.95Z"/><path class="cls-31" d="M467.85,223.41c-.2-.06-4.8-1.68-6-3.46l.18-.12c1.19,1.72,5.88,3.36,5.92,3.37Z"/><path class="cls-29" d="M473.51,167.43s-4.62,11-7.36,13c0,0-3.59-11.64-3.34-13.35C462.81,167.08,468.27,164.66,473.51,167.43Z"/><path class="cls-50" d="M461.94,191.55l-.07-.29a26.47,26.47,0,0,1,10.88,0l-.07.29A26,26,0,0,0,461.94,191.55Z"/><path class="cls-50" d="M464.39,192.22l-.15-.25c1.08-.65,7-.95,7.3-1v.29C469.43,191.4,465.2,191.73,464.39,192.22Z"/><path class="cls-51" d="M472.7,157.21s5.09,11,1.57,11.27-6.69-7.94-6.69-7.94Z"/><path class="cls-29" d="M471.12,161s-.4,5,.56,6.48-.82,3.53-4.5,2.83-3.46-2.77-3.46-2.77a15.24,15.24,0,0,0,.73-5.55C464.15,159.52,471.12,161,471.12,161Z"/><path class="cls-29" d="M461.41,152.4s-.66-.8-.91,0,.56,3.18.65,3.53c0,0,.41,1.34.57,1.17A43.48,43.48,0,0,0,461.41,152.4Z"/><path class="cls-29" d="M473,152.5s.67-.8.91,0-.56,3.19-.65,3.54c0,0-.4,1.34-.56,1.17A43.39,43.39,0,0,1,473,152.5Z"/><path class="cls-29" d="M468.25,144.77s6.09.94,5.2,10.53-6.27,8.84-6.63,8.83-5.39.2-5.83-11.51C461,152.62,460.79,144,468.25,144.77Z"/><path class="cls-51" d="M462.16,152.05s6.76,2,10,1.36c0,0,.59,1.29,1,1.36s.32-2.37.32-2.37.16-7.8-6.9-7.87S461,153,461,153l.1,1.46S462.12,154.83,462.16,152.05Z"/><path class="cls-22" d="M484.72,226.73c-.23,12.87,1.75,18.45,1.75,18.45s-6.55,3.29-20.68,2.58c-6.35-.32-12.13-3.57-15.32-2.35,0,0,.47-3.25,1.84-10.77,1.66-9.11,1.56-7.28,1.89-10.24.53-4.59,2.4-14,4-18.24.53-4.73,1-14.74-.52-16.73-1.23-1.59-2.27-3-2.39-4.89a27.08,27.08,0,0,1,.14-3.42h0a1.09,1.09,0,0,1,0-.18,102,102,0,0,0,1.18-10.64c1.12-1.32,3.9-2.33,5.94-3.11.8-.31,1.36-.5,1.47-.54h0c2.53.87,7.3,0,7.3,0a37.62,37.62,0,0,1,7.1,2.17,8.43,8.43,0,0,0,1,.32,7,7,0,0,1,.79.27c-1.06,4.12,1.09,12.44,1.09,12.44a20.25,20.25,0,0,0-2.52,7.27,33.22,33.22,0,0,0-.54,8.53,20.48,20.48,0,0,0,2.1,8.23S485,211.55,484.72,226.73Z"/><path class="cls-29" d="M462.55,167.19s-.82,10.06,1.69,11.4,8.25.45,10.17-11.26c0,0-2.52-.73-3.47-1A12.53,12.53,0,0,0,462.55,167.19Z"/><path class="cls-52" d="M465.26,208.11a27.24,27.24,0,0,1-7.43-.89l.48-2,.34.14s4.47,2.35,21-.89l.81,1.54A71.34,71.34,0,0,1,465.26,208.11Z"/><path class="cls-53" d="M465,163.59a4.78,4.78,0,0,0,5.4-.6,3.75,3.75,0,0,1-2.79,1.89A3.19,3.19,0,0,1,465,163.59Z"/><rect class="cls-54" x="394.4" y="231.78" width="175.02" height="75.55"/><polygon class="cls-55" points="394.39 307.33 394.39 231.78 579.49 231.78 579.49 216.67 380.54 216.67 380.54 307.33 394.39 307.33"/><rect class="cls-56" x="472.75" y="203.34" width="36.5" height="13.49"/><rect class="cls-57" x="472.75" y="177.82" width="36.5" height="18.72"/><rect class="cls-58" x="488.95" y="189.39" width="4.11" height="18.72"/><path class="cls-41" d="M791.44,211.74v-1.22a4.12,4.12,0,0,0,4.2-4.14,4.2,4.2,0,1,0-8.4,0H786a5.42,5.42,0,1,1,5.42,5.36Z"/><path class="cls-41" d="M807.32,210.58v-1.07a3.62,3.62,0,0,0,3.69-3.63,3.7,3.7,0,1,0-7.39,0h-1.07a4.77,4.77,0,1,1,4.77,4.7Z"/><path class="cls-41" d="M824.26,210.06v-1a3.4,3.4,0,0,0,3.46-3.41,3.47,3.47,0,0,0-6.93,0h-1a4.48,4.48,0,1,1,4.48,4.42Z"/><path class="cls-41" d="M837.67,211.74v-1.22a4.13,4.13,0,0,0,4.2-4.14,4.21,4.21,0,0,0-8.41,0h-1.22a5.43,5.43,0,1,1,5.43,5.36Z"/><path class="cls-41" d="M845.38,211.74v-1.22a4.13,4.13,0,0,0,4.21-4.14,4.21,4.21,0,0,0-8.41,0H840a5.43,5.43,0,1,1,5.42,5.36Z"/><rect class="cls-42" x="761.99" y="202.18" width="118.04" height="2.85"/><path class="cls-41" d="M846,217V211.7a5.39,5.39,0,0,0-.62-10.74v1.22a4.21,4.21,0,0,1,4.21,4.2,4.13,4.13,0,0,1-4.21,4.14h-.6V217l-7.41,1.14.18,1.21,7.84-1.21,8.66,1.21.17-1.21Z"/><path class="cls-22" d="M866.16,223.1c-2.1-3.68-7.5-5.24-12.26-5.88l-1.42-.17c-.7-.07-1.38-.13-2-.16-.3,3-2.32,5.37-4.77,5.37s-4.47-2.34-4.76-5.37c-.64,0-1.32.09-2,.16l-1.43.17a24.42,24.42,0,0,0-9,2.74h-.25v.15a8.82,8.82,0,0,0-3,3c-4.08,7.17-4.9,25.54-4.32,60.79h1v1.81h5.69v-1.81h1v-9h2.19v3.69h29.79v-3.69h2.19v9h1.13v1.81h5.7v-1.81h.87C871.07,248.64,870.25,230.27,866.16,223.1Z"/><path class="cls-43" d="M852.48,217.05c-.07,4.72-3.09,8.51-6.78,8.51s-6.71-3.79-6.78-8.51c.7-.07,1.38-.13,2-.16.29,3,2.31,5.37,4.76,5.37s4.47-2.34,4.77-5.37C851.1,216.92,851.78,217,852.48,217.05Z"/><path class="cls-41" d="M838.28,217V211.7a5.39,5.39,0,0,0-.61-10.74v1.22a4.21,4.21,0,0,1,4.2,4.2,4.13,4.13,0,0,1-4.2,4.14h-.61V217l-7.41,1.14.18,1.21,7.85-1.21,8.65,1.21.17-1.21Z"/><path class="cls-59" d="M862.3,232.14l-8,7.12V273.5H821.2V239.26l-8-7.12s2.25-10.3,8-13a34.88,34.88,0,0,1,8.56-2.39c.49,2.07,3.89,3.69,8,3.69s7.52-1.62,8-3.69a34.88,34.88,0,0,1,8.56,2.39C860.05,221.84,862.3,232.14,862.3,232.14Z"/><path class="cls-41" d="M824.76,214.37V210a4.44,4.44,0,0,0-.5-8.86v1a3.46,3.46,0,0,1,3.46,3.46,3.4,3.4,0,0,1-3.46,3.41h-.5v5.33l-6.12.94.16,1,6.46-1,7.14,1,.14-1Z"/><path class="cls-22" d="M832.66,235.09h0c1-3.67,1.81-7.35,2.38-10.44h0l7-.55-1.13-8.84a129.54,129.54,0,0,0-14-.79,7.12,7.12,0,0,1-2.74,5.26,7.11,7.11,0,0,1-2.75-5.26,129.37,129.37,0,0,0-14,.79l-1.14,8.84,7,.55h0c.57,3.09,1.35,6.77,2.38,10.44h0s-13.85,30.77-13.85,65.48H846.5C846.5,265.86,832.66,235.09,832.66,235.09Z"/><path class="cls-41" d="M807.86,215.18v-4.63a4.73,4.73,0,0,0-.54-9.44v1.07a3.7,3.7,0,0,1,3.69,3.7,3.62,3.62,0,0,1-3.69,3.63h-.53v5.68l-6.52,1,.16,1.07,6.9-1.07,7.61,1.07.15-1.07Z"/><path class="cls-45" d="M826.91,221.44c-2-3.46-7-4.93-11.52-5.53l-1.34-.16c-.66-.07-1.3-.12-1.89-.15-.28,2.85-2.18,5.05-4.48,5.05s-4.2-2.2-4.48-5.05c-.6,0-1.24.08-1.89.15l-1.35.16a23,23,0,0,0-8.46,2.58h-.23v.14a8.13,8.13,0,0,0-2.84,2.81c-3.83,6.74-4.6,24-4.06,57.14h.94v1.7h5.35v-1.7h1v-8.42h2.06v3.47h28v-3.47h2.06v8.42h1.06v1.7h5.35v-1.7H831C831.52,245.45,830.76,228.18,826.91,221.44Z"/><path class="cls-59" d="M814.05,215.75c-.07,4.44-2.9,8-6.37,8s-6.31-3.57-6.37-8c.65-.07,1.29-.12,1.89-.15.28,2.85,2.17,5.05,4.48,5.05s4.2-2.2,4.48-5.05C812.75,215.63,813.39,215.68,814.05,215.75Z"/><path class="cls-41" d="M792.06,217V211.7a5.39,5.39,0,0,0-.62-10.74v1.22a4.2,4.2,0,0,1,4.2,4.2,4.12,4.12,0,0,1-4.2,4.14h-.6V217l-7.42,1.15.19,1.2,7.84-1.21,8.66,1.22.17-1.21Z"/><path class="cls-59" d="M798.85,235.16h0c.9-3.23,1.59-6.46,2.09-9.17h0l6.18-.49-1-7.76a115.36,115.36,0,0,0-12.27-.69,2.94,2.94,0,1,1-4.82,0,115.53,115.53,0,0,0-12.28.69l-1,7.76,6.18.49h0c.5,2.71,1.18,5.94,2.09,9.17h0s-12.15,27-12.15,57.5H811C811,262.18,798.85,235.16,798.85,235.16Z"/><rect class="cls-42" x="760.6" y="190.9" width="2.77" height="133.25"/><rect class="cls-42" x="878" y="190.9" width="2.77" height="133.25"/><g class="cls-60"><polygon class="cls-61" points="898.86 340.8 898.86 343.36 878 324.16 880.77 324.16 898.86 340.8"/></g><g class="cls-62"><polygon class="cls-63" points="790.43 349.05 787.66 349.05 760.61 324.16 763.38 324.16 790.43 349.05"/></g><g class="cls-64"><polygon class="cls-65" points="625.93 349.05 623.03 349.05 588.4 317.18 591.29 317.18 625.93 349.05"/></g><g class="cls-66"><polygon class="cls-67" points="780.99 349.05 778.08 349.05 743.45 317.18 746.34 317.18 780.99 349.05"/></g><path class="cls-68" d="M629.45,318.9a23.71,23.71,0,0,0,2.07,3.25c.81.93,3.94,2.58,4,5.32,0,3-5.26,2.15-7.33,2s-2.22-1.7-3.09-3.39-1.75-1.4-1.91-2.76a16.18,16.18,0,0,1,.84-4.47Z"/><path class="cls-68" d="M598,318.63s-2.55,2.84-5.13,3.43-4.39,1.36-4.41,3,7.44,2.71,10.39,1.06c4.42-2.45,4.87-1.71,5.36-2.94s-.59-4.51-.56-4.9S598,318.63,598,318.63Z"/><path class="cls-69" d="M598.29,317.27a11.7,11.7,0,0,0-.29,1.36s5.82.71,5.65-.36c-.14-.86-.34-1.8-.34-1.8Z"/><path class="cls-69" d="M624.05,318a10.7,10.7,0,0,0-.19,1.3s5.85,1.07,5.82,0a5,5,0,0,0-.53-1.81Z"/><path class="cls-70" d="M603.54,237.55s-2.1,20.39-3.2,27.37c-1.27,8.17-1.71,14.91-2.06,19.14-.45,5.31-.54,31.46-.85,33s7,.43,7,.43,3.57-34.16,4.91-39.82c1.24-5.27,5.85-28,7-26.52s2.54,26.48,3.38,30.63,3.4,36.7,3.4,36.7,5.78,1.15,7.32-.15c0,0,.7-28,.17-35.83-.21-3,3.48-35.61-1.25-48.75C626.81,226.81,603.54,237.55,603.54,237.55Z"/><path class="cls-71" d="M622.39,233s-1.4-2.12-2.89-2.4S640,219.76,639.89,216c0-3.07-7.9-8.17-7.9-8.17h0v0c-.16.6-2.43,9-2.51,13.06-.08,4.2.25,18.63.25,18.63l-5.62,1.51-18,.16-4.09-1.67s.44-4.64.61-7.9c.1-2.07.51-5.78.4-9.39a33,33,0,0,0-.31-5.45c0-7.24-.48-14.41-.48-14.41-.24-3.29-.41-6.35-.51-9.22.79-.42,1.75-.91,2.51-1.27,2.36-1.12,5.64-2.63,7.75-3.6,1.23-.57,2.44-1,2.44-1s8.43-.81,9.11-.77a22,22,0,0,1,2.65.91,95.87,95.87,0,0,1,9.67,4.1c1.34,1,10.15,24.26,10.28,25.86C646.41,220.31,622.39,233,622.39,233Z"/><path class="cls-72" d="M602.6,238a149.26,149.26,0,0,0,23.13,0v3.54s-16.09,1.54-23.67-.67Z"/><path class="cls-73" d="M601.58,193.12c.09,2.91.23,6,.48,9.38,0,0,.23,8.16.7,15.91a15.34,15.34,0,0,1,.15,3.4c-.11,1.51-.28,3.17-.48,4.89v.07l-.15,1.24h0c-1,8.63-2.83,18.53-3.75,21.53-.2.62.48,1.2,1,1.64l3.37,2.13s1.39-12.8,1.85-17.14,1.85-9.82,2.46-15.3h0c.78-6.95,1.85-13.76,2.43-17.8,1.51-10.54,3.51-15.25,3.51-15.25C612.15,188.12,601.58,193.12,601.58,193.12Z"/><path class="cls-73" d="M637.37,214.91c1.46,3.2-13.42,8.92-13.08,9.71.8,1.9,4.08,5.76,4.08,5.76s19.6-9.69,19.38-11.89c-.16-1.6-9.34-25.78-10.68-26.75-.78-.56-6.54-2.6-9.36-3.71L625,187c-.6.67-4.73,5.22-6.19,22.44-.24,2.9.53,9,1.05,14.06.55,5.35,1.17,9.53,1.62,14,.88,8.82,1.5,15.83,1.5,15.83l8.77-3.91c1.42-.71,3.88-2.56,3.34-4-2-5.69-5.07-16.45-5.07-21.44,0,0,1.43-13.75,2.21-16.43A34.74,34.74,0,0,1,637.37,214.91Z"/><path class="cls-27" d="M622.8,187.45A59.26,59.26,0,0,1,624,178.7c.29-1.56-9.1,4.13-9.1,4.13s0,.54,0,1.29c0,.39,0,.83,0,1.28v.46c0,.42,0,.81-.07,1.15a5.27,5.27,0,0,1-.31,1.13C614.17,189,619.64,189.71,622.8,187.45Z"/><path class="cls-70" d="M616.94,190.48l-1.56,2.09a1.9,1.9,0,0,0,2.54.32Z"/><path class="cls-70" d="M615.8,192.66s-5.9,22.73-4.69,40.43l2,3.5,1.86-3.67s.51-31.65,2.13-40.32Z"/><path class="cls-27" d="M615.27,188.53l1.67,1.95s2.68-.52,3.46-1.92S615.27,188.53,615.27,188.53Z"/><path class="cls-74" d="M614.89,186.82a8.12,8.12,0,0,0,2.05,3.66l-2,2.72-1.1-5.64Z"/><path class="cls-74" d="M623,185.17s-3.33,4.24-6,5.31l1.26,3.11,5.75-7Z"/><path class="cls-29" d="M567.25,216.62s-6.18.72-6.53,1.11-.27.74.32.69,6-.52,6-.52-7.1,2.09-7.46,2.35-.09.81.23.81,7.49-1.66,7.49-1.66-6.61,2-6.85,2.28a.52.52,0,0,0,.57.75l6.77-1.59s-4.7,1.74-4.74,2.13.06.81,1.26.32,4.16-1.33,4.16-1.33Z"/><path class="cls-29" d="M574.57,216.91s-2.06.11-2.69-.94a7.51,7.51,0,0,0-2.25-1.93c-.54-.33-1.85-1.94-2.23-1.3s2.05,2.75,2.47,3.28-2.54.34-3.08.73-.25,5.3,1.79,5.2,4-1.55,4.42-1.5a11.48,11.48,0,0,0,1.49,0Z"/><path class="cls-73" d="M573.71,221.77s15.17-2.13,18.54-3c1.56-.38,3.61-2.53,5.55-5.06.65-.83,1.28-1.7,1.88-2.57h0c2.39-3.45,4.26-6.76,4.26-6.76s7.07-8.28,1.4-12a9.33,9.33,0,0,0-3.76.67c-1.38.74-4.3,6.84-4.8,7.93s-5.86,11.11-6.22,11.34-5.72,1.39-8.11,1.88l-10,2.08Z"/><rect class="cls-75" x="611.69" y="238.2" width="5.77" height="4.37" transform="translate(1229.14 480.77) rotate(180)"/><path class="cls-76" d="M621.32,233.29a3.23,3.23,0,0,0,1-.2s.53-.34.93-.56l.31-.16a6.26,6.26,0,0,0,1.73-.82c.67-.52,2.87-2.58,2.87-2.58l-1.42-2.18-.66-2.17s-5.13.51-5.81.92l-.19.12a7.41,7.41,0,0,0-1.05,1.17c-.09.09-1,1-.94,1.44a1.3,1.3,0,0,0,.67,1,3.07,3.07,0,0,0,.72,1.52,1.91,1.91,0,0,0,1,1.36S620.74,233.17,621.32,233.29Z"/><path class="cls-73" d="M628.37,230.38a17.87,17.87,0,0,1-4.39-5.76l8.75-4.8,3.25,6.62Z"/><path class="cls-29" d="M609.94,168.43s-2.07,3.82-1,4.42c.84.49-1,4.24-1.23,4.86s1.53,1.06,1.9,1.45,1.49,5.25,2.95,5.4,8-2.14,9.82-4,3.26-10.26,2.06-13.81S613.58,161.74,609.94,168.43Z"/><path class="cls-77" d="M609.52,169.26a5.89,5.89,0,0,1,1.72-7.2c3.83-3.07,10.88,2.31,11.68,2.52s5.31.51,3,8.43c-2,6.81-2.23,7.09-2.23,7.09s-1.46-3.94-2.29-4.54c-1.29-.94-4.12-.71-4.12-.71s1.35-3.58-.76-4.09S611.66,168.46,609.52,169.26Z"/><path class="cls-29" d="M619.55,172.8c.19-.49.79-2.61,2.6-1.37s-1.12,5.23-1.44,5.28S618,176.93,619.55,172.8Z"/><path class="cls-53" d="M614.94,185.4v.46c5.37-1.8,6.41-4.51,6.41-4.51a37.27,37.27,0,0,1-6.42,2.77C614.94,184.51,615,185,614.94,185.4Z"/><path class="cls-78" d="M523.31,314.52s-2.41,6.2-3.73,7.28-4.33,3-3.58,4,6.07,1.08,7.34.51,1.48-2.62,3.18-3.28.41-4.16.23-5.42c-.23-1.64-.67-1.87-.67-2.72S523.31,314.52,523.31,314.52Z"/><path class="cls-78" d="M546.37,312.91s.6,2.49.88,3.15a45,45,0,0,0,2.64,4.47c.38.42,5.79,2.78,5.09,3.53s-1.61,1.65-5.32.8-4.86-3.72-7.78-4-2-3.48-.91-4.89a25.07,25.07,0,0,0,2.31-3.91Z"/><path class="cls-79" d="M560.46,276.44c-.49,3.32-10.41,21.59-13.63,37.47a1.79,1.79,0,0,1-.09.35,18.58,18.58,0,0,1-4.55-1.14c.08-2.34,2.25-21.13,3.37-24.64,1.18-3.67,4.73-11.44,4.59-13.93s-1.74-4.16-2.82-5.39c-.63-.7-4.51-6.37-7.7-11.23h0c-1.83-2.78-3.43-5.3-4-6.46a2,2,0,0,1-.27-.64c0-.89-14.06-25.2,11-21.22,0,0,.63,4.1.77,4.88.09.5,2.19,5.46,4,10.19,1,2.58,1.87,5.09,2.3,6.76.5,2,1.37,5,2.27,7.9h0c1.24,4.06,2.51,8,2.88,8.75C559.12,269.44,561,273.12,560.46,276.44Z"/><path class="cls-79" d="M535.89,250.17s-1.92,8.27-3,11.59-3.2,10.57-3.3,12.47-.09,6.08-.24,7.77,0,8.5-.41,12-2.23,20.22-2.37,21.28c0,0,0,.05,0,.08a15.83,15.83,0,0,1-4.09.13s0,0,0-.06c-1-4.61-2-21.72-2.11-24.48s.71-9,.42-10.94-2.89-21.47-2-29.38,3.56-21,3.56-21S550.36,219.52,535.89,250.17Z"/><path class="cls-29" d="M548.48,237.07c-.07-.71-.8-5.65-1.44-8.83s-1.16-6.1-1.52-7.37c0-.09-.06-.23-.1-.43-.24-.94-.73-3-1.27-5,0-.14-.07-.28-.11-.41v-.73c-.38-1.36.21-2.07.33-3.11a3.28,3.28,0,0,0-.06-1.06v0a23.71,23.71,0,0,1-.72-4.27c0-2.9-1.34-16.85-1.34-16.85s4.46,2.09,5.1,5.19a100.39,100.39,0,0,1,.88,11.38c.07,1.41,2.28,12,2.5,14.41a30.26,30.26,0,0,0,1,6.07c.49,1.63.07,9.88.21,11.15S548.55,237.78,548.48,237.07Z"/><path class="cls-80" d="M545.42,220.44c-.24-.94-.73-3-1.27-5,0-1.6.19-3.14.22-4.25a5.5,5.5,0,0,0-.06-1.06v0a31.87,31.87,0,0,1-.24-4.08c.19-.22,1.35-.11,1.35-.11S547.82,215.31,545.42,220.44Z"/><path class="cls-81" d="M539.38,176.44s3.48-10.23-3.17-13.4-12.31,1.41-13.37,3.89-.79,7,.12,10.14.78,7.93-1.2,9.53-3.72,5.08-5.33,8,14.24-7,14.24-7Z"/><path class="cls-29" d="M533.44,164.79s6.92,2,5.94,11.65-5.51,9.11-5.94,9.18-5.79.42-7.48-11.23S533.44,164.79,533.44,164.79Z"/><path class="cls-82" d="M536.72,187.21s6.72,1.73,7.36,2.86.7,6.07,1.13,7.7,1.34,5.07.7,6.49-1.34,2.76-1.13,3.75a15,15,0,0,1,.29,5.86,26.55,26.55,0,0,0-.15,9.53c.64,3,1.28,5.72,1.35,6.22s-24,0-24,0,2-6.78,2.66-8.34-.64-7.55-1.27-9-3.39-7.13-3.39-7.76c0,0-2.92-10-2.66-10.32s.1-1.81,2.87-3.54c2.13-1.32,8.43-2.89,10.19-3.17S536.72,187.21,536.72,187.21Z"/><path class="cls-29" d="M536.74,183.85a18,18,0,0,0,.32,5.4c.61,2-6.93,1.88-7.54.38s.3-3.6-.53-6.77S536.74,183.85,536.74,183.85Z"/><path class="cls-82" d="M543.58,195.66a17.21,17.21,0,0,1,2.65,5.17,7.59,7.59,0,0,1-1.45,6.78s-6.41-.33-8.67-.28-9.39.83-13.36,3c0,0-3-5.44-2.9-6.2s1.92-5.85,4.81-6.4c5.38-1,9,5.69,10.65,5.5S538.17,196.39,543.58,195.66Z"/><path class="cls-81" d="M531.66,169.07s3.76,6,7.72,7.37c0,0,2.16-10-6.77-12.14s-7.53,10.14-6.86,13.4A26.54,26.54,0,0,1,531.66,169.07Z"/><path class="cls-53" d="M530,184.26a4.69,4.69,0,0,0,6.24.3s-.28,1.82-2.8,2.05S530,184.26,530,184.26Z"/><path class="cls-70" d="M539.63,257.94h0c-1.83-2.78-3.43-5.3-4-6.46h0s2.46-6.24,2.73-8.68S539.63,257.94,539.63,257.94Z"/><path class="cls-29" d="M519.4,191.39a18.57,18.57,0,0,0-4.42,5.46c-1.91,3.53-6.28,9.74-7.13,11.79s-3.67,5.5-4.08,8.16.66,3.56,2.36,4.69,13.72,4.83,13.72,4.83,2.13-3.41,1-3.64c-2-.42-6.65-3.33-7.44-3.8s-3-2.32-1.93-3.17,8.25-11.38,9.74-13.42,4.16-7.07,3.17-9.61S521.15,190.43,519.4,191.39Z"/><path class="cls-29" d="M528.3,188s3.12,5.38,6.56,6.24,3.35-4.38,2.34-6.94c0,0-.11-.27-3.49-.32A11.43,11.43,0,0,0,528.3,188Z"/><rect class="cls-78" x="522.31" y="231.32" width="0.59" height="0.15" transform="translate(229.85 722.26) rotate(-83.07)"/><rect class="cls-78" x="522.94" y="314.91" width="0.15" height="0.59" transform="translate(-30.63 57.56) rotate(-6.12)"/><path class="cls-29" d="M548.9,217.29s0-1.08,2,0S548.9,217.29,548.9,217.29Z"/><path class="cls-83" d="M526.61,168.17s2-3.84,5.33-4a6.61,6.61,0,0,1,5.33,2.73,5.69,5.69,0,0,0-5.33-3.26C527.92,163.63,526.61,168.17,526.61,168.17Z"/><path class="cls-22" d="M522,221.5l29.15-4.18s6.39,63.65,6,80.06l-8.23,1.17s-7-65-10-65.11-3,66.95-3,66.95l-9,1S524.69,260.27,522,221.5Z"/><path class="cls-29" d="M518.46,222a2,2,0,0,0,1.09.22c.9-.16,1.75-1.24,2.85-.56s-.22,4.53-.86,5.06-2.4,0-4.5-1.62S518.46,222,518.46,222Z"/><path class="cls-29" d="M522,221.5a38.85,38.85,0,0,1,4,.85c1.85.5,3.9,1.41,3.94,1.79s-1.93-.23-3.8-.61c-1.72-.35-1.44,0-1.44,0s-.07-.1,1.72.63,3.83,1.76,3.83,2.22c0,.23-.13.31-.88.14.41.19.41.32.34.49-.34.87-3.37.14-4.57-.14.92.22,1.57.48,1,.89s-4.9-.75-6.46-1S522,221.5,522,221.5Z"/><path class="cls-29" d="M548.9,217.29s2.79-.65,3.69.7a5.23,5.23,0,0,1,.71,3.87c-.23.8-.95,2.86-1.9,2.44C548.37,222.94,548.9,217.29,548.9,217.29Z"/><path class="cls-29" d="M551.66,217.32s-.39-1.88-1.14-1.56-.08,1.56-.08,1.56Z"/><path class="cls-84" d="M767.05,190.38s6.27,4.56,8.44,15.74c0,0-6.11-12-8.1-14.08A1.89,1.89,0,0,1,767.05,190.38Z"/><path class="cls-22" d="M775.06,225.08l.25.3h0l1.22,1.47c3.05,3.65,9.76,11.43,12.32,12.84,1.81,1,2.09-2.13.29-4.06-1.65-1.75-8-13.07-10.45-15.5-1.19-1.19-2.79-12.37-2.79-12.37s-1.49,9.33-1.32,10.4S774,223.77,775.06,225.08Z"/><path class="cls-84" d="M776.94,209s-.08,25.94,0,31.92-7.58-14.37-7.58-14.37S773.45,213.84,776.94,209Z"/><path class="cls-85" d="M742.85,271.29s18.57-2,29.91,4.49-10.6-19.29-10.6-19.29S743.11,264,742.85,271.29Z"/><path class="cls-78" d="M782.75,327.81s1,2.61,2.35,3.23,4.45,3.49,5.7,3.7,4.22.44,4.38,2-.15,3-6.15,2.17a44.33,44.33,0,0,1-11.67-3.6s-1.21-6.08.74-9.08S782.75,327.81,782.75,327.81Z"/><path class="cls-29" d="M782.75,327.81l-1.12-3.75h-4.29v4S783.83,330.49,782.75,327.81Z"/><path class="cls-78" d="M745.13,320.75s.42,2.71,1.09,3.53,1.63,4.72,3,6,4.68,4.05,3.66,5.45-8.14-.4-10.68-4.74-3.42-4.83-3.1-6,2.74-5.71,2.68-6.26S745.13,320.75,745.13,320.75Z"/><path class="cls-29" d="M746.17,318.8a7.18,7.18,0,0,0-1,1.95c-.18.72-1.75,1-3-.56a2.58,2.58,0,0,1-.34-1.5,13.81,13.81,0,0,1,1.12-3.13Z"/><path class="cls-29" d="M789.14,235.63s1.05,1.39,1.6,1.56,1.18,1.14,1.63,1.39,2,.49,2.33.91a13.73,13.73,0,0,0,1,1.9c.34.31,1.11.87.82,1.15s-1.13,0-1.13,0a.56.56,0,0,1,.12.63c-.35.63-.8.63-.8.63a1.06,1.06,0,0,1-.13.73,1.26,1.26,0,0,1-.9.49,1.13,1.13,0,0,1-.47.64,1.06,1.06,0,0,1-1,.08s-.52.57-.92.42a3.48,3.48,0,0,1-.88-.68,13.15,13.15,0,0,1-2.6-4.94,10,10,0,0,0-1.8-3.76Z"/><path class="cls-83" d="M788.44,251.77c-.07-.16-1.76-3.86-.52-6.74a4.86,4.86,0,0,1,3.13-2.71,6.68,6.68,0,0,1,5.67.34,9.27,9.27,0,0,1,3.51,4.22,13.88,13.88,0,0,1,.92,2.71l.06.31L788.54,252Zm8-8.57a6.07,6.07,0,0,0-5.16-.29,4.3,4.3,0,0,0-2.76,2.37c-1,2.24.09,5.19.42,6l11.55-1.9C800.18,248.31,799.08,244.74,796.41,243.2Z"/><polygon class="cls-84" points="821.93 285.3 780.21 284.52 774.45 253.41 816.9 246.15 821.93 285.3"/><polygon class="cls-85" points="831.49 282.58 816.9 246.15 821.93 285.3 826.18 282.81 831.49 282.58"/><path class="cls-83" d="M786.57,251.38c0-.18-1.16-4.33.63-7.11a5.16,5.16,0,0,1,3.73-2.29,7.07,7.07,0,0,1,5.86,1.34,9.82,9.82,0,0,1,2.92,5,14.29,14.29,0,0,1,.49,3v.34l-13.57,0Zm9.8-7.55a6.48,6.48,0,0,0-5.34-1.2,4.57,4.57,0,0,0-3.28,2c-1.39,2.18-.8,5.44-.6,6.34l12.37,0C799.41,249.81,798.88,245.9,796.37,243.83Z"/><polygon class="cls-86" points="813.07 289.32 774.15 285.75 771.71 250.67 815.96 250.32 813.07 289.32"/><polygon class="cls-87" points="820.75 288.72 815.96 250.32 813.07 289.32 817.54 287.69 820.75 288.72"/><path class="cls-88" d="M795.28,242.24s-1.58-2.11-2.49-2.15-.37.75-.37.75-.51-.79-1.2-.45,0,1.24,0,1.24a.75.75,0,0,0-1.09.08c-.55.58.18,1.19.18,1.19s-1.17-.27-1,.7a4.13,4.13,0,0,0,1.93,2.59.87.87,0,0,0,1-.39,1.13,1.13,0,0,0,1.55-.75s1.31-.17,1-1.22A.93.93,0,0,0,795.28,242.24Z"/><path class="cls-73" d="M763.91,257.17c.23,1.08,1.66,5.6,3.26,10.63h0c.46,1.44.94,2.93,1.4,4.38,1,3.17,2,6.21,2.63,8.4.36,1.19.63,2.13.77,2.7.93,3.78-.11,9.7-.45,14.66s5,29.32,5,29.32c1.26.59,6.84-1,6.84-1-.92-1.76-2.16-32.1-1.66-34a29.52,29.52,0,0,0,.34-9.4,7.59,7.59,0,0,1-.17-1.69c0-2.64.51-7,.84-11.83.42-6-1.93-21.07-2.27-22.41,0-.13-.08-.3-.14-.51-.62-2.11-2.61-8.1-2.61-8.1-4-1.2-7.08-1.41-9.35-.95a6.93,6.93,0,0,0-5.48,4.7C760.89,247.54,763.62,255.77,763.91,257.17Z"/><path class="cls-73" d="M741,318l5.52,2.34c.69-3.35,16.09-26.68,17.1-29.28a37.81,37.81,0,0,0,2.1-9.49c0-.33,0-.89.07-1.61.18-2.8.69-8.08,1.42-12.19.14-.76.28-1.49.44-2.15.81-3.55.95-15.65,1-22.78,0-3.16,0-5.35,0-5.35l-.2-.15c-1.53-1.16-11.35-8.22-14.77-1.62a19.65,19.65,0,0,0-1.86,5.57c-1.1,6-1.91,13.64-1,19.78.76,5.26,2.41,11.2,3.52,16.61.61,3,1.15,6.14.47,7.33-1.93,3.36-3.82,6.2-7.73,18C745.68,307,741,318,741,318Z"/><path class="cls-29" d="M763.06,165.13s7.6.26,7.91,11.27-2.09,13.36-8.87,11.06-7.53-11.18-7.69-13S757.27,164.94,763.06,165.13Z"/><path class="cls-78" d="M755.14,225.39c-.89,3.59-5.45,21.48-5.34,22.54.05.4,5,1.24,9.64,2,7.64,1.35,17.5-1.51,20.87-3.55h0c-.07-.26-4.59-17.12-4.92-19.06s.41-9.3.58-11.37a15.55,15.55,0,0,1,.77-3h0c.65-2,1.46-4.25,1.42-5.56a7.72,7.72,0,0,0-.68-2.85h0a24.27,24.27,0,0,0-1.88-3.34c-.45-.7-.93-1.41-1.4-2.1a40.88,40.88,0,0,0-3.83-5,12.47,12.47,0,0,0-1.54-1.23h0a7.85,7.85,0,0,0-1.43-.78h0l-.16-.06-6.66-1.06-1.71.59c-1.23.42-2.9,1-4.23,1.32h0L754,193a4.4,4.4,0,0,0-2.42,1.53c-1.14,1.29-2.27,3.65-2.31,8,0,3.8,4.33,12.86,5,15.66S756,221.81,755.14,225.39Z"/><path class="cls-78" d="M768.82,192.82l3.86,6.08,3.56,5.62s-.24-.88-.64-3.35c-.08-.46-.16-1-.25-1.58a4.82,4.82,0,0,0-.11-.52h0c-1.53-3.51-6.24-6.16-6.41-6.25Z"/><path class="cls-29" d="M757.74,182.5c.67,1.27,1.38,9.14,1.38,9.14s9.48,3.59,8.51,1.56a7.76,7.76,0,0,1-.58-3.14,16.52,16.52,0,0,1,.1-1.91c0-.21.05-.33.05-.33S757.07,181.23,757.74,182.5Z"/><path class="cls-53" d="M761.75,187.33c1.45,2.15,5.3,2.73,5.3,2.73h0a16.52,16.52,0,0,1,.1-1.91A10.83,10.83,0,0,1,761.75,187.33Z"/><path class="cls-22" d="M775.22,199h0a7.83,7.83,0,0,1,.38,2.14l-1.4-2.1s-2.49-3.58-3.35-4.51a13.89,13.89,0,0,0-2-1.74S773.73,195.18,775.22,199Z"/><path class="cls-29" d="M767.23,192s4.47,6.87,3,7.47-9.7-.8-13.18-7.33C757,192.12,762.22,189.46,767.23,192Z"/><path class="cls-22" d="M790.17,236.8s-2.28.76-3,2.06a21,21,0,0,0-1.93-2.25l3.46-1.49Z"/><path class="cls-89" d="M776,216.09a1.47,1.47,0,0,0,0-.16v0A.31.31,0,0,0,776,216.09Z"/><path class="cls-78" d="M756.67,204s-5.69-2-7.46-2.16c0,0,.91-9.92,6.79-8.91S756.67,204,756.67,204Z"/><path class="cls-78" d="M767.08,190.92s-.76,1-8.16-1.25l-.13,1.78a19.82,19.82,0,0,0-3.64,1.24s13.34,12.57,15.35,7.44-3.11-8.09-3.11-8.09Z"/><path class="cls-90" d="M765.11,172.08s-1.47,5.4-10.19,7c0,0-4.63-9,5-11.42s10.5,2.24,10.79,5.87A10.55,10.55,0,0,0,765.11,172.08Z"/><path class="cls-91" d="M770.52,172s-1.47-10.36-12.09-6a8.53,8.53,0,0,0-4.77,4.82c-.84,2.19-1.1,5.21,1.36,8.89C755,179.64,764.28,177.14,770.52,172Z"/><path class="cls-91" d="M757.64,178.8s-.76,4.23-1.07,3.75c-.86-1.35-2.72-5.31-2.72-5.31Z"/><path class="cls-92" d="M766.34,175.12s-2.82-.9-3.94.54.17,4.36,2.28,4.12,2.2-2.93,2.15-3.49A2.87,2.87,0,0,0,766.34,175.12Z"/><path class="cls-92" d="M768.39,175.07s2.3-1.22,3.51-.11.56,4.2-1.3,4.3-2.37-2.53-2.42-3.09A2.44,2.44,0,0,1,768.39,175.07Z"/><path class="cls-92" d="M766.39,175.12a2.94,2.94,0,0,0,2.29-.16c.63-.28-.43,1.64-.43,1.64s-.79-1.52-1.41,0C766.84,176.57,765.27,175.2,766.39,175.12Z"/><polygon class="cls-92" points="763.57 176.6 757.5 177.73 757.61 178.52 763.57 177.56 763.57 176.6"/><path class="cls-29" d="M760.71,178c-.51-1.13-1.32-2.07-2.6-1.36s-.45,3.45,1.16,3.95S761.17,179,760.71,178Z"/><path class="cls-22" d="M734.3,263.9c0,6.51,16.22,15.84,16.22,15.84-.77-8.69,20.29-65.19,18.3-72.86s-10-15.43-10-15.43c-9,2.53-9.17,4.36-9.58,10.37-.16,2.31.48,5.38,1.31,8.7.34,1.34.71,2.72,1.07,4.1,1.06,4.1,2,8.22,1.84,11.45C753,233.07,734.3,263.9,734.3,263.9Z"/><path class="cls-84" d="M767.39,192l10.09,12.47a24.27,24.27,0,0,0-1.88-3.34c-.45-.7-.93-1.41-1.4-2.1a40.88,40.88,0,0,0-3.83-5,12.47,12.47,0,0,0-1.54-1.23h0a7.85,7.85,0,0,0-1.43-.78Z"/><path class="cls-22" d="M776,215.93c.66-2,2.23-7.25,2.19-8.56a7.72,7.72,0,0,0-.68-2.85h0a24.27,24.27,0,0,0-1.88-3.34c-.45-.7-.93-1.41-1.4-2.1a40.88,40.88,0,0,0-3.83-5,12.47,12.47,0,0,0-1.54-1.23h0a7.85,7.85,0,0,0-1.43-.78h0S778,201.63,776,215.93Z"/><path class="cls-29" d="M753.1,234.66a5.26,5.26,0,0,0,1.17,1.35c.45.22,1,1.28,1,1.28l-2.88,2.11s-1.05-2.49-2.37-3.27S753.1,234.66,753.1,234.66Z"/><path class="cls-22" d="M748.73,198.7s2.36-6.77,7.25-4.66c4.7,2-1.64,10.31-2.2,11.32s-5.88,9.16-6.42,10.26c-1.69,3.48-1.12,5.2-.55,6.86a39.87,39.87,0,0,0,6.62,11.72c.92.9-1.83,3.56-3.31,2.55-2-1.36-6.51-7.82-7.48-9.42-1.19-2-4.19-5.49-2.06-11.62C742,211.58,748.73,198.7,748.73,198.7Z"/><path class="cls-85" d="M756,235.21l-6.19,5s4.86,7.3,7.19,4.23S756,235.21,756,235.21Z"/><path class="cls-22" d="M758.79,191.45l.13-1.78s8.94,6.59,10,17.49C768.88,207.16,758.89,195.17,758.79,191.45Z"/><path class="cls-93" d="M751.59,214.62h0c2.79-3.28,4.44-12.87,4.44-12.87a29.13,29.13,0,0,1-5.5,8.76h0C750.86,211.86,751.23,213.24,751.59,214.62Z"/><path class="cls-92" d="M767.17,267.8h0c.46,1.44.94,2.93,1.4,4.38a100.82,100.82,0,0,0,2.64-18.35C770.53,259.23,767.17,267.8,767.17,267.8Z"/></g></g></svg>