<svg id="Layer_1" data-name="Layer 1" xmlns="http://www.w3.org/2000/svg" xmlns:xlink="http://www.w3.org/1999/xlink" viewBox="0 0 900 350"><defs><style>.cls-1{fill:none;}.cls-2{fill:#cc2549;}.cls-3{font-size:47px;font-family:Helvetica-Bold, Helvetica;font-weight:700;}.cls-3,.cls-7{fill:#fff;}.cls-4{letter-spacing:-0.07em;}.cls-5{clip-path:url(#clip-path);}.cls-6{fill:#e0e0e0;}.cls-8{opacity:0.5;}.cls-9{clip-path:url(#clip-path-4);}.cls-10{fill:#ebebeb;}.cls-11{fill:#263238;}.cls-12{fill:#455a64;}.cls-13{fill:#fafafa;}.cls-14{clip-path:url(#clip-path-7);}.cls-15{fill:#e8505b;}.cls-16{opacity:0.2;}.cls-17{clip-path:url(#clip-path-9);}.cls-18{opacity:0.4;}.cls-19{clip-path:url(#clip-path-11);}.cls-20{fill:#b78876;}.cls-21{clip-path:url(#clip-path-13);}.cls-22{clip-path:url(#clip-path-14);}.cls-23{opacity:0.3;}.cls-24{clip-path:url(#clip-path-15);}.cls-25{fill:#995037;}.cls-26{clip-path:url(#clip-path-17);}.cls-27{clip-path:url(#clip-path-18);}.cls-28{clip-path:url(#clip-path-19);}.cls-29{clip-path:url(#clip-path-20);}.cls-30{clip-path:url(#clip-path-21);}.cls-31{clip-path:url(#clip-path-22);}.cls-32{clip-path:url(#clip-path-23);}.cls-33{clip-path:url(#clip-path-24);}.cls-34{clip-path:url(#clip-path-25);}.cls-35{clip-path:url(#clip-path-27);}.cls-36{clip-path:url(#clip-path-29);}.cls-37{clip-path:url(#clip-path-30);}.cls-38{clip-path:url(#clip-path-32);}.cls-39{clip-path:url(#clip-path-33);}.cls-40{opacity:0.8;}.cls-41{clip-path:url(#clip-path-34);}.cls-42{clip-path:url(#clip-path-35);}.cls-43{clip-path:url(#clip-path-37);}.cls-44{opacity:0.7;}.cls-45{clip-path:url(#clip-path-38);}.cls-46{clip-path:url(#clip-path-39);}.cls-47{clip-path:url(#clip-path-40);}.cls-48{clip-path:url(#clip-path-41);}.cls-49{clip-path:url(#clip-path-42);}.cls-50{clip-path:url(#clip-path-43);}</style><clipPath id="clip-path"><rect class="cls-1" x="342" y="-2" width="529.5" height="353"/></clipPath><clipPath id="clip-path-4"><rect class="cls-1" x="653.82" y="108.72" width="24.92" height="20.14"/></clipPath><clipPath id="clip-path-7"><path class="cls-1" d="M588.68,123.65c-2.06,3.07-10.62,22.18-10.62,22.18l13.32,6.94,2.87-8.2,4.67,17.12C593.57,166,586,204.5,587.5,220.74l50,.16s.34-45.06-13.19-59.88l3.17-17.9,3.05,8.73L644.71,146l-10.63-19.11a10.29,10.29,0,0,0-8.94-5.29l-3.47,0s-1.46,12.8-10.76,12.55-10.77-13.42-10.77-13.42H600c-1.25,0-9.4.11-11.3,3"/></clipPath><clipPath id="clip-path-9"><rect class="cls-1" x="610.85" y="174.4" width="16.99" height="32.45"/></clipPath><clipPath id="clip-path-11"><rect class="cls-1" x="783.39" y="284.09" width="17.23" height="43.34"/></clipPath><clipPath id="clip-path-13"><rect class="cls-1" x="691.89" y="283.66" width="14.04" height="4.91"/></clipPath><clipPath id="clip-path-14"><rect class="cls-1" x="674.18" y="267.84" width="4.98" height="17.2"/></clipPath><clipPath id="clip-path-15"><rect class="cls-1" x="727.77" y="269.42" width="1.98" height="6.47"/></clipPath><clipPath id="clip-path-17"><rect class="cls-1" x="407.97" y="225.18" width="11.62" height="8.99"/></clipPath><clipPath id="clip-path-18"><rect class="cls-1" x="416.09" y="234.69" width="6.62" height="12.63"/></clipPath><clipPath id="clip-path-19"><rect class="cls-1" x="425.27" y="226.67" width="11.36" height="9.06"/></clipPath><clipPath id="clip-path-20"><rect class="cls-1" x="413.23" y="219.65" width="12.12" height="5.37"/></clipPath><clipPath id="clip-path-21"><rect class="cls-1" x="410.3" y="244.01" width="7.49" height="16.08"/></clipPath><clipPath id="clip-path-22"><rect class="cls-1" x="424.95" y="214.15" width="11.33" height="6.14"/></clipPath><clipPath id="clip-path-23"><rect class="cls-1" x="415.94" y="202.87" width="12" height="7.81"/></clipPath><clipPath id="clip-path-24"><rect class="cls-1" x="430.39" y="196.75" width="6.24" height="11.94"/></clipPath><clipPath id="clip-path-25"><rect class="cls-1" x="412.22" y="208.16" width="30.55" height="41.03"/></clipPath><clipPath id="clip-path-27"><rect class="cls-1" x="396.29" y="282.08" width="67.87" height="45.43"/></clipPath><clipPath id="clip-path-29"><rect class="cls-1" x="512.68" y="252.61" width="38.93" height="74.94"/></clipPath><clipPath id="clip-path-30"><path class="cls-1" d="M499.26,154.18l13,16.11L510,188.13a6.62,6.62,0,0,0,13,2.53l5.21-19.77a7.83,7.83,0,0,0-1.59-7l-15.46-18.31Z"/></clipPath><clipPath id="clip-path-32"><rect class="cls-1" x="499.26" y="145.53" width="29.2" height="50.07"/></clipPath><clipPath id="clip-path-33"><path class="cls-1" d="M505.4,147.85,518.45,164l-2.29,17.84a6.63,6.63,0,0,0,13,2.54l5.2-19.78a7.83,7.83,0,0,0-1.59-7.05L517.29,139.2Z"/></clipPath><clipPath id="clip-path-34"><rect class="cls-1" x="515.6" y="181.39" width="12.89" height="9.83"/></clipPath><clipPath id="clip-path-35"><rect class="cls-1" x="529.72" y="156.27" width="9.43" height="13.87"/></clipPath><clipPath id="clip-path-37"><rect class="cls-1" x="698.69" y="155.96" width="35.49" height="29.76"/></clipPath><clipPath id="clip-path-38"><rect class="cls-1" x="698.58" y="162.49" width="29.77" height="12.18"/></clipPath><clipPath id="clip-path-39"><rect class="cls-1" x="698.01" y="166.21" width="28.3" height="13.3"/></clipPath><clipPath id="clip-path-40"><rect class="cls-1" x="696.26" y="167.4" width="8.59" height="9.93"/></clipPath><clipPath id="clip-path-41"><rect class="cls-1" x="704.19" y="172.79" width="18.16" height="8.8"/></clipPath><clipPath id="clip-path-42"><rect class="cls-1" x="699.6" y="158.52" width="30.09" height="11.89"/></clipPath><clipPath id="clip-path-43"><rect class="cls-1" x="700.43" y="155.65" width="8.24" height="2.33"/></clipPath></defs><title>image_2</title><rect class="cls-2" width="900" height="352"/><text class="cls-3" transform="translate(88.61 132.18)"><tspan class="cls-4">T</tspan><tspan x="25.24" y="0">emukan</tspan><tspan x="0" y="47">Barang</tspan><tspan x="0" y="94">Favoritmu</tspan></text><g class="cls-5"><g class="cls-5"><g class="cls-5"><path class="cls-6" d="M758.25,179.89,645.56,159.81a5.32,5.32,0,0,1-4.3-6.18L653.67,84a5.31,5.31,0,0,1,6.17-4.31L772.53,99.8a5.33,5.33,0,0,1,4.31,6.18l-12.41,69.61a5.32,5.32,0,0,1-6.18,4.3"/><path class="cls-7" d="M756.31,116.13a8.64,8.64,0,1,1-7-10,8.64,8.64,0,0,1,7,10"/><path class="cls-7" d="M758.07,125.43a8.65,8.65,0,0,1-1.6-.14,9,9,0,1,1,1.6.14m0-17.27a8.29,8.29,0,1,0,1.46.13,8,8,0,0,0-1.46-.13"/><polygon class="cls-7" points="656.38 131.97 655.16 138.81 654.45 138.68 655.56 132.47 653.95 132.18 654.06 131.56 656.38 131.97"/><path class="cls-7" d="M662.3,139.43l-.11.63-4.8-.86.09-.49,3.34-2.28c.91-.63,1.14-1.06,1.22-1.53.14-.79-.33-1.38-1.37-1.56a2.35,2.35,0,0,0-2,.43l-.42-.52a3.15,3.15,0,0,1,2.6-.55c1.39.25,2.14,1.11,1.94,2.25a2.85,2.85,0,0,1-1.51,1.94l-2.73,1.87Z"/><polygon class="cls-7" points="669.71 139.54 668.34 139.3 668.02 141.1 667.32 140.97 667.64 139.18 663.78 138.49 663.87 137.98 668.3 134.09 669.08 134.23 664.8 138.03 667.77 138.55 668.05 136.97 668.73 137.09 668.45 138.68 669.82 138.92 669.71 139.54"/><polygon class="cls-7" points="680.18 141.41 678.82 141.17 678.5 142.97 677.79 142.84 678.12 141.04 674.26 140.36 674.35 139.85 678.78 135.96 679.56 136.1 675.28 139.89 678.25 140.42 678.53 138.84 679.21 138.96 678.93 140.54 680.3 140.79 680.18 141.41"/><path class="cls-7" d="M686.2,142.26c-.21,1.17-1.18,1.93-2.85,1.63a3.59,3.59,0,0,1-2.3-1.31l.45-.5a3,3,0,0,0,2,1.17c1.17.2,1.88-.25,2-1.08s-.29-1.53-2-1.84l-1.46-.26,1-3.36,3.74.66-.11.63-3.13-.56-.62,2.14.88.15c2.06.37,2.7,1.32,2.48,2.53"/><path class="cls-7" d="M693,143.44a2.16,2.16,0,0,1-2.71,1.68c-1.81-.32-2.57-1.76-2.19-3.92.42-2.32,1.9-3.31,3.76-3a3.1,3.1,0,0,1,1.55.67l-.38.51a2.43,2.43,0,0,0-1.27-.56c-1.48-.26-2.59.52-2.93,2.37,0,.16,0,.36-.07.57a2.21,2.21,0,0,1,2.3-.8,2.09,2.09,0,0,1,1.94,2.46m-.69-.11c.16-.89-.4-1.59-1.46-1.78a1.6,1.6,0,0,0-2,1.18c-.14.76.36,1.58,1.54,1.79a1.52,1.52,0,0,0,1.94-1.19"/><path class="cls-7" d="M702.3,145.18c-.2,1.15-1.19,1.88-2.84,1.58a3.59,3.59,0,0,1-2.3-1.31l.44-.5a3,3,0,0,0,2,1.17c1.13.2,1.85-.21,2-1.06s-.33-1.46-1.6-1.69l-.49-.09.09-.52,2.32-2-3.5-.62.12-.63,4.39.78-.09.5-2.37,2.09c1.46.34,2,1.24,1.85,2.33"/><path class="cls-7" d="M709.17,146.33a2.15,2.15,0,0,1-2.7,1.68c-1.82-.32-2.58-1.76-2.2-3.92.42-2.32,1.9-3.31,3.76-3a3.09,3.09,0,0,1,1.55.66l-.38.51a2.4,2.4,0,0,0-1.27-.56c-1.48-.26-2.59.52-2.92,2.37a4.23,4.23,0,0,0-.07.57,2.2,2.2,0,0,1,2.3-.8,2.09,2.09,0,0,1,1.93,2.46m-.69-.11c.16-.89-.4-1.59-1.46-1.78a1.61,1.61,0,0,0-2,1.18c-.14.76.36,1.58,1.54,1.79a1.52,1.52,0,0,0,1.94-1.19"/><polygon class="cls-7" points="716.32 142.65 716.23 143.15 712.24 148.98 711.48 148.84 715.4 143.13 711.88 142.51 711.65 143.79 710.96 143.66 711.3 141.76 716.32 142.65"/><polygon class="cls-7" points="726.09 144.4 726 144.89 722.01 150.72 721.25 150.59 725.17 144.88 721.65 144.25 721.43 145.53 720.73 145.41 721.07 143.5 726.09 144.4"/><path class="cls-7" d="M731.94,150.53c-.21,1.21-1.37,1.78-3,1.49s-2.51-1.22-2.29-2.44a1.72,1.72,0,0,1,1.62-1.44,1.56,1.56,0,0,1-.81-1.7c.2-1.11,1.27-1.63,2.72-1.38s2.29,1.13,2.09,2.24a1.58,1.58,0,0,1-1.36,1.31,1.75,1.75,0,0,1,1,1.92m-.72-.14c.15-.84-.48-1.5-1.69-1.71s-2,.18-2.17,1,.47,1.51,1.68,1.72,2-.18,2.18-1m-1.59-2.27c1.07.19,1.79-.18,1.92-.92s-.45-1.36-1.48-1.54-1.77.17-1.91.93.41,1.34,1.47,1.53"/><path class="cls-7" d="M738.86,150.14c-.41,2.32-1.9,3.31-3.75,3a3.22,3.22,0,0,1-1.56-.66l.39-.52a2.4,2.4,0,0,0,1.27.56c1.47.26,2.59-.51,2.92-2.37,0-.16,0-.35.07-.56a2.22,2.22,0,0,1-2.3.8A2.11,2.11,0,0,1,734,147.9a2.17,2.17,0,0,1,2.71-1.68c1.82.33,2.58,1.76,2.19,3.92m-.72-1.53c.13-.75-.36-1.58-1.55-1.79a1.52,1.52,0,0,0-1.93,1.19c-.16.9.4,1.59,1.46,1.78a1.6,1.6,0,0,0,2-1.18"/><polygon class="cls-7" points="746.4 148.01 745.18 154.85 744.47 154.73 745.58 148.51 743.97 148.23 744.08 147.6 746.4 148.01"/><path class="cls-7" d="M752.32,155.48l-.11.63-4.8-.86.09-.5,3.34-2.27c.91-.63,1.14-1.06,1.22-1.53.14-.79-.33-1.38-1.37-1.57a2.39,2.39,0,0,0-2,.43l-.43-.51a3.08,3.08,0,0,1,2.6-.55c1.39.25,2.14,1.11,1.94,2.25-.12.66-.43,1.2-1.51,1.94l-2.73,1.87Z"/><path class="cls-7" d="M758.69,155.24c-.2,1.14-1.19,1.87-2.84,1.58a3.61,3.61,0,0,1-2.3-1.32l.44-.5a3,3,0,0,0,2,1.17c1.13.2,1.85-.21,2-1.06s-.34-1.46-1.6-1.69l-.49-.09.09-.51,2.32-2-3.5-.62.11-.63,4.4.79-.09.49-2.37,2.09c1.45.34,2,1.24,1.85,2.34"/><rect class="cls-7" x="730.54" y="131.45" width="3.02" height="55.63" transform="translate(446.75 851.99) rotate(-79.89)"/><rect class="cls-7" x="742.82" y="153.3" width="3.02" height="28.53" transform="translate(448.7 870.93) rotate(-79.89)"/><g class="cls-8"><g class="cls-9"><path class="cls-10" d="M672.79,128.81l-16.08-2.87a3.5,3.5,0,0,1-2.84-4.06l1.83-10.27a3.51,3.51,0,0,1,4.07-2.83l16.08,2.86a3.51,3.51,0,0,1,2.83,4.07L676.85,126a3.5,3.5,0,0,1-4.06,2.84"/></g></g><path class="cls-6" d="M654.1,120.58l.2-1.1,11.83,2.11a2.52,2.52,0,1,0,.88-5l-11.83-2.11.2-1.1,11.83,2.11a3.64,3.64,0,0,1-1.27,7.16Z"/><rect class="cls-6" x="673.1" y="116.25" width="1.12" height="8.25" transform="matrix(0.18, -0.98, 0.98, 0.18, 436.1, 762.14)"/><rect class="cls-7" x="688.07" y="72.31" width="5.15" height="60.03" transform="translate(468.67 764.28) rotate(-79.89)"/><path class="cls-6" d="M567.49,120.26,482.26,141a6.19,6.19,0,0,1-7.47-4.55L453.33,48.11a6.19,6.19,0,0,1,4.55-7.47l85.23-20.71a6.17,6.17,0,0,1,7.46,4.55L572,112.79a6.18,6.18,0,0,1-4.54,7.47"/><path class="cls-7" d="M537,95.19a.94.94,0,0,1-.19.06l-.57.16L534,96l-8.18,2.06-27.5,6.76-.19,0-.07-.18c-.55-1.4-1.15-2.89-1.74-4.4-5.08-12.91-9.62-24.44-12.57-31.95l.17.09-7.35,1.72-2,.43-.5.11c-.12,0-.18,0-.18,0l.17-.06.49-.14,1.95-.51,7.31-1.85.12,0,0,.12c3,7.49,7.57,19,12.71,31.88l1.75,4.41-.26-.14,27.53-6.61L534,95.83l2.22-.5.58-.12.2,0"/><path class="cls-7" d="M495.21,96.84l.19-.06.57-.16,2.2-.57L506.44,94,535,87l-.16.22c-.33-5-.67-10.43-1-16-.18-2.89-.36-5.72-.54-8.42l.28.2L499.85,71l-10,2.36-2.69.61-.7.15a1.07,1.07,0,0,1-.25,0,1.29,1.29,0,0,1,.24-.08l.69-.19,2.67-.69,9.95-2.48,33.64-8.25.26-.07,0,.27c.17,2.7.35,5.54.54,8.42.35,5.61.69,11,1,16v.18l-.18,0-28.57,6.86-8.3,2L496,96.7l-.58.12-.2,0"/><path class="cls-7" d="M510.51,112.74s-.12-.33-.43-.87a4,4,0,0,0-1.91-1.69,3.85,3.85,0,0,0-3.62.36,3.79,3.79,0,1,0,5.05,5.55,4,4,0,0,0,.93-2.37c0-.62-.07-1,0-1a.91.91,0,0,1,.09.24,3,3,0,0,1,.1.74,4,4,0,0,1-.85,2.57,4.13,4.13,0,0,1-3.67,1.55,4.17,4.17,0,1,1,2.12-8,4,4,0,0,1,1.93,1.9,2.86,2.86,0,0,1,.25.7.79.79,0,0,1,0,.25"/><path class="cls-7" d="M535.41,106.69s-.12-.34-.43-.87a3.91,3.91,0,0,0-1.91-1.69,3.79,3.79,0,1,0,1.44,5.91,4,4,0,0,0,.92-2.38c0-.62-.06-1,0-1s.05.08.09.24a2.83,2.83,0,0,1,.11.74,4,4,0,0,1-.85,2.57,4.13,4.13,0,0,1-3.67,1.55,4.17,4.17,0,0,1-1.86-7.65,4.11,4.11,0,0,1,4-.3,4,4,0,0,1,1.94,1.89,3,3,0,0,1,.24.7c0,.17,0,.26,0,.26"/><path class="cls-7" d="M541.45,56.62a11.36,11.36,0,1,1-13.72-8.36,11.36,11.36,0,0,1,13.72,8.36"/><path class="cls-6" d="M535.23,55.05a11.44,11.44,0,0,1-1,2.11c-.69,1.28-1.66,3-2.75,5l-1.18,2-.1.18-.19-.1c-1.45-.76-2.69-1.43-3.56-1.93a6.21,6.21,0,0,1-1.35-.85,7.57,7.57,0,0,1,1.47.61c.91.43,2.18,1,3.64,1.79l-.28.09c.36-.65.75-1.34,1.16-2,1.09-1.92,2.11-3.65,2.86-4.88a12.28,12.28,0,0,1,1.3-2"/></g><g class="cls-5"><path class="cls-11" d="M830.06,327.41c0,.1-101.36.19-226.37.19s-226.38-.09-226.38-.19,101.33-.18,226.38-.18,226.37.08,226.37.18"/></g><g class="cls-5"><path class="cls-12" d="M657.13,327.55l-93.8-.43A20.43,20.43,0,0,1,543,306.6l1-235.16a20.44,20.44,0,0,1,20.53-20.35l93.8.43A20.45,20.45,0,0,1,678.65,72l-1,235.17a20.43,20.43,0,0,1-20.52,20.34"/><path class="cls-13" d="M658.18,59.64,640,59.56a4.52,4.52,0,0,0-4.44,4.59v3.3a4.52,4.52,0,0,1-4.44,4.6l-35.45-.17a4.52,4.52,0,0,1-4.39-4.63V64a4.52,4.52,0,0,0-4.39-4.64l-6.4,0-15.92-.07a14.3,14.3,0,0,0-14.37,14.25l-1,229.53a14.3,14.3,0,0,0,14.24,14.37l93.61.44a14.32,14.32,0,0,0,14.38-14.25l1-229.54a14.31,14.31,0,0,0-14.24-14.37"/><path class="cls-11" d="M660.22,82.23a16,16,0,0,1-2.35.13c-1.46,0-3.49,0-5.78.06h-.16l0-.16c0-.31-.09-.63-.13-1-.4-2.81-.72-5.32-.91-7l.12.1a14.32,14.32,0,0,1-2.09-.11,11.9,11.9,0,0,1,2.09-.12h.1l0,.1c.26,1.61.64,4.12,1,6.93.05.33.09.65.13,1l-.18-.16c2.29,0,4.32,0,5.78.06a17.16,17.16,0,0,1,2.35.12"/><path class="cls-11" d="M651.86,80.55a2.6,2.6,0,0,1,.62-.06l1.74,0c1.49,0,3.58-.06,6-.07l-.17.15c.18-1,.37-2.11.56-3.24.11-.58.21-1.15.3-1.69l.18.21c-2.81,0-5.29,0-7.07-.06l-2.09,0a3.34,3.34,0,0,1-.76-.07,3.88,3.88,0,0,1,.76-.06L654,75.5c1.78,0,4.26,0,7.07-.06h.22l0,.21c-.09.55-.19,1.12-.3,1.7-.2,1.13-.39,2.22-.57,3.23l0,.15h-.15c-2.42,0-4.51,0-6-.07l-1.74,0a2.6,2.6,0,0,1-.62-.06"/><path class="cls-11" d="M654.13,84.44c-.06,0-.07-.32-.4-.54a.68.68,0,0,0-.64-.06.64.64,0,0,0,0,1.2.68.68,0,0,0,.64-.06c.33-.22.34-.55.4-.54s0,.07,0,.22a.81.81,0,0,1-.29.53.92.92,0,0,1-.9.17,1,1,0,0,1,0-1.84.92.92,0,0,1,.9.17.79.79,0,0,1,.29.53c0,.15,0,.22,0,.22"/><path class="cls-11" d="M659.36,84.44c-.06,0-.07-.32-.4-.54a.68.68,0,0,0-.64-.06.65.65,0,0,0,0,1.2A.68.68,0,0,0,659,85c.33-.22.34-.55.4-.54s0,.07,0,.22a.81.81,0,0,1-.29.53.91.91,0,0,1-.9.17,1,1,0,0,1,0-1.84.91.91,0,0,1,.9.17.79.79,0,0,1,.29.53c0,.15,0,.22,0,.22"/><path class="cls-11" d="M576.82,83.09a129,129,0,0,1-14,0,136.2,136.2,0,0,1,14,0"/><path class="cls-11" d="M576.82,80.45a68.11,68.11,0,0,1-7,.18,68,68,0,0,1-7-.18,136.2,136.2,0,0,1,14,0"/><path class="cls-11" d="M576.82,77.81a68.11,68.11,0,0,1-7,.18,68,68,0,0,1-7-.18,129,129,0,0,1,14,0"/></g><g class="cls-14"><path class="cls-15" d="M600.14,120.7s-9.4-.13-11.46,3-10.62,22.18-10.62,22.18l13.32,6.94,2.87-8.2,4.67,17.12C593.57,166,586,204.5,587.5,220.74l50,.16s.34-45.07-13.19-59.88l3.17-17.9,3.05,8.73L644.71,146l-10.63-19.11a10.29,10.29,0,0,0-8.94-5.29l-3.47,0s-1.46,12.8-10.76,12.55-10.77-13.42-10.77-13.42"/><path class="cls-13" d="M648.27,181.47s0-.07,0-.22,0-.39,0-.67a7.14,7.14,0,0,0-.13-1.07,9.53,9.53,0,0,0-.3-1.44,13.18,13.18,0,0,0-1.56-3.69,13.54,13.54,0,0,0-3.54-3.93,13.82,13.82,0,0,0-13.1-2,13,13,0,0,0-3.5,1.89,16.26,16.26,0,0,0-1.57,1.33,17.29,17.29,0,0,0-1.35,1.6,13.93,13.93,0,0,0-2.69,8.17,14.74,14.74,0,0,0,.71,4.36,13.28,13.28,0,0,0,2,3.81,16.2,16.2,0,0,0,1.35,1.61,17.82,17.82,0,0,0,1.57,1.33,13.23,13.23,0,0,0,3.5,1.89,14,14,0,0,0,7.27.61,14,14,0,0,0,9.37-6.51,13.35,13.35,0,0,0,1.56-3.7,9.29,9.29,0,0,0,.3-1.44,6.85,6.85,0,0,0,.13-1.07c0-.27,0-.49,0-.66a.72.72,0,0,1,0-.23.82.82,0,0,1,0,.23c0,.17,0,.39,0,.67a6.59,6.59,0,0,1-.09,1.08,9.36,9.36,0,0,1-.27,1.46,13.38,13.38,0,0,1-1.52,3.77,14.06,14.06,0,0,1-16.94,6.1,13.27,13.27,0,0,1-3.59-1.92,15.87,15.87,0,0,1-1.61-1.36,16.73,16.73,0,0,1-1.39-1.64,13.87,13.87,0,0,1-2-3.91,15.28,15.28,0,0,1-.73-4.48,14.24,14.24,0,0,1,2.77-8.38,15.63,15.63,0,0,1,1.39-1.64,16,16,0,0,1,1.61-1.37,13.55,13.55,0,0,1,3.59-1.92,14.18,14.18,0,0,1,7.44-.59,14.1,14.1,0,0,1,9.5,6.7A13.26,13.26,0,0,1,647.9,178a9.36,9.36,0,0,1,.27,1.46,6.51,6.51,0,0,1,.09,1.08c0,.28,0,.5,0,.67a.72.72,0,0,1,0,.22"/><path class="cls-13" d="M604.18,150a18.06,18.06,0,0,0-.39-2.51,10.32,10.32,0,0,0-3.78-5.61,10.19,10.19,0,0,0-4.3-1.9,10.34,10.34,0,0,0-5.35.46,10.26,10.26,0,0,0-4.72,3.55,10.15,10.15,0,0,0,0,12,10.26,10.26,0,0,0,4.72,3.55,10.21,10.21,0,0,0,9.65-1.44,10.35,10.35,0,0,0,3.78-5.61,18.3,18.3,0,0,0,.39-2.51s0,.06,0,.17,0,.29,0,.49a4.94,4.94,0,0,1-.06.8,6.26,6.26,0,0,1-.2,1.08,9.53,9.53,0,0,1-1.12,2.8,10.44,10.44,0,0,1-2.63,3,10.29,10.29,0,0,1-4.4,2,10.54,10.54,0,0,1-5.52-.43,9.72,9.72,0,0,1-2.67-1.43,9.83,9.83,0,0,1-2.23-2.23,10.46,10.46,0,0,1,0-12.44,10.56,10.56,0,0,1,4.9-3.66,10.55,10.55,0,0,1,5.52-.44,10.42,10.42,0,0,1,4.4,2,10.31,10.31,0,0,1,2.63,3,9.38,9.38,0,0,1,1.12,2.79,6.36,6.36,0,0,1,.2,1.09,4.94,4.94,0,0,1,.06.8c0,.2,0,.36,0,.49s0,.17,0,.17"/><path class="cls-13" d="M604.17,211s0-.28-.17-.76a3.18,3.18,0,0,0-1.16-1.66,3,3,0,1,0,0,4.84,3.16,3.16,0,0,0,1.16-1.67c.14-.47.14-.75.17-.75a.55.55,0,0,1,0,.2,2.37,2.37,0,0,1-.06.59,3.16,3.16,0,0,1-1.14,1.83,3.3,3.3,0,0,1-3.14.52,3.34,3.34,0,0,1,0-6.28,3.3,3.3,0,0,1,3.14.51,3.18,3.18,0,0,1,1.14,1.84,2.34,2.34,0,0,1,.06.58.58.58,0,0,1,0,.21"/><path class="cls-13" d="M598.67,129.68s0-.28-.17-.76a3.18,3.18,0,0,0-1.16-1.66,3,3,0,1,0,0,4.83,3.13,3.13,0,0,0,1.16-1.65c.14-.48.14-.76.17-.76a.55.55,0,0,1,0,.2,2.37,2.37,0,0,1-.06.59,3.16,3.16,0,0,1-1.14,1.83,3.3,3.3,0,0,1-3.14.52,3.33,3.33,0,0,1,0-6.28,3.3,3.3,0,0,1,3.14.51,3.18,3.18,0,0,1,1.14,1.84,2.34,2.34,0,0,1,.06.58.58.58,0,0,1,0,.21"/><path class="cls-13" d="M609,195.77a2.18,2.18,0,0,1-.07-.3c0-.22-.08-.5-.15-.85l-.54-3.18c-.45-2.74-1.09-6.6-1.85-11.23l.18.14L591,182.82c0,.05.29-.39.15-.21h0v.1l0,.14,0,.26.09.54c0,.35.11.7.16,1,.11.7.22,1.4.33,2.08.22,1.38.43,2.72.63,4,.41,2.62.79,5.09,1.14,7.35l-.18-.13,11.25-1.69,3.19-.46.85-.11a1.18,1.18,0,0,1,.31,0l-.27.06-.81.15-3.14.53-11.33,1.87-.16,0,0-.16c-.36-2.26-.75-4.73-1.17-7.34-.21-1.31-.42-2.65-.64-4l-.33-2.08c0-.35-.11-.7-.16-1.06l-.09-.53,0-.27,0-.13v-.12h0l.15-.21L606.53,180l.16,0,0,.15c.7,4.68,1.28,8.59,1.7,11.36.19,1.33.35,2.39.46,3.15,0,.34.08.61.11.83a1.1,1.1,0,0,1,0,.27"/><path class="cls-13" d="M628.05,155a2.55,2.55,0,0,1,.18-.31l.53-.86,2-3.2,7.25-11.28.05.21-15.58-10.11.25-.05h0v0l0,0,0,.07-.09.13-.17.27-.35.53c-.23.35-.46.7-.68,1.05L620,133.61c-.9,1.37-1.77,2.72-2.63,4L612.62,145l0-.21,11.2,7.38,3.15,2.11.84.57a2.34,2.34,0,0,1,.29.21,3,3,0,0,1-.28-.17l-.83-.51-3.17-2L612.4,145l-.14-.08.09-.14,4.77-7.35,2.61-4,1.36-2.08.69-1.05.34-.53.18-.27.08-.13,0-.07,0,0v0h0c-.23,0,.31-.07.25-.06l15.55,10.16.14.09-.09.13-7.45,11.28c-.88,1.33-1.58,2.38-2.08,3.12l-.55.81a2.4,2.4,0,0,1-.19.27"/><path class="cls-13" d="M617.53,202.53l-.06.12-.18.32-.69,1.24L614,208.78c-2.16,3.85-5.32,9.34-9,15.75l-.15-.26,12.65,0,12.65,0-.15.26c-3.68-6.41-6.84-11.9-9-15.76l-2.57-4.56-.69-1.24-.18-.32-.06-.12s.08.12.24.39.41.68.71,1.18l2.67,4.5c2.31,3.9,5.48,9.37,9.18,15.75l.15.26h-25.9l.15-.26c3.7-6.38,6.87-11.85,9.18-15.75l2.67-4.5.71-1.18.24-.39"/><path class="cls-13" d="M607.5,162.16s0,.1.09.28.13.46.23.77c.2.71.47,1.65.82,2.83.68,2.36,1.61,5.79,2.7,9.8l-.29-.08,5-5,5-5,.08.28c-4-1.08-7.43-2-9.8-2.7l-2.82-.82-.77-.23-.28-.09.24.05.74.18,2.85.7c2.5.62,5.92,1.52,9.93,2.58l.29.08-.21.21-5,5-5,5-.22.22-.07-.29c-1.06-4-2-7.44-2.58-9.93-.3-1.19-.53-2.15-.71-2.86-.07-.29-.13-.54-.17-.74a1,1,0,0,1,0-.24"/></g><g class="cls-5"><path class="cls-11" d="M624.63,161.09c0,.1-5.67.32-12.67.49s-12.69.23-12.69.13,5.67-.32,12.68-.5,12.68-.22,12.68-.12"/><path class="cls-11" d="M590.09,133a63.79,63.79,0,0,1,2.36,6.23,59.46,59.46,0,0,1,2,6.36,63.41,63.41,0,0,1-2.36-6.24,57.08,57.08,0,0,1-2-6.35"/><path class="cls-11" d="M628.88,133.84a10.83,10.83,0,0,1-.13,2c-.13,1.25-.36,3-.66,4.87s-.63,3.59-.9,4.82a10.14,10.14,0,0,1-.51,2,12,12,0,0,1,.26-2c.22-1.35.49-3,.78-4.83s.56-3.48.77-4.84a12.16,12.16,0,0,1,.39-2"/><path class="cls-11" d="M602,170.07a3.85,3.85,0,0,1-.27-1.34,10.21,10.21,0,0,1,.27-3.29,10.47,10.47,0,0,1,1.3-3.05,3.92,3.92,0,0,1,.86-1.06,19.35,19.35,0,0,0-1.8,4.19,18.45,18.45,0,0,0-.36,4.55"/><path class="cls-11" d="M605.77,166.12a4.5,4.5,0,0,1-.4-2.29,4.58,4.58,0,0,1,.46-2.28,20.44,20.44,0,0,1-.09,2.29,22.72,22.72,0,0,1,0,2.28"/><path class="cls-11" d="M627.69,209.1a2.1,2.1,0,0,1-.42-.19,11.06,11.06,0,0,1-1.17-.6,21.35,21.35,0,0,1-3.92-2.87,27.19,27.19,0,0,1-4.61-5.53,34.62,34.62,0,0,1-3.74-8,64,64,0,0,1-2.63-15.76c-.12-2-.18-3.7-.21-4.84,0-.55,0-1,0-1.32a1.64,1.64,0,0,1,0-.46,2.23,2.23,0,0,1,0,.45c0,.34.06.78.1,1.32.08,1.18.19,2.82.33,4.83a68.36,68.36,0,0,0,2.72,15.67,35.66,35.66,0,0,0,3.67,7.91,27.48,27.48,0,0,0,4.51,5.52,23.16,23.16,0,0,0,3.81,2.94c1,.59,1.54.87,1.52.91"/><g class="cls-16"><g class="cls-17"><path d="M611.48,174.4A28.67,28.67,0,0,0,622,192.94c2.1,1.65,4.57,3.18,5.46,5.71a8.69,8.69,0,0,1-.67,6.29,3,3,0,0,1-1.7,1.86,3,3,0,0,1-2.43-.82c-4.64-3.49-7.63-8.82-9.3-14.38s-2.13-11.4-2.55-17.19"/></g></g><path class="cls-11" d="M639.22,248.31c0,.11-11.93.19-26.64.19s-26.64-.08-26.64-.19,11.93-.18,26.64-.18,26.64.08,26.64.18"/><path class="cls-11" d="M639.22,101.43c0,.11-11.93.19-26.64.19s-26.64-.08-26.64-.19,11.93-.18,26.64-.18,26.64.08,26.64.18"/><path class="cls-11" d="M639.22,252.71c0,.1-11.93.18-26.64.18s-26.64-.08-26.64-.18,11.93-.18,26.64-.18,26.64.08,26.64.18"/><polygon points="608.98 265.52 608.98 273.18 607.2 273.18 607.2 266.94 605.67 266.94 605.67 265.52 608.98 265.52"/><path d="M610.31,269.35c0-2.53,1.4-4,3.29-4s3.28,1.44,3.28,4-1.39,4-3.28,4-3.29-1.44-3.29-4m4.79,0c0-1.74-.61-2.46-1.5-2.46s-1.49.72-1.49,2.46.61,2.47,1.49,2.47,1.5-.73,1.5-2.47"/><path class="cls-11" d="M621.78,267.2a1.52,1.52,0,0,1-1.59,1.68,1.67,1.67,0,0,1-.87-.22l.27-.53a1,1,0,0,0,.58.16.83.83,0,0,0,.88-.91,1.07,1.07,0,0,1-.77.28,1,1,0,0,1-1.08-1,1.07,1.07,0,0,1,1.18-1c.87,0,1.4.54,1.4,1.55m-.81-.55c0-.27-.2-.46-.54-.46a.46.46,0,0,0-.52.46.47.47,0,0,0,.53.47.49.49,0,0,0,.53-.47"/><path class="cls-11" d="M624.62,267.2a1.52,1.52,0,0,1-1.59,1.68,1.67,1.67,0,0,1-.87-.22l.27-.53a1,1,0,0,0,.58.16.83.83,0,0,0,.88-.91,1.07,1.07,0,0,1-.77.28,1,1,0,0,1-1.08-1,1.07,1.07,0,0,1,1.18-1c.87,0,1.4.54,1.4,1.55m-.81-.55c0-.27-.2-.46-.54-.46a.47.47,0,0,0-.53.46c0,.29.21.47.54.47a.49.49,0,0,0,.53-.47"/><rect class="cls-11" x="619.11" y="269.94" width="5.48" height="0.69"/><path class="cls-15" d="M627.84,242.69c0,.1-6.61.19-14.75.19s-14.75-.09-14.75-.19,6.6-.18,14.75-.18,14.75.08,14.75.18"/><path class="cls-15" d="M662.7,268.82a10.65,10.65,0,1,1-10.65-10.64,10.65,10.65,0,0,1,10.65,10.64"/><path class="cls-13" d="M649.36,274.8a3.2,3.2,0,0,1,.59-.53l1.67-1.33c1.43-1.1,3.42-2.61,5.63-4.26V269h0l0,0-.06,0-.1-.07-.2-.16-.41-.3-.79-.6-1.5-1.13-2.52-1.93c-.71-.55-1.28-1-1.67-1.32a3.2,3.2,0,0,1-.59-.53,3.78,3.78,0,0,1,.67.41l1.75,1.24,2.57,1.86,1.5,1.12.8.59.41.3.2.15.1.08.06,0,0,0h0c0,.14,0-.29,0,.3-2.21,1.65-4.22,3.13-5.69,4.18L650,274.38a3.56,3.56,0,0,1-.67.42"/><path class="cls-15" d="M560.8,268.82a10.65,10.65,0,1,1,10.65,10.65,10.64,10.64,0,0,1-10.65-10.65"/><path class="cls-13" d="M574.14,262.85a2.88,2.88,0,0,1-.58.53l-1.68,1.32c-1.43,1.11-3.42,2.62-5.63,4.27,0-.59,0-.16,0-.29h0l0,0,.06,0,.1.08.2.15.41.31.79.59,1.5,1.13,2.52,1.93,1.68,1.33a2.88,2.88,0,0,1,.58.53,3.56,3.56,0,0,1-.67-.42l-1.75-1.23-2.56-1.87c-.49-.35-1-.72-1.51-1.11l-.8-.59-.41-.3-.2-.16-.1-.07-.06,0,0,0h0c0-.13,0,.29,0-.29,2.21-1.65,4.22-3.13,5.69-4.18l1.75-1.24a3.78,3.78,0,0,1,.67-.41"/><rect class="cls-6" x="564" y="286.97" width="21.27" height="21.27"/><rect class="cls-6" x="590.99" y="286.97" width="21.27" height="21.27"/><rect class="cls-6" x="617.97" y="286.97" width="21.27" height="21.27"/><rect class="cls-6" x="644.96" y="286.97" width="21.27" height="21.27"/><rect class="cls-15" x="592.28" y="94.05" width="39.69" height="2.26"/></g><g class="cls-5"><path class="cls-11" d="M763.44,287.2a1.8,1.8,0,0,1,0-.42q0-.46,0-1.2c0-1.09,0-2.59-.06-4.42,0-.94,0-2,0-3.05,0-.55,0-1.12,0-1.7a14.07,14.07,0,0,1,.05-1.82,6.05,6.05,0,0,1,11.82-.82,6.36,6.36,0,0,1,.23,1.82c0,.59,0,1.15,0,1.7,0,1.1,0,2.12,0,3,0,1.83,0,3.33-.05,4.42,0,.49,0,.89,0,1.2a2.24,2.24,0,0,1,0,.42,1.24,1.24,0,0,1,0-.42c0-.31,0-.71,0-1.2,0-1.09,0-2.59-.06-4.42,0-.93,0-1.95,0-3a13,13,0,0,0-.24-3.43,5.72,5.72,0,0,0-9.49-2.51,5.71,5.71,0,0,0-1.66,3.29,13.1,13.1,0,0,0-.07,1.77c0,.58,0,1.15,0,1.7,0,1.09,0,2.11,0,3.05,0,1.83,0,3.33-.06,4.42,0,.49,0,.89,0,1.2a2.93,2.93,0,0,1,0,.42"/><path class="cls-11" d="M770.72,287.2a2.37,2.37,0,0,1,0-.42c0-.31,0-.71,0-1.2,0-1.09,0-2.59-.06-4.42,0-.94,0-2,0-3.05,0-.55,0-1.12,0-1.7a12.53,12.53,0,0,1,.06-1.82,6,6,0,0,1,5.57-5.22,6.06,6.06,0,0,1,6.24,4.4,6,6,0,0,1,.23,1.82c0,.59,0,1.15,0,1.7,0,1.1,0,2.12,0,3,0,1.83,0,3.33-.06,4.42q0,.74,0,1.2a1.69,1.69,0,0,1,0,.42,2.7,2.7,0,0,1,0-.42q0-.46,0-1.2c0-1.09,0-2.59-.06-4.42,0-.93,0-1.95,0-3a13.87,13.87,0,0,0-.24-3.43,5.72,5.72,0,0,0-9.49-2.51,5.73,5.73,0,0,0-1.67,3.29,13.09,13.09,0,0,0-.06,1.77c0,.58,0,1.15,0,1.7,0,1.09,0,2.11,0,3.05,0,1.83,0,3.33-.05,4.42,0,.49,0,.89,0,1.2a1.3,1.3,0,0,1,0,.42"/><polygon class="cls-15" points="754.61 284.09 749.7 327.43 783.39 327.43 787.64 284.09 754.61 284.09"/><polygon class="cls-15" points="787.64 284.09 794.68 284.09 800.63 327.43 783.39 327.43 787.64 284.09"/><g class="cls-18"><g class="cls-19"><polygon points="787.64 284.09 794.68 284.09 800.63 327.43 783.39 327.43 787.64 284.09"/></g></g><polygon class="cls-13" points="753.23 296.28 785.6 304.9 783.96 321.7 751.29 313.4 753.23 296.28"/></g><g class="cls-5"><path class="cls-11" d="M702.14,217.57a21.86,21.86,0,0,0-.24,13.27c.8,2.64,2.12,5.29,1.72,8-.33,2.23-1.78,4.18-2.07,6.42-.58,4.54,3.74,8.85,2.58,13.28a7,7,0,0,1-4.14,4.49,13,13,0,0,1-6.21.78c-3.1-.27-6.45-1.45-7.89-4.21-1.14-2.2-.78-4.85-.39-7.29,1.75-10.82,3.77-21.71,8.16-31.75"/><path class="cls-11" d="M703.51,251a2.81,2.81,0,0,1-.36.11,3.51,3.51,0,0,1-1.09.1,4.29,4.29,0,0,1-1.66-.48,3.73,3.73,0,0,1-1.6-1.64,4.15,4.15,0,0,1-.32-2.75,4.07,4.07,0,0,1,.66-1.42,6.18,6.18,0,0,1,1.18-1.16,31.15,31.15,0,0,0,2.8-2.08,5.57,5.57,0,0,0,1.56-3.27,9.43,9.43,0,0,0-.26-3.68,20.59,20.59,0,0,0-1.23-3.26,27.14,27.14,0,0,1-2.14-5.55,8.46,8.46,0,0,1,0-4,4.47,4.47,0,0,1,.58-1.35,8.5,8.5,0,0,0-.5,1.37,8.7,8.7,0,0,0,.05,3.94,27.56,27.56,0,0,0,2.18,5.49,21.61,21.61,0,0,1,1.25,3.29,9.48,9.48,0,0,1,.27,3.77,5.74,5.74,0,0,1-1.63,3.39,29.27,29.27,0,0,1-2.83,2.09,4.43,4.43,0,0,0-1.78,2.47,4,4,0,0,0,.28,2.63,3.64,3.64,0,0,0,1.52,1.6,4.22,4.22,0,0,0,1.61.5,5,5,0,0,0,1.44-.12"/><path class="cls-20" d="M660.82,320.64l-1.76,6.76-18.18-.17s1.33-3.18,11.27-3l.74-3.56Z"/><path class="cls-12" d="M727,219.23c-.18.35-4.79,24.07-4.79,24.07l10.88.5,4.21-20.39Z"/><polygon class="cls-11" points="722.22 243.3 720.97 242.77 725.68 219.39 727.16 219.29 722.22 243.3"/><path class="cls-11" d="M731.38,224.42a.55.55,0,0,0,.49.62.56.56,0,0,0,.63-.49.55.55,0,0,0-.49-.62.56.56,0,0,0-.63.49"/><path class="cls-20" d="M733.63,241.07l.16-3.11-4.65-1.91,1.81-4.31a3.75,3.75,0,0,1,5.22-1.78l1.87,1a5.31,5.31,0,0,1,2.64,3.44,66.21,66.21,0,0,1,1.08,7.58"/><path class="cls-15" d="M746.07,320.14s19.12,5.29,19.88,5.56c1.16.4,1,4.62-.83,4.56-.85,0-14.69.51-16.43.4s-7-2.18-7-2.18Z"/><path class="cls-11" d="M754,327.43a20.76,20.76,0,0,1,.84-2.05,20.08,20.08,0,0,1,1.36-1.76,3.35,3.35,0,0,0-1.63,1.6,3.42,3.42,0,0,0-.57,2.21"/><path class="cls-11" d="M752,326.53c.09,0,.29-.89.8-1.89s1.11-1.7,1-1.76a4.79,4.79,0,0,0-1.84,3.65"/><path class="cls-11" d="M750.17,326a12.84,12.84,0,0,1,.45-2,11.53,11.53,0,0,1,1-1.79,3.59,3.59,0,0,0-1.49,3.81"/><path class="cls-11" d="M750.51,323.56a3.54,3.54,0,0,0,.2-1.43,6.59,6.59,0,0,0-.19-1.55,6.5,6.5,0,0,0-.28-.89,1.2,1.2,0,0,0-.31-.47.51.51,0,0,0-.66,0,.86.86,0,0,0-.25.54,4.49,4.49,0,0,0,0,.51,4.54,4.54,0,0,0,.12.93,5.62,5.62,0,0,0,.59,1.47,3.79,3.79,0,0,0,.86,1.15s-.28-.48-.66-1.26a6.34,6.34,0,0,1-.5-1.42,4.14,4.14,0,0,1-.09-.87c0-.3,0-.67.17-.81a.19.19,0,0,1,.25,0,.76.76,0,0,1,.21.34,6,6,0,0,1,.29.84,7.8,7.8,0,0,1,.26,1.49c0,.87,0,1.41,0,1.42"/><path class="cls-11" d="M750.48,323.36a2.8,2.8,0,0,0-1.23-.2,5.48,5.48,0,0,0-1.36.17,3.13,3.13,0,0,0-.78.29.8.8,0,0,0-.43.87.93.93,0,0,0,.69.68,1.67,1.67,0,0,0,.86,0,3.34,3.34,0,0,0,1.24-.61,3.66,3.66,0,0,0,.89-.87,7.21,7.21,0,0,0-1,.69,3.39,3.39,0,0,1-1.17.5,1.42,1.42,0,0,1-.71,0,.65.65,0,0,1-.47-.45.5.5,0,0,1,.29-.53,3,3,0,0,1,.69-.28,7,7,0,0,1,1.29-.22c.75-.05,1.22,0,1.22,0"/><path class="cls-11" d="M757,327.64a5.19,5.19,0,0,1,1.31-3.22c0-.08-.83.37-1.23,1.37a2.22,2.22,0,0,0-.08,1.85"/><path class="cls-11" d="M743.63,328.52a4.06,4.06,0,0,0,.74.35,18.25,18.25,0,0,0,2.13.66,30.34,30.34,0,0,0,7.3.69c2.86,0,5.44-.16,7.32-.24l2.21-.12a4.15,4.15,0,0,0,.81-.08,3.71,3.71,0,0,0-.81,0l-2.22,0-7.32.14a34.07,34.07,0,0,1-7.24-.59c-1.83-.38-2.9-.85-2.92-.79"/><path class="cls-11" d="M743.06,329a15,15,0,0,0,1.44-.64,6.6,6.6,0,0,1,3.61-.61,5.79,5.79,0,0,1,3.13,1.86,11.36,11.36,0,0,0,1.1,1.13,5.81,5.81,0,0,0-.93-1.28,7.77,7.77,0,0,0-1.27-1.18,4.56,4.56,0,0,0-2-.84,6.3,6.3,0,0,0-3.76.71,5.2,5.2,0,0,0-1.34.85"/><path class="cls-15" d="M725.77,314.86S707.68,326.7,707,327.19c-1,.74.14,4.25,1.83,3.64.8-.29,16-4.51,17.62-5.15s6-4.21,6-4.21Z"/><path class="cls-11" d="M720.4,324.23a3.4,3.4,0,0,0-1.21-1.94,3.46,3.46,0,0,0-2-1,8.49,8.49,0,0,1,3.25,3"/><path class="cls-11" d="M722,322.76a3.55,3.55,0,0,0-1.1-1.78,3.62,3.62,0,0,0-1.75-1.14c0,.08.74.56,1.52,1.37s1.25,1.59,1.33,1.55"/><path class="cls-11" d="M723.65,321.72a2.81,2.81,0,0,0-.79-2,2.9,2.9,0,0,0-1.78-1.19,13.69,13.69,0,0,1,1.53,1.39,11.9,11.9,0,0,1,1,1.79"/><path class="cls-11" d="M722.58,319.47s-.2-.52-.41-1.36a7.63,7.63,0,0,1-.21-1.5,6.72,6.72,0,0,1,0-.89.81.81,0,0,1,.1-.38.18.18,0,0,1,.24-.06c.21.08.32.44.42.71a3.85,3.85,0,0,1,.17.86,6.15,6.15,0,0,1,0,1.51c-.13.86-.3,1.38-.25,1.4a4,4,0,0,0,.47-1.36,5.82,5.82,0,0,0,.12-1.57,4.57,4.57,0,0,0-.17-.93,4.52,4.52,0,0,0-.18-.47.87.87,0,0,0-.41-.44.5.5,0,0,0-.63.17,1,1,0,0,0-.15.54,5.8,5.8,0,0,0,0,.93,7.42,7.42,0,0,0,.29,1.54,3.58,3.58,0,0,0,.63,1.3"/><path class="cls-11" d="M722.54,319.27c0,.05.45-.17,1.18-.34a6.47,6.47,0,0,1,1.3-.18,3,3,0,0,1,.74.05.48.48,0,0,1,.43.42.63.63,0,0,1-.3.57,1.49,1.49,0,0,1-.68.23,3.41,3.41,0,0,1-1.27-.13,8,8,0,0,0-1.18-.35,3.46,3.46,0,0,0,1.11.57,3.36,3.36,0,0,0,1.37.2,1.61,1.61,0,0,0,.82-.26.93.93,0,0,0,.45-.86.81.81,0,0,0-.68-.7,2.94,2.94,0,0,0-.83,0,5.42,5.42,0,0,0-1.34.25,2.84,2.84,0,0,0-1.12.56"/><path class="cls-11" d="M711.17,330.17s.3-.19.44-.7a2.67,2.67,0,0,0-.34-2,7.4,7.4,0,0,0-.6-.9,3.61,3.61,0,0,0-.62-.66,1.14,1.14,0,0,0-.58-.24c-.15,0-.23,0-.22.05a1.69,1.69,0,0,1,.66.36,4.47,4.47,0,0,1,.52.66c.18.27.38.57.56.89a2.75,2.75,0,0,1,.4,1.76c-.07.47-.26.72-.22.75"/><path class="cls-11" d="M717.66,325.31a2.71,2.71,0,0,0-2.23-2.66,8.78,8.78,0,0,1,1.35,1.14,10,10,0,0,1,.88,1.52"/><path class="cls-11" d="M730.64,322.1s-.29.19-.79.55a23.37,23.37,0,0,1-2.23,1.37,30,30,0,0,1-3.55,1.57c-1.37.51-2.9,1-4.53,1.47-3.25.93-6.2,1.79-8.33,2.43l-2.51.77a5.37,5.37,0,0,0-.91.33,6.42,6.42,0,0,0,.94-.21l2.55-.67c2.14-.59,5.09-1.41,8.35-2.35,1.63-.47,3.17-1,4.55-1.49a26,26,0,0,0,3.55-1.66,17,17,0,0,0,2.19-1.46,4,4,0,0,0,.72-.65"/><path class="cls-11" d="M731.31,322.35a4.81,4.81,0,0,0-1.53-.41,6.33,6.33,0,0,0-3.8.46,4.69,4.69,0,0,0-1.63,1.4,8,8,0,0,0-.85,1.52,5.51,5.51,0,0,0-.5,1.5,10.79,10.79,0,0,0,.71-1.41,5.77,5.77,0,0,1,2.41-2.72,6.67,6.67,0,0,1,3.63-.53,14.79,14.79,0,0,0,1.56.19"/><path class="cls-15" d="M682.39,244.28l14.83,1.4,6,1.71a16.43,16.43,0,0,1,6.87,3.93L729.54,270l3.54-29,9.71.85-1.62,37.28a11.1,11.1,0,0,1-10.58,7.72,11.46,11.46,0,0,1-7.81-3.21l-13.83-13-.42,18.58,9.6,7.79-37,20.62s-2-7.88-1.1-25.43c.17-3.21-5.73-13-6.18-15.86-1.73-11-1.46-27.21-1.46-27.21Z"/><path class="cls-15" d="M673.27,248.79s-7.51,2.78-9.32,8.66c-1.61,5.21-7,34.53-7,34.53l-5.33,31,11.16.42,12.84-52.88Z"/><path class="cls-11" d="M672.77,283.06a3.13,3.13,0,0,0,.23-.63c.12-.42.29-1,.49-1.76.4-1.48.92-3.54,1.43-5.83s.93-4.38,1.21-5.89c.13-.76.24-1.37.3-1.8a3.21,3.21,0,0,0,.07-.66,2.07,2.07,0,0,0-.19.64c-.11.49-.25,1.08-.4,1.78l-1.3,5.86c-.51,2.24-1,4.28-1.34,5.85-.15.69-.29,1.29-.4,1.78a3.09,3.09,0,0,0-.1.66"/><path class="cls-11" d="M741.07,244.63a3.4,3.4,0,0,0,.28-1.46,3.55,3.55,0,0,0,0-1.49,3.49,3.49,0,0,0-.29,1.46,3.65,3.65,0,0,0,0,1.49"/><path class="cls-11" d="M738.23,244.72a3.82,3.82,0,0,0,.24-1.56,4,4,0,0,0-.08-1.57,3.87,3.87,0,0,0-.24,1.56,4,4,0,0,0,.08,1.57"/><path class="cls-11" d="M735.41,244.54a9.89,9.89,0,0,0,.19-3.49,4.94,4.94,0,0,0-.25,1.74,4.7,4.7,0,0,0,.06,1.75"/><path class="cls-11" d="M730,274.41a10.42,10.42,0,0,0-.1-2.56,11.48,11.48,0,0,0-.42-2.54,20.46,20.46,0,0,0,.52,5.1"/><path class="cls-11" d="M661,320.2a4.36,4.36,0,0,0-.43,1.56,4.06,4.06,0,0,0-.11,1.61,4.36,4.36,0,0,0,.43-1.56,4.06,4.06,0,0,0,.11-1.61"/><path class="cls-11" d="M657.29,320.2a3.59,3.59,0,0,0-.39,1.41,3.23,3.23,0,0,0-.08,1.46,3.52,3.52,0,0,0,.39-1.41,3.41,3.41,0,0,0,.08-1.46"/><path class="cls-11" d="M653.81,319.85a5.4,5.4,0,0,0-.36,1.59,5.23,5.23,0,0,0-.18,1.63,3.75,3.75,0,0,0,.49-1.58,3.56,3.56,0,0,0,0-1.64"/><path class="cls-11" d="M667.25,252.4c0,.06.78,0,2,.27a9.46,9.46,0,0,1,4.26,2.1,9.6,9.6,0,0,1,2.66,3.93c.41,1.17.47,1.94.53,1.94a1.82,1.82,0,0,0,0-.55,7.11,7.11,0,0,0-.31-1.46,8.91,8.91,0,0,0-7.08-6.18,6.7,6.7,0,0,0-1.49-.11,1.58,1.58,0,0,0-.54.06"/><path class="cls-11" d="M707.33,278.58c-.07,0,.28-.91.64-2.4a21,21,0,0,0-.63-11.79c-.51-1.45-1-2.3-.89-2.33a2.46,2.46,0,0,1,.36.57,12.61,12.61,0,0,1,.77,1.67,19.07,19.07,0,0,1,.64,11.94,14.82,14.82,0,0,1-.59,1.74,2.84,2.84,0,0,1-.3.6"/><path class="cls-11" d="M708.28,288.83a2.39,2.39,0,0,1-.65,0c-.41,0-1,0-1.74-.08a29.67,29.67,0,0,1-11-3.16c-.66-.34-1.18-.64-1.53-.86s-.53-.35-.52-.38.83.39,2.16,1a37.73,37.73,0,0,0,5.36,2,38.3,38.3,0,0,0,5.6,1.14c1.46.18,2.37.23,2.37.29"/><g class="cls-16"><g class="cls-21"><path d="M691.89,283.66c1.16,1,3,1.2,4.52,1.17s3.11-.34,4.67-.32a5.78,5.78,0,0,1,4.25,1.61,2.13,2.13,0,0,1,.6,1.27,1.13,1.13,0,0,1-.7,1.14,1.79,1.79,0,0,1-.89,0c-4.37-.9-9.07-1.93-12.45-4.84"/></g></g><g class="cls-16"><g class="cls-22"><path d="M677.6,285.05c1.15-.34,1.33-1.68,1.45-2.88a26.08,26.08,0,0,0-2.78-14.33c-.54,3.25-1.45,6.63-2.09,9.93Z"/></g></g><path class="cls-13" d="M675.59,271.53a2.87,2.87,0,0,0-1-.42,3.18,3.18,0,0,0-2.61.75,6,6,0,0,0-1.75,3.71c-.32,1.55-.47,3.44-1.66,5a3.87,3.87,0,0,1-2.4,1.43,19.3,19.3,0,0,1-2.55.19,5.5,5.5,0,0,0-3.78,1.55,5.91,5.91,0,0,0-1.49,2.39c-.2.64-.22,1-.26,1a1,1,0,0,1,0-.28,3.19,3.19,0,0,1,.13-.78,5.5,5.5,0,0,1,1.44-2.53,5.63,5.63,0,0,1,1.66-1.18,6.05,6.05,0,0,1,2.28-.53,21.22,21.22,0,0,0,2.5-.2,3.54,3.54,0,0,0,2.18-1.31,6.83,6.83,0,0,0,1.1-2.39c.23-.83.35-1.67.51-2.47a6.23,6.23,0,0,1,1.93-3.85,3.33,3.33,0,0,1,2.81-.68,1.92,1.92,0,0,1,.71.36,1,1,0,0,1,.2.2"/><path class="cls-13" d="M717.52,257.87a4.61,4.61,0,0,1-.93,1.43,7,7,0,0,1-4.07,2.18,6.57,6.57,0,0,1-3.22-.26,10.38,10.38,0,0,1-3.15-2,18.4,18.4,0,0,0-3.24-2.35,5.28,5.28,0,0,0-2-.55,6.18,6.18,0,0,0-2.12.27,13.91,13.91,0,0,0-3.81,2,24.1,24.1,0,0,1-3.5,2.11,9.26,9.26,0,0,1-3.63.77,10.49,10.49,0,0,1-3.19-.53,9.64,9.64,0,0,1-3.91-2.5,8.58,8.58,0,0,1-.78-1,3.62,3.62,0,0,1-.22-.38s.35.5,1.11,1.28a9.72,9.72,0,0,0,3.88,2.35,9.22,9.22,0,0,0,6.6-.3,23.87,23.87,0,0,0,3.44-2.1,14.43,14.43,0,0,1,3.9-2,6.65,6.65,0,0,1,2.25-.27,5.45,5.45,0,0,1,2.12.59,17.88,17.88,0,0,1,3.3,2.41,10.46,10.46,0,0,0,3,1.94,6.36,6.36,0,0,0,3.08.28,7,7,0,0,0,4-2,12.22,12.22,0,0,0,1-1.33"/><path class="cls-13" d="M735.8,285.85a9.36,9.36,0,0,1-.29-1.3,16.49,16.49,0,0,0-1-3.46,8.05,8.05,0,0,0-1.33-2.07,5.26,5.26,0,0,0-2.31-1.52,9.45,9.45,0,0,0-3.1-.31,12.75,12.75,0,0,1-3.45-.25,7.55,7.55,0,0,1-3-1.73,31.9,31.9,0,0,1-2.24-2.29,9.33,9.33,0,0,0-4.27-3,4.31,4.31,0,0,0-3.41.51,4,4,0,0,0-.91.94s0-.11.14-.31a2.79,2.79,0,0,1,.69-.74,4.36,4.36,0,0,1,3.55-.65,9.39,9.39,0,0,1,4.46,3.06c.7.74,1.41,1.53,2.23,2.25a7.21,7.21,0,0,0,2.87,1.64c2.22.57,4.54-.1,6.56.59a5.54,5.54,0,0,1,2.43,1.65,7.94,7.94,0,0,1,1.35,2.16,14.91,14.91,0,0,1,.91,3.54c.07.43.11.76.13,1a1.1,1.1,0,0,1,0,.34"/><path class="cls-13" d="M708.25,275.15a1.33,1.33,0,0,1-.36.05,3.94,3.94,0,0,1-1,0,12.79,12.79,0,0,1-3.61-1.3,15.33,15.33,0,0,0-2.44-.94,6.38,6.38,0,0,0-2.93-.1,12.35,12.35,0,0,0-5.85,3.4,69.54,69.54,0,0,1-5,4.82,11.24,11.24,0,0,1-5.19,2.33,10.82,10.82,0,0,1-3.84-.05,9.3,9.3,0,0,1-1-.26,1.26,1.26,0,0,1-.34-.14s.49.12,1.37.26a11.56,11.56,0,0,0,3.78-.07,11.08,11.08,0,0,0,5-2.34c1.67-1.3,3.19-3.1,5-4.82a12.64,12.64,0,0,1,6-3.47,6.7,6.7,0,0,1,3.07.14,13.5,13.5,0,0,1,2.47,1,14.11,14.11,0,0,0,3.53,1.39,13.35,13.35,0,0,0,1.38.13"/><path class="cls-13" d="M701.77,287.58c0,.11-.74.06-1.4.59s-.82,1.22-.92,1.2-.08-.2,0-.5a2,2,0,0,1,1.83-1.41c.32,0,.5.08.49.12"/><path class="cls-13" d="M707.82,284.71a4.3,4.3,0,0,1-.9,2.13,4.38,4.38,0,0,1-1.62,1.66,21.09,21.09,0,0,1,1.31-1.86c.7-1,1.11-2,1.21-1.93"/><path class="cls-13" d="M683.15,294.68c0,.1-.79-.11-1.75-.11s-1.71.19-1.74.09a2.54,2.54,0,0,1,1.75-.46,2.66,2.66,0,0,1,1.74.48"/><path class="cls-13" d="M662.89,260.41s.16.08.46.17a2.12,2.12,0,0,0,1.28-.11,3.5,3.5,0,0,0,1.49-1.23,17,17,0,0,1,1.57-2,8.4,8.4,0,0,1,4-2.2,7.15,7.15,0,0,1,1.38-.17,1.48,1.48,0,0,1,.51,0c0,.07-.72.08-1.82.38a9,9,0,0,0-3.81,2.21,20.58,20.58,0,0,0-1.57,1.91,3.54,3.54,0,0,1-1.66,1.26,2,2,0,0,1-1.41,0c-.32-.14-.43-.3-.42-.31"/><path class="cls-13" d="M700.66,246.49a2.6,2.6,0,0,1-.79.93,6.8,6.8,0,0,1-2.63,1.36,6.71,6.71,0,0,1-3,.1,2.48,2.48,0,0,1-1.15-.42,8.68,8.68,0,0,1,1.19.16,7.74,7.74,0,0,0,2.82-.2,7.54,7.54,0,0,0,2.56-1.21,11.94,11.94,0,0,1,1-.72"/><path class="cls-13" d="M669,299.12s-.3,0-.81.14a5.31,5.31,0,0,0-2,1,8,8,0,0,0-2.11,2.5c-.64,1.07-1.16,2.36-1.83,3.66a10,10,0,0,1-2.51,3.31,4.68,4.68,0,0,1-3.21,1.09,3.52,3.52,0,0,1-2.14-.79,2.4,2.4,0,0,1-.43-.46c-.08-.12-.11-.19-.1-.19s.19.23.62.54a3.61,3.61,0,0,0,2.06.64,4.46,4.46,0,0,0,3-1.1,9.71,9.71,0,0,0,2.4-3.2c.66-1.29,1.2-2.58,1.87-3.68A7.91,7.91,0,0,1,666,300a5,5,0,0,1,2.11-.9,2.88,2.88,0,0,1,.62,0c.15,0,.22,0,.22,0"/><g class="cls-23"><g class="cls-24"><path d="M729.22,269.58a6.35,6.35,0,0,0-1.27,5.53c.08.32.22.67.53.76a.68.68,0,0,0,.69-.27,1.9,1.9,0,0,0,.3-.72,11.34,11.34,0,0,0-.1-5.46"/></g></g><path class="cls-13" d="M742.44,253.27a10.33,10.33,0,0,0-1.78,2.14,16.07,16.07,0,0,0-1.28,2.74c-.41,1.07-.8,2.28-1.36,3.51a9.1,9.1,0,0,1-2.2,3.09A5.59,5.59,0,0,1,733,266a3.78,3.78,0,0,1-2.07-.27,2.16,2.16,0,0,1-.49-.29c-.11-.07-.16-.12-.15-.13s.24.13.69.29a3.89,3.89,0,0,0,2,.14,5.46,5.46,0,0,0,2.65-1.28,8.77,8.77,0,0,0,2.08-3c.56-1.19,1-2.4,1.39-3.47a15.41,15.41,0,0,1,1.37-2.76,7.48,7.48,0,0,1,1.37-1.58,2.13,2.13,0,0,1,.63-.42"/><path class="cls-13" d="M743,245.43a5,5,0,0,1-1.24,1.08,10.27,10.27,0,0,1-7.65,1.51,4.29,4.29,0,0,1-1.56-.53c0-.06.61.13,1.6.27a11.61,11.61,0,0,0,3.86-.1,11.8,11.8,0,0,0,3.61-1.37,15,15,0,0,1,1.38-.86"/><path class="cls-11" d="M748.24,319.92s-44.37-29.11-46.19-29.71-6.2-3.48-10.59-2.27-8.33,5.14-10.3,10.9S679,317.46,679,317.46s3.48,10.14,10.3,12.26a16.36,16.36,0,0,0,1.77.45,21,21,0,0,0,21.43-9.26l1-1.51s29,10.66,29.48,10.51Z"/><path class="cls-11" d="M763.37,286a8.66,8.66,0,0,1,5.45,8c0,11.66-23.55,24.51-23.55,24.51l-31.41-20.81v-2.18S754.29,281,763.37,286"/><path class="cls-12" d="M693.35,311.9a1.47,1.47,0,0,0,.24.11l.73.29,2.81,1.08,10.45,3.94c4.45,1.66,9.76,3.63,15.73,5.8s12.58,4.55,19.65,6.94l.13.05.06-.12,3.46-6.62,1.77-3.38.07-.13-.12-.08L714.48,298.3l-10.16-6.42-2.76-1.72-.73-.44a2.28,2.28,0,0,0-.25-.14l.24.17.7.46,2.73,1.78,10.12,6.49,33.78,21.57,0-.21-1.77,3.38c-1.19,2.26-2.35,4.5-3.46,6.62l.19-.08c-7.06-2.38-13.68-4.75-19.65-6.91l-15.75-5.73-10.49-3.84c-1.22-.45-2.17-.8-2.83-1l-.74-.27-.25-.08"/><path class="cls-12" d="M729.77,308.2a5,5,0,0,0,.82-.55c.51-.38,1.25-.93,2.15-1.62,1.79-1.39,4.24-3.36,6.87-5.62s4.95-4.38,6.6-6c.82-.78,1.48-1.43,1.93-1.88a8.37,8.37,0,0,0,.67-.72,4.88,4.88,0,0,0-.76.63l-2,1.8c-1.68,1.53-4,3.62-6.65,5.87s-5,4.25-6.8,5.69l-2.09,1.7a5.63,5.63,0,0,0-.74.65"/><path class="cls-12" d="M754.51,290.33a6.16,6.16,0,0,0-3,.27,6.26,6.26,0,0,0-2.69,1.41c.05.09,1.2-.64,2.78-1.1s2.94-.49,2.94-.58"/><path class="cls-12" d="M751.8,288.49A4.79,4.79,0,0,0,749,292c.09,0,.44-.94,1.23-1.91s1.66-1.52,1.61-1.6"/><path class="cls-11" d="M765.1,325.4s-.38-.11-.81.25a2.92,2.92,0,0,0-.91,1.82,3.53,3.53,0,0,0,.29,2c.22.48.46.7.49.68a6.42,6.42,0,0,0-.28-.77,4,4,0,0,1-.18-1.88,3.24,3.24,0,0,1,.74-1.7,2.07,2.07,0,0,1,.66-.41"/><path class="cls-11" d="M674.18,221.51a4.45,4.45,0,0,0-6.5.28,7.63,7.63,0,0,0-1.49,3.94,19,19,0,0,1-.83,4.18,4.28,4.28,0,0,1-3,2.81c-1.07.2-2.32-.13-3.13.58a2,2,0,0,0-.18,2.52,4.66,4.66,0,0,0,2.17,1.63c.33.15.73.36.73.73s-.6.65-1,.83a2.63,2.63,0,0,0-1,3.66,4.26,4.26,0,0,0,3.66,1.83,12.49,12.49,0,0,0,4.15-1,1.61,1.61,0,0,0,0,2.05,2.21,2.21,0,0,0,2,.74,3.51,3.51,0,0,0,2-1,7.06,7.06,0,0,0,1.91-3.84,24.33,24.33,0,0,0,.26-4.35,117,117,0,0,1,1.1-15.54"/><path class="cls-20" d="M689.18,211.48a10.75,10.75,0,0,1,10.23,10.72c0,4.44-.06,9.27-.34,12.13-.66,6.67-5.67,7.81-5.67,7.81s.16,4.14.38,8.06a7.23,7.23,0,0,1-6.85,7.36,6.85,6.85,0,0,1-7.63-6.1L678,222.71a10.73,10.73,0,0,1,11.22-11.23"/><path class="cls-11" d="M697.89,225.11a.84.84,0,0,1-.76.9.81.81,0,0,1-.92-.71.84.84,0,0,1,.76-.9.8.8,0,0,1,.92.71"/><path class="cls-11" d="M697.87,223.8c-.09.11-.76-.32-1.67-.27s-1.56.55-1.66.45,0-.25.32-.48a2.36,2.36,0,0,1,1.32-.5,2.19,2.19,0,0,1,1.34.35c.3.2.4.39.35.45"/><path class="cls-11" d="M688.41,225.61a.85.85,0,0,1-.77.9.82.82,0,0,1-.92-.71.86.86,0,0,1,.77-.91.82.82,0,0,1,.92.72"/><path class="cls-11" d="M688.39,224.69c-.1.12-.77-.32-1.68-.26s-1.55.55-1.66.44,0-.25.32-.48a2.32,2.32,0,0,1,1.32-.49,2.24,2.24,0,0,1,1.35.35c.29.19.4.39.35.44"/><path class="cls-11" d="M692.1,231.25a6.08,6.08,0,0,1,1.46-.35c.23,0,.45-.1.48-.26a1.22,1.22,0,0,0-.2-.68l-.79-1.73a30.21,30.21,0,0,1-1.82-4.54,30.27,30.27,0,0,1,2.18,4.38l.76,1.74a1.31,1.31,0,0,1,.18.91.58.58,0,0,1-.36.36,1.29,1.29,0,0,1-.4.08,5.61,5.61,0,0,1-1.49.09"/><path class="cls-25" d="M693.43,242.14a18,18,0,0,1-9-2s2.47,4.75,9.1,3.89Z"/><path class="cls-11" d="M685.38,222.16c.11.16.77-.12,1.6-.3s1.54-.23,1.57-.42-.75-.47-1.72-.24-1.56.81-1.45,1"/><path class="cls-11" d="M694.4,220.52c.05.18.8.16,1.69.17s1.65.06,1.7-.13-.69-.54-1.69-.55-1.74.33-1.7.51"/><path class="cls-11" d="M679.65,248c-.06-1.37,1.47-7.32,2.08-11s-1.78-4.24-2.15-6.39a7.38,7.38,0,0,1,.7-4.2c3.48,1.25,4.86-1.24,6.77-2.71s2.47-3.48,3.29-5.9,1.79-3.93,4.34-4.17a7.53,7.53,0,0,1,3.39,3.89c.78,2.27,1.4,11.11,1.4,11.11.36-4.24,3.79-6,2.86-12.26-.4-2.69-2.63-6.37-6.08-6.91-1-.16-2.89-.28-2.89-.28-2.06-1.85-3.06-1.79-5-2.67-4.25-1.89-9.36,1.48-12.18,5.18-2.17,2.84-3.23,6.68-3.82,10.3a30,30,0,0,0-.16,7.58,5,5,0,0,1-1.52,4.57c-2.11,1.64-2.67,4.78-1.21,9s-3.93,11.29-3.93,11.29a33.32,33.32,0,0,1,4.8-3.26,89.6,89.6,0,0,1,9.34-3.16"/><path class="cls-25" d="M691,233.43a1.35,1.35,0,0,0-1.26-.41,1.25,1.25,0,0,0-.82.52.78.78,0,0,0,0,.9.9.9,0,0,0,1,.18,2.84,2.84,0,0,0,.93-.65.75.75,0,0,0,.19-.24.24.24,0,0,0,0-.28"/><path class="cls-11" d="M689,232.27c.12,0,.18.81.93,1.34s1.61.37,1.63.49-.19.17-.56.21a2.06,2.06,0,0,1-1.35-.36,1.85,1.85,0,0,1-.73-1.13c0-.34,0-.55.08-.55"/><path class="cls-11" d="M660.2,230.41a6.22,6.22,0,0,0,.07.92,3.16,3.16,0,0,0,.35,1,2.25,2.25,0,0,0,1,1,1.9,1.9,0,0,0,1.62.08,2,2,0,0,0,1.08-1.49,7.82,7.82,0,0,0,.12-2.18c0-.77-.07-1.57-.07-2.39a9.51,9.51,0,0,1,.89-4.52,4.52,4.52,0,0,1,2.81-2.43,3.6,3.6,0,0,1,2.52.2,2.11,2.11,0,0,1,.74.57,4.58,4.58,0,0,0-.78-.49,3.62,3.62,0,0,0-2.44-.13,4.38,4.38,0,0,0-2.67,2.38,9.38,9.38,0,0,0-.85,4.42c0,.81,0,1.61.07,2.38a8.29,8.29,0,0,1-.14,2.24,2.23,2.23,0,0,1-1.21,1.61,2.06,2.06,0,0,1-1.76-.11,2.39,2.39,0,0,1-1-1,3.1,3.1,0,0,1-.32-1,2.58,2.58,0,0,1,0-.93"/><path class="cls-12" d="M669.94,244.73a1.78,1.78,0,0,1-.35-.35,2.8,2.8,0,0,1-.51-1.31,3.75,3.75,0,0,1,.38-2.18,8.43,8.43,0,0,1,1.83-2.32,15.43,15.43,0,0,0,2.4-2.59,6.11,6.11,0,0,0,.82-3.87,39.69,39.69,0,0,1-.35-4.52,6,6,0,0,1,.56-2.35,4.13,4.13,0,0,1,1.72-1.79c1.48-.85,3.14-1.07,4.5-1.82a7.31,7.31,0,0,0,2.9-3.29c.65-1.28,1.12-2.57,1.72-3.71a8,8,0,0,1,2.23-2.79,4.29,4.29,0,0,1,2.77-1,3.44,3.44,0,0,1,2.05.82,2.57,2.57,0,0,1,.8,1.16,1.71,1.71,0,0,1,.08.36c0,.08,0,.12,0,.12a3.7,3.7,0,0,0-.13-.47,2.7,2.7,0,0,0-.81-1.1,3.44,3.44,0,0,0-2-.77,4.17,4.17,0,0,0-2.67,1,8,8,0,0,0-2.16,2.75c-.59,1.13-1,2.43-1.7,3.72a7.53,7.53,0,0,1-3,3.39c-1.4.77-3.06,1-4.49,1.82a4,4,0,0,0-1.64,1.7,6,6,0,0,0-.53,2.27,43.07,43.07,0,0,0,.33,4.49,6.35,6.35,0,0,1-.86,4,15.89,15.89,0,0,1-2.45,2.61,8.35,8.35,0,0,0-1.83,2.25,3.76,3.76,0,0,0-.41,2.12,2.73,2.73,0,0,0,.78,1.67"/><path class="cls-13" d="M671.68,224.69a3.41,3.41,0,0,1,.84-4,17.19,17.19,0,0,0-.73,1.94,16.79,16.79,0,0,0-.11,2.07"/><path class="cls-11" d="M674,245.06a15.73,15.73,0,0,0,2.06,10.21,8,8,0,0,0,2.52,2.78,4.17,4.17,0,0,0,3.62.51,2.84,2.84,0,0,0,1.87-2.95c-.28-1.77-2.46-2.88-2.47-4.67.79.48,1.86.94,2.55.33a1.58,1.58,0,0,0,.27-1.74,7.08,7.08,0,0,0-1.07-1.54,9.59,9.59,0,0,1-1.93-7.31c.11-.71.3-2.91.31-3.64s-.19,0-.74-.47a2.19,2.19,0,0,0-2-.37,4.22,4.22,0,0,0-1.79,1.12,8.26,8.26,0,0,0-2.46,6.27"/></g><g class="cls-5"><path class="cls-6" d="M483.67,203.53s0-.05-.06-.15l-.23-.41a15.72,15.72,0,0,0-1-1.54,16.49,16.49,0,0,0-4.85-4.58,11.79,11.79,0,0,0-4.36-1.6,10.79,10.79,0,0,0-5.28.55,8.61,8.61,0,0,0-4.53,3.71c-1,1.81-1.37,4-2,6a10.84,10.84,0,0,1-1.27,2.86,8.41,8.41,0,0,1-2.14,2.11c-.81.6-1.66,1.14-2.43,1.76a10.41,10.41,0,0,0-2,2.14,13.14,13.14,0,0,0-2,4.92,17.73,17.73,0,0,0-.27,4.63,35.83,35.83,0,0,0,1.18,6.58c.2.77.37,1.35.49,1.75a5.24,5.24,0,0,0,.2.61,3.94,3.94,0,0,0-.13-.63c-.1-.43-.24-1-.42-1.76a38,38,0,0,1-1.06-6.57,17.2,17.2,0,0,1,.31-4.55,12.94,12.94,0,0,1,2-4.79,10,10,0,0,1,1.92-2.05c.74-.61,1.58-1.14,2.41-1.75a9,9,0,0,0,2.24-2.2,11.31,11.31,0,0,0,1.31-3c.62-2.07.95-4.17,1.94-5.91a8.31,8.31,0,0,1,4.33-3.57,10.57,10.57,0,0,1,5.13-.57,11.71,11.71,0,0,1,4.27,1.52,16.82,16.82,0,0,1,4.86,4.45c.48.63.81,1.14,1,1.48a3.52,3.52,0,0,0,.35.53"/><path class="cls-6" d="M457,211c.56-.52.83-.16,1.58,0a4.78,4.78,0,0,1,2,1,8.58,8.58,0,0,1,2.78,9,6.69,6.69,0,0,1-6.15-10.05"/><path class="cls-6" d="M480.08,200.51c.28-.71.68-.5,1.42-.7a4.76,4.76,0,0,1,2.28,0,8.6,8.6,0,0,1,6.38,6.93,6.7,6.7,0,0,1-9.88-6.43"/><path class="cls-6" d="M452,225.19a7.72,7.72,0,0,1,12.15.6,9.61,9.61,0,0,1-6.3,2.48,9.77,9.77,0,0,1-6.35-2.57"/><path class="cls-6" d="M453.85,214.59a7.81,7.81,0,0,1-7.9-9.34,7,7,0,0,1,8.16,9.27"/><path class="cls-6" d="M462,202.13A7.83,7.83,0,0,1,451.4,196a7,7,0,0,1,10.78,6"/><path class="cls-6" d="M464.68,198.06a7.83,7.83,0,0,1,10.56,6.19,7,7,0,0,1-10.78-6"/><path class="cls-6" d="M467.92,195.87a7.84,7.84,0,0,1-4.17-11.51,7,7,0,0,1,4.44,11.53"/><path class="cls-6" d="M476.23,196.27a7.83,7.83,0,0,1,6.39-10.44,7,7,0,0,1-6.24,10.66"/><polyline class="cls-11" points="442.75 252.41 438.32 224.64 472.23 225.05 468.89 252.04"/><path class="cls-15" d="M457.38,219.56A5.79,5.79,0,0,0,463,220a6.06,6.06,0,0,0,3.07-4.86,6.5,6.5,0,0,0-9.35,3.89"/><path class="cls-15" d="M472.88,225.54a5.79,5.79,0,0,0,5.63.48,6.1,6.1,0,0,0,3.08-4.86,6.51,6.51,0,0,0-9.36,3.89"/><path class="cls-15" d="M464.18,212.19a5.76,5.76,0,0,0,4.44,3.49,6.09,6.09,0,0,0,5.24-2.37,6.93,6.93,0,0,0-4.53-3.33,6.83,6.83,0,0,0-5.42,1.44"/><path class="cls-15" d="M469.84,219.11a5.78,5.78,0,0,0-5.06,2.5,6.09,6.09,0,0,0-.12,5.76,6.51,6.51,0,0,0,6-8.17"/><path class="cls-15" d="M475.3,230a5.75,5.75,0,0,0,.13,5.64,6.1,6.1,0,0,0,5.17,2.54,6.91,6.91,0,0,0-.32-5.62c-.89-1.62-2.5-2.42-4.51-2.87"/><path class="cls-15" d="M484.31,231.32a4.16,4.16,0,0,0-1.34-.85,5.79,5.79,0,0,0-1.84-.32,23.5,23.5,0,0,0-2.5.14,7.21,7.21,0,0,1-3.08-.26,4.74,4.74,0,0,1-2.55-2.46,13.91,13.91,0,0,1-1.09-3.75A10.93,10.93,0,0,0,470.6,220a13.43,13.43,0,0,0-2.87-2.91,14.17,14.17,0,0,1-2.74-2.79,9.2,9.2,0,0,1-1.36-6.38,8.92,8.92,0,0,1,1.66-4.1,7.39,7.39,0,0,1,.81-.9l.32-.27a1.76,1.76,0,0,1-.26.33,7.48,7.48,0,0,0-.75.92,9.23,9.23,0,0,0-1.53,4.06,9,9,0,0,0,1.39,6.15,13.28,13.28,0,0,0,2.7,2.7,13.69,13.69,0,0,1,2.94,3,11,11,0,0,1,1.35,4,13.76,13.76,0,0,0,1.05,3.67,4.42,4.42,0,0,0,2.34,2.32,7.27,7.27,0,0,0,3,.3,20.74,20.74,0,0,1,2.53-.1,5.84,5.84,0,0,1,1.88.4,3,3,0,0,1,1,.66,1.27,1.27,0,0,1,.21.23l.06.09"/><path class="cls-15" d="M484.31,231.32a4.16,4.16,0,0,0-1.34-.85,5.79,5.79,0,0,0-1.84-.32,23.5,23.5,0,0,0-2.5.14,7.21,7.21,0,0,1-3.08-.26,4.74,4.74,0,0,1-2.55-2.46,13.91,13.91,0,0,1-1.09-3.75A10.93,10.93,0,0,0,470.6,220a13.43,13.43,0,0,0-2.87-2.91,14.17,14.17,0,0,1-2.74-2.79,9.2,9.2,0,0,1-1.36-6.38,8.92,8.92,0,0,1,1.66-4.1,7.39,7.39,0,0,1,.81-.9l.32-.27a1.76,1.76,0,0,1-.26.33,7.48,7.48,0,0,0-.75.92,9.23,9.23,0,0,0-1.53,4.06,9,9,0,0,0,1.39,6.15,13.28,13.28,0,0,0,2.7,2.7,13.69,13.69,0,0,1,2.94,3,11,11,0,0,1,1.35,4,13.76,13.76,0,0,0,1.05,3.67,4.42,4.42,0,0,0,2.34,2.32,7.27,7.27,0,0,0,3,.3,20.74,20.74,0,0,1,2.53-.1,5.84,5.84,0,0,1,1.88.4,3,3,0,0,1,1,.66,1.27,1.27,0,0,1,.21.23l.06.09"/><path class="cls-15" d="M419.58,234.17A8.57,8.57,0,0,0,408,225.72a14.3,14.3,0,0,0,11.31,8.34"/><path class="cls-15" d="M417.34,235.35c-1.65,1.82-1.55,4.75-.36,6.91a15.48,15.48,0,0,0,5.27,5.06,11.14,11.14,0,0,0-4.79-12.63"/><path class="cls-15" d="M425.38,226.81a9.9,9.9,0,0,0,11.25,8.82,13.6,13.6,0,0,0-3.78-7.16c-2.05-1.81-5.3-2.48-7.58-1"/><path class="cls-15" d="M425.32,224.09c-.41-2.42-2.81-4.18-5.26-4.41a10.08,10.08,0,0,0-6.83,2.3,8.89,8.89,0,0,0,12.12,1.2"/><path class="cls-15" d="M412.69,244.73c-2.33,2-2.91,5.53-1.94,8.43a14,14,0,0,0,5.78,6.92,18.33,18.33,0,0,0,1.07-9,9.39,9.39,0,0,0-5.1-7.11"/><path class="cls-15" d="M425,217.29a7.15,7.15,0,0,1,11.33-.67,6.18,6.18,0,0,1-11.16.29"/><path class="cls-15" d="M427.8,210.29A9.29,9.29,0,0,1,415.94,203a21,21,0,0,1,5.6.08,9.11,9.11,0,0,1,5,2.44,4.93,4.93,0,0,1,1.3,4.75"/><path class="cls-15" d="M433.18,208.48a7.6,7.6,0,0,1-.05-11.73,16,16,0,0,1,3.33,7.09,6,6,0,0,1,0,2.93,2.69,2.69,0,0,1-2.05,1.92"/><g class="cls-18"><g class="cls-26"><path d="M419.58,234.17A8.57,8.57,0,0,0,408,225.72a14.3,14.3,0,0,0,11.31,8.34"/></g></g><g class="cls-18"><g class="cls-27"><path d="M417.34,235.35c-1.65,1.82-1.55,4.75-.36,6.91a15.48,15.48,0,0,0,5.27,5.06,11.14,11.14,0,0,0-4.79-12.63"/></g></g><g class="cls-18"><g class="cls-28"><path d="M425.38,226.81a9.9,9.9,0,0,0,11.25,8.82,13.6,13.6,0,0,0-3.78-7.16c-2.05-1.81-5.3-2.48-7.58-1"/></g></g><g class="cls-18"><g class="cls-29"><path d="M425.32,224.09c-.41-2.42-2.81-4.18-5.26-4.41a10.08,10.08,0,0,0-6.83,2.3,8.89,8.89,0,0,0,12.12,1.2"/></g></g><g class="cls-18"><g class="cls-30"><path d="M412.69,244.73c-2.33,2-2.91,5.53-1.94,8.43a14,14,0,0,0,5.78,6.92,18.33,18.33,0,0,0,1.07-9,9.39,9.39,0,0,0-5.1-7.11"/></g></g><g class="cls-18"><g class="cls-31"><path d="M425,217.29a7.15,7.15,0,0,1,11.33-.67,6.18,6.18,0,0,1-11.16.29"/></g></g><g class="cls-18"><g class="cls-32"><path d="M427.8,210.29A9.29,9.29,0,0,1,415.94,203a21,21,0,0,1,5.6.08,9.11,9.11,0,0,1,5,2.44,4.93,4.93,0,0,1,1.3,4.75"/></g></g><g class="cls-18"><g class="cls-33"><path d="M433.18,208.48a7.6,7.6,0,0,1-.05-11.73,16,16,0,0,1,3.33,7.09,6,6,0,0,1,0,2.93,2.69,2.69,0,0,1-2.05,1.92"/></g></g><path class="cls-15" d="M442.48,225.53s0-.07,0-.19,0-.33,0-.56c0-.49.08-1.21.1-2.15a19.29,19.29,0,0,0-1.26-7.7,11.87,11.87,0,0,0-3.1-4.36,8.25,8.25,0,0,0-5.64-2.07,7,7,0,0,0-3.18.79,6.3,6.3,0,0,0-2.46,2.35,12.6,12.6,0,0,0-1.42,7.08,51.93,51.93,0,0,1,.16,7.46,11.5,11.5,0,0,1-.92,3.45,7.29,7.29,0,0,1-2.09,2.74,10.48,10.48,0,0,1-2.9,1.48,15,15,0,0,0-2.74,1.24,10,10,0,0,0-3.6,3.92,9.63,9.63,0,0,0-1,4.29,9.93,9.93,0,0,0,.55,3.31,12,12,0,0,0,1.28,2.58.83.83,0,0,1-.13-.15c-.07-.1-.19-.24-.32-.45a8.7,8.7,0,0,1-1-1.93,10,10,0,0,1-.61-3.36,9.51,9.51,0,0,1,1-4.4,10.09,10.09,0,0,1,3.67-4.06c1.67-1.12,3.89-1.4,5.59-2.74a8.76,8.76,0,0,0,2.87-6,51.59,51.59,0,0,0-.18-7.41,12.91,12.91,0,0,1,1.48-7.28,6.73,6.73,0,0,1,2.61-2.47,7.35,7.35,0,0,1,3.33-.82,8.57,8.57,0,0,1,5.85,2.18,12,12,0,0,1,3.14,4.49,15.83,15.83,0,0,1,1.06,4.4,24.29,24.29,0,0,1,.1,3.41c0,.93-.11,1.66-.16,2.15,0,.22,0,.4-.07.55s0,.19,0,.19"/><g class="cls-18"><g class="cls-34"><path d="M442.48,225.53s0-.07,0-.19,0-.33,0-.56c0-.49.08-1.21.1-2.15a19.29,19.29,0,0,0-1.26-7.7,11.87,11.87,0,0,0-3.1-4.36,8.25,8.25,0,0,0-5.64-2.07,7,7,0,0,0-3.18.79,6.3,6.3,0,0,0-2.46,2.35,12.6,12.6,0,0,0-1.42,7.08,51.93,51.93,0,0,1,.16,7.46,11.5,11.5,0,0,1-.92,3.45,7.29,7.29,0,0,1-2.09,2.74,10.48,10.48,0,0,1-2.9,1.48,15,15,0,0,0-2.74,1.24,10,10,0,0,0-3.6,3.92,9.63,9.63,0,0,0-1,4.29,9.93,9.93,0,0,0,.55,3.31,12,12,0,0,0,1.28,2.58.83.83,0,0,1-.13-.15c-.07-.1-.19-.24-.32-.45a8.7,8.7,0,0,1-1-1.93,10,10,0,0,1-.61-3.36,9.51,9.51,0,0,1,1-4.4,10.09,10.09,0,0,1,3.67-4.06c1.67-1.12,3.89-1.4,5.59-2.74a8.76,8.76,0,0,0,2.87-6,51.59,51.59,0,0,0-.18-7.41,12.91,12.91,0,0,1,1.48-7.28,6.73,6.73,0,0,1,2.61-2.47,7.35,7.35,0,0,1,3.33-.82,8.57,8.57,0,0,1,5.85,2.18,12,12,0,0,1,3.14,4.49,15.83,15.83,0,0,1,1.06,4.4,24.29,24.29,0,0,1,.1,3.41c0,.93-.11,1.66-.16,2.15,0,.22,0,.4-.07.55s0,.19,0,.19"/></g></g><path class="cls-15" d="M491.85,219.47a7.24,7.24,0,0,0,.51-2.49,6.32,6.32,0,0,0-.66-2.86,6,6,0,0,0-2.77-2.67,5.77,5.77,0,0,0-2.18-.59,7.17,7.17,0,0,0-2.44.28c-1.66.44-3.3,1.38-5.27,1.78a6.32,6.32,0,0,1-3.05-.08,4.61,4.61,0,0,1-2.49-2c-1.18-1.84-1.52-4.14-2.95-5.83a5.79,5.79,0,0,0-2.68-1.75,7.41,7.41,0,0,0-3.13-.32,8,8,0,0,0-5.2,2.71,12.18,12.18,0,0,0-2.58,4.78,14.26,14.26,0,0,0-.58,4.73,50.91,50.91,0,0,0,.88,6.93c.14.79.24,1.42.32,1.88,0,.19.06.35.07.49a1,1,0,0,1,0,.17s0-.06-.05-.17-.07-.29-.11-.48q-.15-.69-.39-1.86a47.35,47.35,0,0,1-1-6.95,14.57,14.57,0,0,1,.54-4.83,12.51,12.51,0,0,1,2.63-4.92,9.06,9.06,0,0,1,2.38-1.9,8.15,8.15,0,0,1,6.32-.61,6.16,6.16,0,0,1,2.84,1.86c1.51,1.81,1.84,4.13,3,5.88a4.28,4.28,0,0,0,2.29,1.85,5.9,5.9,0,0,0,2.89.07c1.89-.36,3.55-1.29,5.26-1.73a7.35,7.35,0,0,1,2.53-.28,6.36,6.36,0,0,1,2.27.64,6.19,6.19,0,0,1,2.84,2.82,6.28,6.28,0,0,1,.62,3,6,6,0,0,1-.37,1.88,3,3,0,0,1-.28.6"/><path class="cls-15" d="M472,207.17a6.62,6.62,0,0,0,6.05.39,6.09,6.09,0,0,0,3.07-4.86,6.5,6.5,0,0,0-9.35,3.89"/><path class="cls-15" d="M478.45,213a6.57,6.57,0,0,0,2.8,5.37,6.12,6.12,0,0,0,5.76.09,6.51,6.51,0,0,0-8.19-6"/><path class="cls-15" d="M489.6,211.7a6.56,6.56,0,0,0,6-.25,6.1,6.1,0,0,0,2.55-5.16,6.5,6.5,0,0,0-8.89,4.87"/><path class="cls-15" d="M462.65,203.3a6.9,6.9,0,0,1-2.4-5.7,6.08,6.08,0,0,1,3.74-4.38,6.9,6.9,0,0,1,1.93,5.28,6.8,6.8,0,0,1-2.89,4.8"/><path class="cls-15" d="M419.11,195.32l.07-.15.22-.41c.21-.37.53-.89,1-1.54a16.37,16.37,0,0,1,4.85-4.58,11.74,11.74,0,0,1,4.35-1.6,10.72,10.72,0,0,1,5.29.55,8.55,8.55,0,0,1,4.52,3.71c1,1.81,1.38,3.94,2,6a10.94,10.94,0,0,0,1.26,2.85,8.49,8.49,0,0,0,2.15,2.12c.81.6,1.65,1.14,2.42,1.76a10.46,10.46,0,0,1,2,2.14,13.14,13.14,0,0,1,2,4.92,17.71,17.71,0,0,1,.27,4.63,34.86,34.86,0,0,1-1.19,6.58c-.2.77-.37,1.35-.48,1.75a5.24,5.24,0,0,1-.2.61,4.51,4.51,0,0,1,.12-.63c.11-.43.25-1,.42-1.76a38,38,0,0,0,1.07-6.57,18.06,18.06,0,0,0-.31-4.55,13,13,0,0,0-2-4.79,9.72,9.72,0,0,0-1.91-2.05c-.75-.61-1.59-1.14-2.41-1.75a8.83,8.83,0,0,1-2.24-2.2,11,11,0,0,1-1.31-3c-.62-2.07-1-4.17-2-5.91a8.24,8.24,0,0,0-4.33-3.57,10.56,10.56,0,0,0-5.13-.57,11.59,11.59,0,0,0-4.26,1.52,16.88,16.88,0,0,0-4.87,4.45c-.47.63-.81,1.14-1,1.48a3.66,3.66,0,0,1-.36.53"/><path class="cls-15" d="M445.75,202.79c-.56-.52-.83-.16-1.59,0a4.69,4.69,0,0,0-2,1,8.56,8.56,0,0,0-2.78,9,6.69,6.69,0,0,0,6.14-10.05"/><path class="cls-15" d="M422.71,192.3c-.28-.71-.69-.5-1.43-.7a4.72,4.72,0,0,0-2.27,0,8.57,8.57,0,0,0-6.38,6.93,6.69,6.69,0,0,0,9.87-6.43"/><path class="cls-15" d="M450.82,217a7.72,7.72,0,0,0-12.14.59,9.55,9.55,0,0,0,6.3,2.49,9.74,9.74,0,0,0,6.34-2.57"/><path class="cls-15" d="M448.93,206.38a7.81,7.81,0,0,0,7.91-9.34,7,7,0,0,0-8.17,9.27"/><path class="cls-15" d="M440.82,193.92a7.84,7.84,0,0,0,10.57-6.18,7,7,0,0,0-10.79,6"/><path class="cls-15" d="M438.1,189.85A7.83,7.83,0,0,0,427.54,196a7,7,0,0,0,10.78-6"/><path class="cls-15" d="M434.86,187.66A7.82,7.82,0,0,0,439,176.15a7,7,0,0,0-4.44,11.53"/><path class="cls-15" d="M426.56,188.06a7.83,7.83,0,0,0-6.39-10.44,7,7,0,0,0,6.23,10.66"/><polygon class="cls-11" points="437.89 249.19 440.49 252.41 472.4 252.41 474.57 249.19 437.89 249.19"/><path class="cls-12" d="M473.87,249.16c0,.1-7.84.18-17.51.18s-17.52-.08-17.52-.18,7.84-.18,17.52-.18,17.51.08,17.51.18"/><path class="cls-12" d="M470.28,237s-.06.1-.2.27a7.19,7.19,0,0,1-.65.68,12.12,12.12,0,0,1-2.85,2,12.42,12.42,0,0,1-5,1.27,11.82,11.82,0,0,1-3-.25,18.57,18.57,0,0,1-3.11-1c-2.06-.88-3.93-1.87-5.75-2.45a9.89,9.89,0,0,0-5-.48,6.47,6.47,0,0,0-3.05,1.41c-.6.53-.84.93-.87.91a1.25,1.25,0,0,1,.16-.29,4.47,4.47,0,0,1,.61-.72,6.35,6.35,0,0,1,3.09-1.57,10.06,10.06,0,0,1,5.12.41c1.87.58,3.76,1.58,5.79,2.44a18.41,18.41,0,0,0,3,1,12.13,12.13,0,0,0,3,.27,12.69,12.69,0,0,0,4.88-1.18,15.07,15.07,0,0,0,3.81-2.69"/><path class="cls-12" d="M470.6,234.55s-.07.1-.22.25a8.73,8.73,0,0,1-.7.64,13.28,13.28,0,0,1-2.95,1.83,14.13,14.13,0,0,1-5,1.2,13.35,13.35,0,0,1-3-.21,20,20,0,0,1-3.16-.89c-2.1-.77-4-1.64-5.88-2.16a11.64,11.64,0,0,0-5-.45,7.6,7.6,0,0,0-3.16,1.2c-.66.47-.95.82-1,.8s.06-.1.2-.27a4.74,4.74,0,0,1,.7-.64,7.28,7.28,0,0,1,3.2-1.35,11.64,11.64,0,0,1,5.14.38c1.88.51,3.83,1.39,5.92,2.14a20.61,20.61,0,0,0,3.09.89,13.77,13.77,0,0,0,7.91-.88,17.19,17.19,0,0,0,4-2.48"/></g><rect class="cls-15" x="396.29" y="282.08" width="67.87" height="45.43"/><g class="cls-5"><g class="cls-18"><g class="cls-35"><rect x="396.29" y="282.08" width="67.87" height="45.43"/></g></g></g><rect class="cls-15" x="450.39" y="282.14" width="5.39" height="9.21"/><rect class="cls-15" x="449.8" y="318.3" width="5.39" height="9.21"/><g class="cls-5"><path class="cls-11" d="M415.71,327.41c-.1,0-.18-10.18-.18-22.74s.08-22.74.18-22.74.19,10.18.19,22.74-.08,22.74-.19,22.74"/><path class="cls-11" d="M439.78,306.82c0,.1-9.79.18-21.85.18s-21.85-.08-21.85-.18,9.78-.18,21.85-.18,21.85.08,21.85.18"/><path class="cls-11" d="M416.79,282a12.24,12.24,0,0,1,1.58-1.17,17.28,17.28,0,0,1,5.08-2.23,17.05,17.05,0,0,1,3.94-.57,3.19,3.19,0,0,1,1.14.08,1,1,0,0,1,.74.95,1.5,1.5,0,0,1-.47,1.16,3.25,3.25,0,0,1-1.11.64,21.44,21.44,0,0,1-11.17,1.09l-.14,0v-.14a26.66,26.66,0,0,1,3.27-10.59,4.65,4.65,0,0,1,1.34-1.53,2.5,2.5,0,0,1,2.06-.38,2.14,2.14,0,0,1,1.41,1.59,3.56,3.56,0,0,1-.22,2.14,18,18,0,0,1-2.23,3.64,23.67,23.67,0,0,1-6.51,5.87l-.07,0-.07,0-.78-.2-.79-.26a13.7,13.7,0,0,1-5.69-4,13,13,0,0,1-1.85-2.88,3.24,3.24,0,0,1-.44-1.7.91.91,0,0,1,.57-.78,1.34,1.34,0,0,1,.93,0,13.77,13.77,0,0,1,7.84,9.39l-.32.1a37,37,0,0,1-2.71-14,4.08,4.08,0,0,1,.29-1.59,1.76,1.76,0,0,1,.48-.67,1.34,1.34,0,0,1,.78-.27,1.57,1.57,0,0,1,1.28.84,4.27,4.27,0,0,1,.55,1.35,39.38,39.38,0,0,1,.49,12.26c-.1.82-.2,1.46-.27,1.88q-.06.3-.09.48l0,.16s0-.05,0-.16,0-.28.06-.49c.06-.42.15-1.06.23-1.89A42.3,42.3,0,0,0,416,273a39,39,0,0,0-.7-5,3.89,3.89,0,0,0-.53-1.26,1.32,1.32,0,0,0-1.06-.72,1.14,1.14,0,0,0-1,.78,3.86,3.86,0,0,0-.25,1.49,36.75,36.75,0,0,0,2.74,13.83l-.32.1a13.43,13.43,0,0,0-7.63-9.12,1,1,0,0,0-.68-.05.55.55,0,0,0-.34.5,2.92,2.92,0,0,0,.41,1.49,12.66,12.66,0,0,0,1.8,2.81,13.36,13.36,0,0,0,5.54,3.9l.77.26.75.19-.14,0a23.5,23.5,0,0,0,6.43-5.78,18.53,18.53,0,0,0,2.18-3.55,3.06,3.06,0,0,0,.2-1.92,1.8,1.8,0,0,0-1.16-1.35,2.16,2.16,0,0,0-1.77.34,4.36,4.36,0,0,0-1.24,1.42,25.66,25.66,0,0,0-1.62,3.45,27,27,0,0,0-1.63,7l-.13-.17a21.28,21.28,0,0,0,11-1,3.13,3.13,0,0,0,1-.58,1.25,1.25,0,0,0,.41-1,.8.8,0,0,0-.58-.74,3.16,3.16,0,0,0-1.06-.09,17.6,17.6,0,0,0-3.91.53,18.07,18.07,0,0,0-5.08,2.14c-.54.33-.94.61-1.21.81s-.41.28-.41.28"/><rect class="cls-15" x="439.64" y="252.61" width="111.97" height="74.94"/><g class="cls-16"><g class="cls-36"><rect x="512.68" y="252.61" width="38.93" height="74.94"/></g></g><rect class="cls-15" x="528.9" y="252.71" width="8.89" height="15.2"/><rect class="cls-15" x="527.93" y="312.36" width="8.89" height="15.2"/><path class="cls-11" d="M471.69,327.4c-.1,0-.19-16.8-.19-37.52s.09-37.51.19-37.51.18,16.79.18,37.51-.08,37.52-.18,37.52"/></g><g class="cls-37"><path class="cls-15" d="M499.26,154.18l11.89-8.65,15.46,18.31a7.83,7.83,0,0,1,1.59,7L523,190.66a6.62,6.62,0,0,1-13-2.53l2.29-17.84Z"/><path class="cls-13" d="M510.67,169.26a3.51,3.51,0,0,1-.31-.68,17.65,17.65,0,0,1-.67-1.93,23.77,23.77,0,0,1,0-13.34,18.75,18.75,0,0,1,.68-1.93,6.22,6.22,0,0,1,.31-.68,6.18,6.18,0,0,1-.23.71c-.17.45-.38,1.12-.61,1.94A26.3,26.3,0,0,0,509,160a25.32,25.32,0,0,0,.88,6.62c.22.83.43,1.5.6,2a6.18,6.18,0,0,1,.23.71"/><path class="cls-13" d="M510.93,160.65a10.31,10.31,0,0,0-1.19,2.79,10.05,10.05,0,0,0-.1,3,2.42,2.42,0,0,1-.22-.88,6.28,6.28,0,0,1,.1-2.2,6.36,6.36,0,0,1,.84-2,2.31,2.31,0,0,1,.57-.71"/><path class="cls-13" d="M507,156.71a2.27,2.27,0,0,1,.55.6,7,7,0,0,1,1.31,3.7,2.51,2.51,0,0,1-.05.82,14,14,0,0,0-.54-2.69,14.2,14.2,0,0,0-1.27-2.43"/><path class="cls-13" d="M511.21,154.51a9.26,9.26,0,0,0-1.46,1.84,9.89,9.89,0,0,0-.78,2.22,4.06,4.06,0,0,1,.59-2.33,3.89,3.89,0,0,1,1.65-1.73"/><path class="cls-13" d="M509.36,150.93a3.72,3.72,0,0,1,.37,1.86,3.62,3.62,0,0,1-.44,1.85c-.06,0,.21-.83.22-1.85s-.22-1.84-.15-1.86"/><path class="cls-13" d="M523.62,194.42a6.22,6.22,0,0,1-.31-.68c-.19-.45-.42-1.11-.67-1.93a24.19,24.19,0,0,1-.94-6.67,23.62,23.62,0,0,1,1-6.67,16.61,16.61,0,0,1,.68-1.93,3.16,3.16,0,0,1,.31-.68,6.18,6.18,0,0,1-.23.71c-.17.45-.38,1.11-.61,1.94a25.41,25.41,0,0,0-.89,6.63,25.8,25.8,0,0,0,.87,6.62c.23.83.44,1.5.61,2a4.45,4.45,0,0,1,.22.71"/><path class="cls-13" d="M523.89,185.81a10.14,10.14,0,0,0-1.2,2.79,9.85,9.85,0,0,0-.09,3,2.28,2.28,0,0,1-.23-.88,6.57,6.57,0,0,1,.11-2.2,6.5,6.5,0,0,1,.83-2,2.42,2.42,0,0,1,.58-.71"/><path class="cls-13" d="M519.92,181.87s.25.19.55.6a7.12,7.12,0,0,1,.92,1.76,6.77,6.77,0,0,1,.39,1.94,2.51,2.51,0,0,1,0,.82,14.54,14.54,0,0,0-.55-2.69,14.13,14.13,0,0,0-1.26-2.43"/><path class="cls-13" d="M524.16,179.66a10.64,10.64,0,0,0-1.45,1.85,9.89,9.89,0,0,0-.78,2.22,4.71,4.71,0,0,1,2.23-4.07"/><path class="cls-13" d="M522.31,176.09a3.54,3.54,0,0,1,.38,1.86,3.74,3.74,0,0,1-.44,1.85c-.07,0,.2-.83.22-1.85s-.22-1.84-.16-1.86"/><path class="cls-13" d="M517.56,184.35a7.26,7.26,0,0,1-.31-.69,19.15,19.15,0,0,1-.67-1.93,24.05,24.05,0,0,1-.94-6.66,23.62,23.62,0,0,1,1-6.67,16.61,16.61,0,0,1,.68-1.93,3.16,3.16,0,0,1,.31-.68,6.18,6.18,0,0,1-.23.71c-.17.45-.38,1.11-.61,1.94a25.29,25.29,0,0,0-.89,6.63,25.8,25.8,0,0,0,.87,6.62c.23.83.44,1.49.6,1.94a4.26,4.26,0,0,1,.23.72"/><path class="cls-13" d="M517.83,175.74a10.14,10.14,0,0,0-1.2,2.79,9.85,9.85,0,0,0-.09,3,2.28,2.28,0,0,1-.23-.88,6.56,6.56,0,0,1,.11-2.2,6.68,6.68,0,0,1,.83-2,2.45,2.45,0,0,1,.58-.7"/><path class="cls-13" d="M513.86,171.8s.25.19.55.6a6.94,6.94,0,0,1,.92,1.76,6.77,6.77,0,0,1,.39,1.94,2.51,2.51,0,0,1-.05.82,14.54,14.54,0,0,0-.55-2.69,13.35,13.35,0,0,0-1.26-2.43"/><path class="cls-13" d="M518.1,169.59a10.32,10.32,0,0,0-1.45,1.84,10.07,10.07,0,0,0-.78,2.22,4.07,4.07,0,0,1,.58-2.32,4.15,4.15,0,0,1,1.65-1.74"/><path class="cls-13" d="M504.7,161.41a3.16,3.16,0,0,1-.31-.68,16.92,16.92,0,0,1-.67-1.93,23.66,23.66,0,0,1-1-6.67,24.11,24.11,0,0,1,1-6.67c.25-.82.49-1.48.68-1.93a5.2,5.2,0,0,1,.31-.68,5.52,5.52,0,0,1-.23.71c-.17.45-.38,1.12-.61,1.95a25.24,25.24,0,0,0,0,13.25c.22.83.43,1.49.6,1.94a6.18,6.18,0,0,1,.23.71"/><path class="cls-13" d="M505,152.8a10.14,10.14,0,0,0-1.2,2.79,9.92,9.92,0,0,0-.09,3,2.61,2.61,0,0,1-.22-.89,6.28,6.28,0,0,1,.1-2.2,6.36,6.36,0,0,1,.84-2,2.49,2.49,0,0,1,.57-.71"/><path class="cls-13" d="M501,148.86a2.23,2.23,0,0,1,.55.61,6.56,6.56,0,0,1,.92,1.75,6.89,6.89,0,0,1,.39,1.95,2.47,2.47,0,0,1-.05.81,9.79,9.79,0,0,0-1.81-5.12"/><path class="cls-13" d="M505.24,146.66a9.26,9.26,0,0,0-1.46,1.84,9.89,9.89,0,0,0-.78,2.22,4.09,4.09,0,0,1,.58-2.33,4,4,0,0,1,1.66-1.73"/><path class="cls-13" d="M515.41,149.5a6,6,0,0,1,.45.6,19.69,19.69,0,0,1,1.07,1.74,23.71,23.71,0,0,1,2.85,13,17.67,17.67,0,0,1-.25,2,4.65,4.65,0,0,1-.15.73,4.08,4.08,0,0,1,.07-.74c.06-.48.13-1.17.17-2a25.61,25.61,0,0,0-.55-6.66,25.33,25.33,0,0,0-2.28-6.28c-.4-.76-.74-1.37-1-1.77a4.67,4.67,0,0,1-.38-.65"/><path class="cls-13" d="M517,158a10.2,10.2,0,0,0,.57-3,10,10,0,0,0-.56-3,2.29,2.29,0,0,1,.41.82,6.33,6.33,0,0,1,.37,2.17,6.25,6.25,0,0,1-.38,2.16,2.5,2.5,0,0,1-.41.82"/><path class="cls-13" d="M521.73,161s-.29-.13-.67-.47a6.43,6.43,0,0,1-1.28-1.52,6.86,6.86,0,0,1-.79-1.81,2.52,2.52,0,0,1-.13-.81,14.26,14.26,0,0,0,1.11,2.51,12.55,12.55,0,0,0,1.76,2.1"/><path class="cls-13" d="M518.05,164a9.45,9.45,0,0,0,1-2.12,9.64,9.64,0,0,0,.28-2.33,4,4,0,0,1-.07,2.4,4.06,4.06,0,0,1-1.24,2.05"/><path class="cls-13" d="M520.63,167.12a3.5,3.5,0,0,1-.77-1.74,3.54,3.54,0,0,1,0-1.89c.07,0,0,.85.18,1.85s.61,1.75.55,1.78"/><path class="cls-13" d="M523.21,163.84a7.34,7.34,0,0,1,.45.61,18.29,18.29,0,0,1,1.07,1.74,24.22,24.22,0,0,1,2.35,6.31,23.69,23.69,0,0,1,.49,6.72,18.38,18.38,0,0,1-.24,2,4.48,4.48,0,0,1-.16.73,5.79,5.79,0,0,1,.07-.75c.07-.47.13-1.17.18-2a25.21,25.21,0,0,0-2.83-13c-.4-.76-.75-1.36-1-1.77a3.9,3.9,0,0,1-.37-.65"/><path class="cls-13" d="M524.8,172.31a10,10,0,0,0,.57-3,10.3,10.3,0,0,0-.56-3,2.61,2.61,0,0,1,.41.81,6.63,6.63,0,0,1,.37,2.17,6.56,6.56,0,0,1-.38,2.17,2.61,2.61,0,0,1-.41.81"/><path class="cls-13" d="M529.52,175.31a2.39,2.39,0,0,1-.67-.47,7.14,7.14,0,0,1-1.27-1.52,7,7,0,0,1-.8-1.82,2,2,0,0,1-.12-.81,13.13,13.13,0,0,0,1.1,2.51,14.18,14.18,0,0,0,1.76,2.11"/><path class="cls-13" d="M525.85,178.37a7,7,0,0,0,1.31-4.44,4,4,0,0,1-.07,2.39,3.94,3.94,0,0,1-1.24,2.05"/><path class="cls-13" d="M528.42,181.47a3.66,3.66,0,0,1-.76-1.74,3.55,3.55,0,0,1,0-1.9c.07,0,0,.85.19,1.86s.6,1.74.54,1.78"/><path class="cls-13" d="M505.4,174.71a5.45,5.45,0,0,1,.61.44,19.63,19.63,0,0,1,1.55,1.34,23.83,23.83,0,0,1,6.63,11.57,18.84,18.84,0,0,1,.37,2,4.15,4.15,0,0,1,.07.75,5.5,5.5,0,0,1-.15-.73c-.08-.48-.23-1.16-.45-2a25.46,25.46,0,0,0-2.52-6.19,25.87,25.87,0,0,0-4.06-5.31c-.61-.6-1.12-1.07-1.49-1.38a7.41,7.41,0,0,1-.56-.51"/><path class="cls-13" d="M509.46,182.31a9.84,9.84,0,0,0-.35-3,10,10,0,0,0-1.43-2.68,2.52,2.52,0,0,1,.64.65,6.59,6.59,0,0,1,1,2,6.38,6.38,0,0,1,.29,2.18,2.29,2.29,0,0,1-.15.9"/><path class="cls-13" d="M514.87,183.75a2,2,0,0,1-.78-.25,6.83,6.83,0,0,1-3-2.56,2.17,2.17,0,0,1-.37-.73,13.69,13.69,0,0,0,1.81,2.06,13.51,13.51,0,0,0,2.31,1.48"/><path class="cls-13" d="M512.29,187.78a10,10,0,0,0,.34-2.33,9.34,9.34,0,0,0-.43-2.31,4,4,0,0,1,.65,2.31,4,4,0,0,1-.56,2.33"/><path class="cls-13" d="M515.67,190a3.5,3.5,0,0,1-1.25-1.42,3.62,3.62,0,0,1-.54-1.82c.07,0,.24.82.74,1.71s1.1,1.48,1,1.53"/><path class="cls-13" d="M522.35,195.43a7.94,7.94,0,0,0-12.89-6l1.47,5,6.41,3.13Z"/><path class="cls-13" d="M530.9,176.47a7.83,7.83,0,0,1-4.48-13.87l6.59,4.2Z"/></g><g class="cls-5"><g class="cls-18"><g class="cls-38"><path d="M499.26,154.18l11.89-8.65,15.46,18.31a7.83,7.83,0,0,1,1.59,7L523,190.66a6.62,6.62,0,0,1-13-2.53l2.29-17.84Z"/></g></g></g><g class="cls-39"><path class="cls-15" d="M505.4,147.85l11.89-8.65,15.46,18.31a7.83,7.83,0,0,1,1.59,7.05l-5.2,19.78a6.63,6.63,0,0,1-13-2.54L518.45,164Z"/><path class="cls-13" d="M516.81,162.93a3.92,3.92,0,0,1-.31-.68,16.92,16.92,0,0,1-.67-1.93,23.65,23.65,0,0,1,0-13.34,17.65,17.65,0,0,1,.67-1.93,6.22,6.22,0,0,1,.31-.68,4,4,0,0,1-.23.71c-.16.45-.38,1.12-.6,1.94a25.8,25.8,0,0,0-.9,6.63,25.46,25.46,0,0,0,.88,6.63c.22.82.43,1.49.6,1.94a6.18,6.18,0,0,1,.23.71"/><path class="cls-13" d="M517.07,154.32a10.31,10.31,0,0,0-1.19,2.79,10.45,10.45,0,0,0-.1,3,2.7,2.7,0,0,1-.22-.88,6.53,6.53,0,0,1,.1-2.2,6.36,6.36,0,0,1,.84-2,2.71,2.71,0,0,1,.57-.71"/><path class="cls-13" d="M513.1,150.38a2.16,2.16,0,0,1,.56.61,6.86,6.86,0,0,1,.92,1.75,7.21,7.21,0,0,1,.38,1.94,2.21,2.21,0,0,1-.05.82,14.3,14.3,0,0,0-.54-2.69,13.41,13.41,0,0,0-1.27-2.43"/><path class="cls-13" d="M517.35,148.18a9.69,9.69,0,0,0-1.46,1.84,9.89,9.89,0,0,0-.78,2.22,4.06,4.06,0,0,1,.59-2.33,4,4,0,0,1,1.65-1.73"/><path class="cls-13" d="M515.5,144.6a3.59,3.59,0,0,1,.37,1.86,3.51,3.51,0,0,1-.44,1.85c-.06,0,.21-.82.22-1.85s-.22-1.84-.15-1.86"/><path class="cls-13" d="M529.77,188.09a3.51,3.51,0,0,1-.31-.68,16.92,16.92,0,0,1-.67-1.93,23.77,23.77,0,0,1,0-13.34,18.75,18.75,0,0,1,.68-1.93,6.22,6.22,0,0,1,.31-.68,6.18,6.18,0,0,1-.23.71c-.17.45-.38,1.12-.61,1.94a25.85,25.85,0,0,0-.89,6.63,25.32,25.32,0,0,0,.88,6.62c.22.83.43,1.5.6,1.95a6.18,6.18,0,0,1,.23.71"/><path class="cls-13" d="M530,179.48a8.11,8.11,0,0,0-1.29,5.82,2.42,2.42,0,0,1-.22-.88,6.28,6.28,0,0,1,.1-2.2,6.36,6.36,0,0,1,.84-2,2.49,2.49,0,0,1,.57-.71"/><path class="cls-13" d="M526.06,175.54a2.27,2.27,0,0,1,.55.6,7,7,0,0,1,1.31,3.7,2.51,2.51,0,0,1,0,.82,9.71,9.71,0,0,0-1.81-5.12"/><path class="cls-13" d="M530.31,173.34a9.26,9.26,0,0,0-1.46,1.84,9.89,9.89,0,0,0-.78,2.22,4.09,4.09,0,0,1,.58-2.33,3.94,3.94,0,0,1,1.66-1.73"/><path class="cls-13" d="M528.45,169.76a3.54,3.54,0,0,1,.38,1.86,3.62,3.62,0,0,1-.44,1.85c-.07,0,.2-.83.22-1.85s-.22-1.84-.16-1.86"/><path class="cls-13" d="M523.71,178a3.51,3.51,0,0,1-.31-.68,18,18,0,0,1-.67-1.94,23.64,23.64,0,0,1-1-6.66,24,24,0,0,1,1-6.67,18.75,18.75,0,0,1,.68-1.93,5.21,5.21,0,0,1,.31-.68,6.18,6.18,0,0,1-.23.71c-.17.45-.38,1.11-.61,1.94a25.78,25.78,0,0,0-.89,6.63,25.32,25.32,0,0,0,.88,6.62c.22.83.43,1.5.6,1.95a5.52,5.52,0,0,1,.23.71"/><path class="cls-13" d="M524,169.41a8.11,8.11,0,0,0-1.29,5.82,2.42,2.42,0,0,1-.22-.88,6.28,6.28,0,0,1,.1-2.2,6.42,6.42,0,0,1,.84-2,2.34,2.34,0,0,1,.57-.7"/><path class="cls-13" d="M520,165.47s.25.19.55.6a6.64,6.64,0,0,1,.92,1.76,6.77,6.77,0,0,1,.39,1.94,2.51,2.51,0,0,1-.05.82,14,14,0,0,0-.54-2.69,13.74,13.74,0,0,0-1.27-2.43"/><path class="cls-13" d="M524.25,163.26a7.16,7.16,0,0,0-2.24,4.07,4.69,4.69,0,0,1,2.24-4.07"/><path class="cls-13" d="M510.84,155.09a3.86,3.86,0,0,1-.31-.69,16.92,16.92,0,0,1-.67-1.93,23.66,23.66,0,0,1-.95-6.67,23.93,23.93,0,0,1,1-6.66,16.92,16.92,0,0,1,.67-1.93,7.26,7.26,0,0,1,.31-.69,4.26,4.26,0,0,1-.23.72c-.17.45-.38,1.11-.6,1.94a25.1,25.1,0,0,0,0,13.25c.22.83.43,1.49.6,1.94a5.89,5.89,0,0,1,.23.72"/><path class="cls-13" d="M511.1,146.47a10.5,10.5,0,0,0-1.19,2.79,10.11,10.11,0,0,0-.1,3,2.61,2.61,0,0,1-.22-.89,6.54,6.54,0,0,1,.1-2.2,6.36,6.36,0,0,1,.84-2,2.7,2.7,0,0,1,.57-.71"/><path class="cls-13" d="M507.13,142.53a2.59,2.59,0,0,1,.56.61,7,7,0,0,1,.92,1.75,7.2,7.2,0,0,1,.38,2,2.25,2.25,0,0,1-.05.82,14,14,0,0,0-.54-2.69,13.74,13.74,0,0,0-1.27-2.44"/><path class="cls-13" d="M511.38,140.33a9.69,9.69,0,0,0-1.46,1.84,9.89,9.89,0,0,0-.78,2.22,4.75,4.75,0,0,1,2.24-4.06"/><path class="cls-13" d="M521.55,143.17a3.66,3.66,0,0,1,.45.6,15.83,15.83,0,0,1,1.07,1.74,23.71,23.71,0,0,1,2.85,13,15.66,15.66,0,0,1-.25,2,5.47,5.47,0,0,1-.15.74,4.09,4.09,0,0,1,.07-.75c.07-.48.13-1.17.17-2a25.18,25.18,0,0,0-.55-6.66,25.93,25.93,0,0,0-2.27-6.28c-.4-.76-.75-1.37-1-1.77a6.49,6.49,0,0,1-.38-.65"/><path class="cls-13" d="M523.14,151.64a8.21,8.21,0,0,0,0-6,2.35,2.35,0,0,1,.4.81,6.33,6.33,0,0,1,.37,2.17,6.63,6.63,0,0,1-.37,2.17,2.27,2.27,0,0,1-.42.81"/><path class="cls-13" d="M527.87,154.64a2.18,2.18,0,0,1-.67-.48,6.77,6.77,0,0,1-2.07-3.33A2.49,2.49,0,0,1,525,150a14.26,14.26,0,0,0,1.11,2.51,14.85,14.85,0,0,0,1.76,2.11"/><path class="cls-13" d="M524.19,157.7a9.51,9.51,0,0,0,1-2.11,10.09,10.09,0,0,0,.29-2.34,4.06,4.06,0,0,1-.07,2.4,4,4,0,0,1-1.25,2"/><path class="cls-13" d="M526.77,160.79a3.43,3.43,0,0,1-.76-1.73,3.53,3.53,0,0,1,0-1.9c.07,0,0,.85.18,1.85s.61,1.75.55,1.78"/><path class="cls-13" d="M529.35,157.52a4.76,4.76,0,0,1,.45.6,18.29,18.29,0,0,1,1.07,1.74,23.95,23.95,0,0,1,2.85,13c-.07.86-.16,1.55-.25,2a4.48,4.48,0,0,1-.16.73,5.09,5.09,0,0,1,.08-.75c.06-.47.13-1.17.17-2a25.27,25.27,0,0,0-2.83-12.95c-.4-.76-.74-1.36-1-1.77a5.06,5.06,0,0,1-.38-.64"/><path class="cls-13" d="M530.94,166a8.14,8.14,0,0,0,0-6,2.61,2.61,0,0,1,.41.81,6.63,6.63,0,0,1,.37,2.17,6.31,6.31,0,0,1-.38,2.17,2.61,2.61,0,0,1-.41.81"/><path class="cls-13" d="M535.66,169a2.57,2.57,0,0,1-.67-.47,7.14,7.14,0,0,1-1.27-1.52,6.93,6.93,0,0,1-.8-1.81,2.06,2.06,0,0,1-.12-.81,14,14,0,0,0,1.11,2.5,13.8,13.8,0,0,0,1.75,2.11"/><path class="cls-13" d="M532,172a7,7,0,0,0,1.31-4.44,4,4,0,0,1-.07,2.39,3.94,3.94,0,0,1-1.24,2"/><path class="cls-13" d="M534.57,175.14a4.38,4.38,0,0,1-.73-3.64,18.38,18.38,0,0,0,.18,1.86c.2,1,.61,1.74.55,1.78"/><path class="cls-13" d="M511.55,168.38a6.89,6.89,0,0,1,.61.44c.38.29.91.75,1.54,1.34a23.8,23.8,0,0,1,6.63,11.58,19.21,19.21,0,0,1,.37,2,4.15,4.15,0,0,1,.07.75,5.5,5.5,0,0,1-.15-.73c-.08-.48-.23-1.16-.44-2a25.32,25.32,0,0,0-6.59-11.5c-.61-.6-1.12-1.07-1.49-1.38a3.77,3.77,0,0,1-.55-.51"/><path class="cls-13" d="M515.61,176a10.45,10.45,0,0,0-.36-3,10.13,10.13,0,0,0-1.42-2.68,2.77,2.77,0,0,1,.63.66,6.3,6.3,0,0,1,1,2,6.59,6.59,0,0,1,.28,2.18,2.44,2.44,0,0,1-.14.9"/><path class="cls-13" d="M521,177.42a2,2,0,0,1-.78-.25,6.75,6.75,0,0,1-1.67-1.06,6.88,6.88,0,0,1-1.3-1.49,2.54,2.54,0,0,1-.37-.74,13.69,13.69,0,0,0,1.81,2.06,13.51,13.51,0,0,0,2.31,1.48"/><path class="cls-13" d="M518.43,181.45a10.18,10.18,0,0,0,.35-2.33,9.75,9.75,0,0,0-.44-2.31,4.68,4.68,0,0,1,.09,4.64"/><path class="cls-13" d="M521.82,183.62a3.48,3.48,0,0,1-1.26-1.42,3.43,3.43,0,0,1-.53-1.82c.06,0,.23.82.73,1.71a17.83,17.83,0,0,0,1.06,1.53"/><g class="cls-40"><g class="cls-41"><path class="cls-7" d="M528.49,189.11a7.93,7.93,0,0,0-12.89-6l1.47,5,6.41,3.13Z"/></g></g><g class="cls-40"><g class="cls-42"><path class="cls-7" d="M537,170.14a7.83,7.83,0,0,1-4.48-13.87l6.59,4.2Z"/></g></g></g><g class="cls-5"><path class="cls-15" d="M724.69,185.53l-24.42-9.94a2.52,2.52,0,0,1-1.39-3.3l6-14.76a2.55,2.55,0,0,1,3.3-1.39l24.42,10a2.51,2.51,0,0,1,1.39,3.29l-6,14.76a2.53,2.53,0,0,1-3.3,1.39"/><g class="cls-18"><g class="cls-43"><path d="M724.69,185.53l-24.42-9.94a2.52,2.52,0,0,1-1.39-3.3l6-14.76a2.55,2.55,0,0,1,3.3-1.39l24.42,10a2.51,2.51,0,0,1,1.39,3.29l-6,14.76a2.53,2.53,0,0,1-3.3,1.39"/></g></g><path class="cls-11" d="M725.57,167.4a1.89,1.89,0,0,1,.15-.37l.49-1a24.08,24.08,0,0,0,1.55-3.9,9.39,9.39,0,0,0-.12-6.05,6.24,6.24,0,0,0-2.22-2.77,17.87,17.87,0,0,0-3.49-1.78c-2.48-1-5.14-1.51-7.36-.81a6.69,6.69,0,0,0-2.78,1.66,10.1,10.1,0,0,0-1.73,2.28,20.38,20.38,0,0,0-1.58,3.89l-.35,1.09a2,2,0,0,1-.14.38,1.73,1.73,0,0,1,.07-.4c.06-.25.15-.63.28-1.11a19.08,19.08,0,0,1,1.49-4,10.23,10.23,0,0,1,1.74-2.38,7.17,7.17,0,0,1,2.89-1.77,8.65,8.65,0,0,1,3.74-.26,16.09,16.09,0,0,1,3.86,1.06,17.65,17.65,0,0,1,3.57,1.83,6.47,6.47,0,0,1,2.32,2.94,9.56,9.56,0,0,1,.06,6.25,21.57,21.57,0,0,1-1.67,3.89c-.23.44-.42.78-.55,1a1.93,1.93,0,0,1-.22.34"/><path class="cls-15" d="M721.06,183.93,696.63,174a2.55,2.55,0,0,1-1.39-3.3l6-14.76a2.53,2.53,0,0,1,3.3-1.39L729,164.48a2.52,2.52,0,0,1,1.39,3.3l-6,14.76a2.53,2.53,0,0,1-3.29,1.39"/><g class="cls-44"><g class="cls-45"><path class="cls-7" d="M698.58,162.49a52.53,52.53,0,0,0,6,3.35c2.15.88.15,1.44,3.65,1s3.81-.39,4.59.24,1.14,1.56,1.74,1.88a17.24,17.24,0,0,0,1.68.74s2.56,1.06,3.14,1.22c4.12,1.15,5.06.16,6.23,1.89s1.94,1.83,1.94,1.83l.8-2-3.73-1.52s-1.72-1.42-2.22-1.73-.72-1-1.61-.66a5.4,5.4,0,0,1-2.22.35c-.52,0-2.37-.32-2.37-.32l-1.61-.65-.36-1.42-1.47-1-.79-.11-2-.5-2.75-.39L704.4,164l-1.61-.66-2.44-.16Z"/></g></g><g class="cls-44"><g class="cls-46"><path class="cls-7" d="M698,166.21l4.19,3.27,2.09,1.79s2.81,1.56,3.76,1.53a8,8,0,0,1,2.47.59l1.4,1.17,2,.8,2.18.29,1.95,0,1.7.69,2.24.91,2.06.84,1.25.51.32.86.72-1.78-5.83-4-4.38-.51-3.62-1.47-1.66-1.95-2.93-.23-2.74-.7-3-1.42-3.13-1.27Z"/></g></g><g class="cls-44"><g class="cls-47"><polygon class="cls-7" points="696.26 168.19 698.15 173.04 699.75 175.25 704.85 177.33 701.69 172.29 699.22 170.67 697.21 168.18 696.58 167.4 696.26 168.19"/></g></g><g class="cls-44"><g class="cls-48"><polygon class="cls-7" points="704.19 172.79 707.6 175.95 708.16 178.68 711.47 180.02 715.31 181.59 717.85 180.49 721 180.16 722.35 180.18 719.76 179.13 716.56 179.29 714.09 178.96 711.54 176.77 708.68 175.61 707.86 174.29 706.49 173.31 704.19 172.79"/></g></g><g class="cls-44"><g class="cls-49"><path class="cls-7" d="M700.94,159.38l4.87.83,4-1,2.8-.73,3.06,2,3.55,1.65,4.39.85,2.8.31,2.18,1.82,1,3.43.06.88-.4,1-2.45-3.71a24.65,24.65,0,0,0-2-1.75c-.27-.11-1.5-.93-2.05-.84a10.41,10.41,0,0,1-3.55-.5c-1.29-.42-3.58-1-3.58-1l-2.15-1.29-1.25-.51h-3l-1.72.66-1.57.78-2.6-1.05L699.6,160l.55-1.36Z"/></g></g><g class="cls-44"><g class="cls-50"><polygon class="cls-7" points="706.45 155.65 700.85 156.92 700.43 157.95 703.64 157.98 706.68 157.72 708.67 156.56 706.45 155.65"/></g></g><path class="cls-11" d="M721.06,183.93a3.23,3.23,0,0,0,1,.15,2.75,2.75,0,0,0,1.16-.33,2.55,2.55,0,0,0,1.07-1.22l4-10c.43-1.06.87-2.16,1.34-3.31.22-.57.49-1.18.69-1.75a2.36,2.36,0,0,0-.21-1.8,2.54,2.54,0,0,0-1.48-1.17l-2-.79-4.07-1.65-18.12-7.36a2.38,2.38,0,0,0-2.28.29,2.35,2.35,0,0,0-.74.91l-.48,1.17c-.64,1.56-1.26,3.1-1.88,4.62l-3.57,8.73a3.37,3.37,0,0,0-.3,1,2.68,2.68,0,0,0,.14,1,2.38,2.38,0,0,0,1.39,1.39l3.84,1.57,6.87,2.83,10,4.11,2.7,1.14.69.3a1,1,0,0,1,.24.12l-.25-.08-.71-.27-2.73-1.08-10-4-6.9-2.78-3.84-1.56a2.71,2.71,0,0,1-1.58-1.58,2.82,2.82,0,0,1-.16-1.16,3.53,3.53,0,0,1,.32-1.12l3.55-8.74,1.87-4.62c.17-.39.31-.78.49-1.18a2.61,2.61,0,0,1,.86-1.06,2.75,2.75,0,0,1,2.63-.33l18.11,7.39,4.06,1.66,2,.8a2.85,2.85,0,0,1,1.63,1.32,2.64,2.64,0,0,1,.22,2c-.22.63-.48,1.19-.71,1.77-.47,1.15-.92,2.25-1.36,3.3l-4.11,10a2.57,2.57,0,0,1-1.15,1.25,2.52,2.52,0,0,1-1.21.31,2.06,2.06,0,0,1-1-.22"/></g><g class="cls-5"><path class="cls-11" d="M806,206.53s0-.16,0-.46.08-.77.15-1.35c0-.3.08-.62.09-1s0-.77,0-1.2,0-.91,0-1.41-.09-1-.13-1.59a26,26,0,0,0-2.11-7.9,25.71,25.71,0,0,0-6.38-8.7l-1.16-1c-.41-.31-.84-.6-1.26-.91a25.89,25.89,0,0,0-2.75-1.69,25.44,25.44,0,0,0-6.41-2.32,27.51,27.51,0,0,0-3.56-.56c-.61-.06-1.23,0-1.85-.06l-.93,0c-.31,0-.62,0-.94.07a24.53,24.53,0,0,0-7.55,1.66,25.85,25.85,0,0,0-12.62,10.43A26.14,26.14,0,0,0,755,205.69c.06.38.12.77.19,1.16l0,.08,0,.06-8.31,11.55-.18-.28,12.28-1.9.11,0,.06.09a25.89,25.89,0,0,0,9.46,8.5,26.55,26.55,0,0,0,5.62,2.13,20.38,20.38,0,0,0,2.85.53l1.4.17c.47.06.94,0,1.4.05a25.57,25.57,0,0,0,10.2-1.82,26.27,26.27,0,0,0,7.58-4.67l1.45-1.36,1.24-1.41a14.91,14.91,0,0,0,1.08-1.39c.32-.48.68-.9.94-1.36a27.23,27.23,0,0,0,2.39-4.87c.24-.71.45-1.33.64-1.87l.33-1.39c.09-.37.15-.65.2-.85s.08-.29.08-.29,0,.1,0,.29-.1.49-.18.86l-.3,1.41c-.18.54-.38,1.17-.61,1.87a26.17,26.17,0,0,1-2.36,4.92,15.91,15.91,0,0,1-.93,1.38,14,14,0,0,1-1.08,1.42l-1.24,1.43-1.45,1.38a26.47,26.47,0,0,1-7.64,4.74,25.8,25.8,0,0,1-10.3,1.88c-.46,0-.94,0-1.41-.05l-1.43-.17a19.64,19.64,0,0,1-2.88-.53,26.6,26.6,0,0,1-5.69-2.14,26.28,26.28,0,0,1-9.6-8.59l.17.07-12.27,1.91-.43.07.25-.35c2.7-3.74,5.48-7.61,8.31-11.55l0,.14c-.07-.39-.14-.79-.19-1.18a26.5,26.5,0,0,1,3.69-17.4,26.06,26.06,0,0,1,12.8-10.55,24.8,24.8,0,0,1,7.65-1.67c.32,0,.64-.06.95-.07l1,0c.62,0,1.25,0,1.86.07a27.29,27.29,0,0,1,10.08,2.94,25.38,25.38,0,0,1,2.77,1.72c.43.31.87.61,1.28.92l1.16,1a25.63,25.63,0,0,1,8.46,16.78c0,.56.08,1.1.12,1.6s0,1,0,1.41,0,.84,0,1.21-.08.69-.11,1c-.08.58-.14,1-.18,1.34a4.63,4.63,0,0,1-.08.46"/><polygon class="cls-12" points="788.94 192.2 792.04 215.67 769.08 215.67 772.43 192.2 788.94 192.2"/><path class="cls-7" d="M774.29,195.6a10.75,10.75,0,0,0,1.17,2.22,6.26,6.26,0,0,0,2,1.77,7.25,7.25,0,0,0,6.34.06,5.39,5.39,0,0,0,2-1.78,9.75,9.75,0,0,0,1.06-2.27,1.87,1.87,0,0,1-.1.69A6.32,6.32,0,0,1,786,198a5.44,5.44,0,0,1-2,1.94,6.86,6.86,0,0,1-3.34.77,6.72,6.72,0,0,1-3.33-.84,6.11,6.11,0,0,1-2-1.91,6.75,6.75,0,0,1-.83-1.69,1.8,1.8,0,0,1-.13-.68"/></g></g></g></svg>